G04 #@! TF.FileFunction,Soldermask,Bot*
%FSLAX46Y46*%
G04 Gerber Fmt 4.6, Leading zero omitted, Abs format (unit mm)*
G04 Created by KiCad (PCBNEW 4.0.4-stable) date Saturday, September 23, 2017 'PMt' 03:39:17 PM*
%MOMM*%
%LPD*%
G01*
G04 APERTURE LIST*
%ADD10C,0.100000*%
%ADD11C,3.400000*%
%ADD12R,2.000000X2.000000*%
%ADD13C,2.000000*%
%ADD14C,2.398980*%
%ADD15R,2.200000X2.200000*%
%ADD16C,2.200000*%
%ADD17C,1.900000*%
%ADD18R,2.100000X2.100000*%
%ADD19O,2.100000X2.100000*%
%ADD20C,2.400000*%
G04 APERTURE END LIST*
D10*
D11*
X52000000Y-111500000D03*
X51920000Y-124250000D03*
X57000000Y-111500000D03*
X57000000Y-124250000D03*
D12*
X109500000Y-108000000D03*
D13*
X111500000Y-108000000D03*
D12*
X119000000Y-88500000D03*
D13*
X121500000Y-88500000D03*
D14*
X109420000Y-97000000D03*
X109420000Y-102080000D03*
D15*
X68040000Y-117500000D03*
D16*
X65500000Y-117500000D03*
X62960000Y-117500000D03*
D15*
X112080000Y-118000000D03*
D16*
X109540000Y-118000000D03*
X107000000Y-118000000D03*
D17*
X79880000Y-66380000D03*
X82420000Y-66380000D03*
X84960000Y-66380000D03*
X95120000Y-66380000D03*
X92580000Y-66380000D03*
X90040000Y-66380000D03*
X87500000Y-66380000D03*
X95120000Y-81620000D03*
X92580000Y-81620000D03*
X90040000Y-81620000D03*
X79880000Y-81620000D03*
X82420000Y-81620000D03*
X84960000Y-81620000D03*
X87500000Y-81620000D03*
X79880000Y-46880000D03*
X82420000Y-46880000D03*
X84960000Y-46880000D03*
X95120000Y-46880000D03*
X92580000Y-46880000D03*
X90040000Y-46880000D03*
X87500000Y-46880000D03*
X95120000Y-62120000D03*
X92580000Y-62120000D03*
X90040000Y-62120000D03*
X79880000Y-62120000D03*
X82420000Y-62120000D03*
X84960000Y-62120000D03*
X87500000Y-62120000D03*
D18*
X85500000Y-127500000D03*
D19*
X88040000Y-127500000D03*
D18*
X97000000Y-95460000D03*
D19*
X99540000Y-95460000D03*
X97000000Y-98000000D03*
X99540000Y-98000000D03*
X97000000Y-100540000D03*
X99540000Y-100540000D03*
D18*
X52500000Y-52000000D03*
D19*
X55040000Y-52000000D03*
X57580000Y-52000000D03*
D18*
X117500000Y-51500000D03*
D19*
X120040000Y-51500000D03*
X122580000Y-51500000D03*
D18*
X59000000Y-92460000D03*
D19*
X59000000Y-95000000D03*
X59000000Y-97540000D03*
X59000000Y-100080000D03*
D20*
X67250000Y-184500000D03*
X59750000Y-184500000D03*
X63500000Y-173250000D03*
X67290000Y-129500000D03*
X64750000Y-129500000D03*
X62250000Y-129500000D03*
X59750000Y-129500000D03*
X63500000Y-140750000D03*
X115250000Y-184500000D03*
X107750000Y-184500000D03*
X111500000Y-173250000D03*
X115290000Y-129500000D03*
X112750000Y-129500000D03*
X110250000Y-129500000D03*
X107750000Y-129500000D03*
X111500000Y-140750000D03*
D11*
X74000000Y-111500000D03*
X73920000Y-124250000D03*
X79000000Y-111500000D03*
X79000000Y-124250000D03*
X96000000Y-111500000D03*
X95920000Y-124250000D03*
X101000000Y-111500000D03*
X101000000Y-124250000D03*
X118000000Y-111500000D03*
X117920000Y-124250000D03*
X123000000Y-111500000D03*
X123000000Y-124250000D03*
M02*
