G04 #@! TF.FileFunction,Copper,L2,Bot,Signal*
%FSLAX46Y46*%
G04 Gerber Fmt 4.6, Leading zero omitted, Abs format (unit mm)*
G04 Created by KiCad (PCBNEW 4.0.4-stable) date Saturday, September 23, 2017 'PMt' 03:39:17 PM*
%MOMM*%
%LPD*%
G01*
G04 APERTURE LIST*
%ADD10C,0.100000*%
%ADD11C,3.000000*%
%ADD12R,1.600000X1.600000*%
%ADD13C,1.600000*%
%ADD14C,1.998980*%
%ADD15R,1.800000X1.800000*%
%ADD16C,1.800000*%
%ADD17C,1.500000*%
%ADD18R,1.700000X1.700000*%
%ADD19O,1.700000X1.700000*%
%ADD20C,2.000000*%
%ADD21C,0.600000*%
%ADD22C,0.250000*%
%ADD23C,0.500000*%
%ADD24C,0.254000*%
G04 APERTURE END LIST*
D10*
D11*
X52000000Y-111500000D03*
X51920000Y-124250000D03*
X57000000Y-111500000D03*
X57000000Y-124250000D03*
D12*
X109500000Y-108000000D03*
D13*
X111500000Y-108000000D03*
D12*
X119000000Y-88500000D03*
D13*
X121500000Y-88500000D03*
D14*
X109420000Y-97000000D03*
X109420000Y-102080000D03*
D15*
X68040000Y-117500000D03*
D16*
X65500000Y-117500000D03*
X62960000Y-117500000D03*
D15*
X112080000Y-118000000D03*
D16*
X109540000Y-118000000D03*
X107000000Y-118000000D03*
D17*
X79880000Y-66380000D03*
X82420000Y-66380000D03*
X84960000Y-66380000D03*
X95120000Y-66380000D03*
X92580000Y-66380000D03*
X90040000Y-66380000D03*
X87500000Y-66380000D03*
X95120000Y-81620000D03*
X92580000Y-81620000D03*
X90040000Y-81620000D03*
X79880000Y-81620000D03*
X82420000Y-81620000D03*
X84960000Y-81620000D03*
X87500000Y-81620000D03*
X79880000Y-46880000D03*
X82420000Y-46880000D03*
X84960000Y-46880000D03*
X95120000Y-46880000D03*
X92580000Y-46880000D03*
X90040000Y-46880000D03*
X87500000Y-46880000D03*
X95120000Y-62120000D03*
X92580000Y-62120000D03*
X90040000Y-62120000D03*
X79880000Y-62120000D03*
X82420000Y-62120000D03*
X84960000Y-62120000D03*
X87500000Y-62120000D03*
D18*
X85500000Y-127500000D03*
D19*
X88040000Y-127500000D03*
D18*
X97000000Y-95460000D03*
D19*
X99540000Y-95460000D03*
X97000000Y-98000000D03*
X99540000Y-98000000D03*
X97000000Y-100540000D03*
X99540000Y-100540000D03*
D18*
X52500000Y-52000000D03*
D19*
X55040000Y-52000000D03*
X57580000Y-52000000D03*
D18*
X117500000Y-51500000D03*
D19*
X120040000Y-51500000D03*
X122580000Y-51500000D03*
D18*
X59000000Y-92460000D03*
D19*
X59000000Y-95000000D03*
X59000000Y-97540000D03*
X59000000Y-100080000D03*
D20*
X67250000Y-184500000D03*
X59750000Y-184500000D03*
X63500000Y-173250000D03*
X67290000Y-129500000D03*
X64750000Y-129500000D03*
X62250000Y-129500000D03*
X59750000Y-129500000D03*
X63500000Y-140750000D03*
X115250000Y-184500000D03*
X107750000Y-184500000D03*
X111500000Y-173250000D03*
X115290000Y-129500000D03*
X112750000Y-129500000D03*
X110250000Y-129500000D03*
X107750000Y-129500000D03*
X111500000Y-140750000D03*
D11*
X74000000Y-111500000D03*
X73920000Y-124250000D03*
X79000000Y-111500000D03*
X79000000Y-124250000D03*
X96000000Y-111500000D03*
X95920000Y-124250000D03*
X101000000Y-111500000D03*
X101000000Y-124250000D03*
X118000000Y-111500000D03*
X117920000Y-124250000D03*
X123000000Y-111500000D03*
X123000000Y-124250000D03*
D21*
X123000000Y-59000000D03*
X80500000Y-118500000D03*
X75000000Y-118500000D03*
X121000000Y-98500000D03*
X121000000Y-95500000D03*
X125000000Y-94000000D03*
X121000000Y-94000000D03*
X116500000Y-94000000D03*
X77000000Y-94000000D03*
X77500000Y-91500000D03*
X123500000Y-49000000D03*
X121500000Y-49000000D03*
X116500000Y-88500000D03*
X126000000Y-72000000D03*
X114500000Y-100500000D03*
X114500000Y-96000000D03*
X112000000Y-126500000D03*
X108500000Y-126500000D03*
X106500000Y-132500000D03*
X104000000Y-129000000D03*
X78000000Y-128500000D03*
X75500000Y-128500000D03*
X69500000Y-132000000D03*
X69500000Y-129500000D03*
X58500000Y-114000000D03*
X55000000Y-114000000D03*
X55500000Y-74000000D03*
X56500000Y-73000000D03*
X60500000Y-69500000D03*
X85500000Y-92000000D03*
X58000000Y-68000000D03*
X86500000Y-105000000D03*
X85500000Y-104000000D03*
X118000000Y-72500000D03*
X118000000Y-70000000D03*
X93290836Y-102754726D03*
X96282737Y-102249989D03*
X93374990Y-93000000D03*
X68000000Y-86500000D03*
X65000000Y-84500000D03*
X49500000Y-70000000D03*
X54000000Y-62000000D03*
X96075021Y-93000000D03*
X69000000Y-107500000D03*
X86500000Y-100500000D03*
X103421640Y-111578360D03*
X105500000Y-112000000D03*
X104500000Y-112000000D03*
X83624450Y-58629449D03*
X92500000Y-59000000D03*
X90000000Y-71625010D03*
X53500000Y-64000000D03*
X64500000Y-64000000D03*
X88000000Y-60500000D03*
X91957294Y-59952998D03*
X63000000Y-59500000D03*
X68500000Y-59500000D03*
X95800013Y-94000000D03*
X89529046Y-95970954D03*
X52000000Y-60000000D03*
X52000000Y-66500000D03*
X88500000Y-85000000D03*
X89877964Y-98478344D03*
X87000000Y-95500000D03*
X87000000Y-85500000D03*
X94625010Y-96434306D03*
X96500000Y-56000000D03*
X96500000Y-72000000D03*
X95000000Y-94000000D03*
X68000000Y-97500000D03*
X81045863Y-99954137D03*
X69500000Y-98000000D03*
X81000000Y-99000000D03*
X98500000Y-103500000D03*
X87500000Y-98500000D03*
X77625010Y-103281329D03*
X84685169Y-99750012D03*
X72000000Y-109000000D03*
X88000000Y-95500000D03*
X75000000Y-108500000D03*
X77000000Y-99500000D03*
X92926097Y-101508075D03*
X89252954Y-97386503D03*
X102000000Y-114500000D03*
X99000000Y-108000000D03*
X74000000Y-99625010D03*
X73500000Y-102000000D03*
X92099860Y-102591239D03*
X88454213Y-97341433D03*
X100000000Y-108500000D03*
X97565694Y-104125010D03*
X85755277Y-97374990D03*
X108500000Y-111500000D03*
X107000000Y-111000000D03*
X95500000Y-69933668D03*
X95500000Y-71500000D03*
X94000000Y-94000000D03*
X94000000Y-97000000D03*
X123000000Y-62500000D03*
X121000000Y-59000000D03*
X69500000Y-58500000D03*
X62500000Y-58500000D03*
D22*
X121000000Y-95500000D02*
X121000000Y-98500000D01*
X121000000Y-94000000D02*
X125000000Y-94000000D01*
X77500000Y-91500000D02*
X77500000Y-93500000D01*
X77500000Y-93500000D02*
X77000000Y-94000000D01*
X122580000Y-51500000D02*
X122580000Y-49920000D01*
X122580000Y-49920000D02*
X123500000Y-49000000D01*
X122580000Y-51500000D02*
X122580000Y-50080000D01*
X122580000Y-50080000D02*
X121500000Y-49000000D01*
X121000000Y-86500000D02*
X118500000Y-86500000D01*
X118500000Y-86500000D02*
X116500000Y-88500000D01*
X121500000Y-87000000D02*
X121000000Y-86500000D01*
X121500000Y-88500000D02*
X121500000Y-87000000D01*
X118000000Y-72500000D02*
X125500000Y-72500000D01*
X125500000Y-72500000D02*
X126000000Y-72000000D01*
X114500000Y-96000000D02*
X114500000Y-100500000D01*
X108500000Y-126500000D02*
X112000000Y-126500000D01*
X106500000Y-131500000D02*
X106500000Y-132500000D01*
X104000000Y-129000000D02*
X106500000Y-131500000D01*
X75500000Y-128500000D02*
X78000000Y-128500000D01*
X69500000Y-129500000D02*
X69500000Y-132000000D01*
X55000000Y-114000000D02*
X58500000Y-114000000D01*
X56500000Y-73000000D02*
X55500000Y-74000000D01*
X95982738Y-102549988D02*
X96282737Y-102249989D01*
X93290836Y-102754726D02*
X95778000Y-102754726D01*
X95778000Y-102754726D02*
X95982738Y-102549988D01*
D23*
X96075021Y-93000000D02*
X93374990Y-93000000D01*
D22*
X65000000Y-84500000D02*
X66000000Y-84500000D01*
X66000000Y-84500000D02*
X68000000Y-86500000D01*
X54000000Y-62000000D02*
X52625001Y-63374999D01*
X52625001Y-63374999D02*
X52625001Y-66874999D01*
X52625001Y-66874999D02*
X49500000Y-70000000D01*
X69299999Y-107799999D02*
X69000000Y-107500000D01*
X77374998Y-109625002D02*
X71125002Y-109625002D01*
X71125002Y-109625002D02*
X69299999Y-107799999D01*
X86500000Y-100500000D02*
X77374998Y-109625002D01*
X106353359Y-111278361D02*
X103721639Y-111278361D01*
X112080000Y-117005002D02*
X106353359Y-111278361D01*
X112080000Y-118000000D02*
X112080000Y-117005002D01*
X103721639Y-111278361D02*
X103421640Y-111578360D01*
X105500000Y-112000000D02*
X109540000Y-116040000D01*
X109540000Y-116040000D02*
X109540000Y-118000000D01*
X107000000Y-118000000D02*
X107000000Y-114500000D01*
X107000000Y-114500000D02*
X104500000Y-112000000D01*
X82420000Y-63711002D02*
X83624450Y-62506552D01*
X82420000Y-57424999D02*
X83624450Y-58629449D01*
X83624450Y-62506552D02*
X83624450Y-58629449D01*
X82420000Y-46880000D02*
X82420000Y-57424999D01*
X82420000Y-66380000D02*
X82420000Y-63711002D01*
X84960000Y-46880000D02*
X86035001Y-47955001D01*
X86035001Y-47955001D02*
X86035001Y-62636001D01*
X86035001Y-62636001D02*
X84960000Y-63711002D01*
X84960000Y-63711002D02*
X84960000Y-66380000D01*
X92500000Y-59000000D02*
X91500000Y-59000000D01*
X91332292Y-48127708D02*
X92580000Y-46880000D01*
X92580000Y-66380000D02*
X91332292Y-65132292D01*
X91332292Y-65132292D02*
X91332292Y-48127708D01*
X90040000Y-66380000D02*
X90040000Y-71585010D01*
X90040000Y-71585010D02*
X90000000Y-71625010D01*
X64500000Y-64000000D02*
X53500000Y-64000000D01*
X87500000Y-66380000D02*
X87500000Y-63711002D01*
X87500000Y-63711002D02*
X88575001Y-62636001D01*
X88575001Y-62636001D02*
X88575001Y-61075001D01*
X88575001Y-61075001D02*
X88000000Y-60500000D01*
X90040000Y-62120000D02*
X88964999Y-63195001D01*
X88964999Y-63195001D02*
X88964999Y-80544999D01*
X88964999Y-80544999D02*
X90040000Y-81620000D01*
X79880000Y-62120000D02*
X78804999Y-63195001D01*
X78804999Y-63195001D02*
X78804999Y-80544999D01*
X78804999Y-80544999D02*
X79880000Y-81620000D01*
X82420000Y-62120000D02*
X81344999Y-63195001D01*
X81344999Y-63195001D02*
X81344999Y-80544999D01*
X81344999Y-80544999D02*
X82420000Y-81620000D01*
X84960000Y-62120000D02*
X83884999Y-63195001D01*
X83884999Y-63195001D02*
X83884999Y-80544999D01*
X83884999Y-80544999D02*
X84960000Y-81620000D01*
X87500000Y-62120000D02*
X86424999Y-63195001D01*
X86424999Y-63195001D02*
X86424999Y-80544999D01*
X86424999Y-80544999D02*
X87500000Y-81620000D01*
X92580000Y-60575704D02*
X91957294Y-59952998D01*
X92580000Y-62120000D02*
X92580000Y-60575704D01*
X68500000Y-59500000D02*
X63000000Y-59500000D01*
X95800013Y-96800013D02*
X95800013Y-94000000D01*
X97000000Y-98000000D02*
X95800013Y-96800013D01*
X89229047Y-95670955D02*
X89529046Y-95970954D01*
X88500000Y-94941908D02*
X89229047Y-95670955D01*
X88500000Y-85000000D02*
X88500000Y-94941908D01*
X52000000Y-66500000D02*
X52000000Y-60000000D01*
X97000000Y-100540000D02*
X91939620Y-100540000D01*
X90177963Y-98778343D02*
X89877964Y-98478344D01*
X91939620Y-100540000D02*
X90177963Y-98778343D01*
X87000000Y-95500000D02*
X87000000Y-85500000D01*
X94625010Y-96010042D02*
X94625010Y-96434306D01*
X94625010Y-94374990D02*
X94625010Y-96010042D01*
X95000000Y-94000000D02*
X94625010Y-94374990D01*
X96500000Y-72000000D02*
X96500000Y-56000000D01*
X68299999Y-97799999D02*
X68000000Y-97500000D01*
X69374999Y-98874999D02*
X68299999Y-97799999D01*
X79966725Y-98874999D02*
X69374999Y-98874999D01*
X81045863Y-99954137D02*
X79966725Y-98874999D01*
X69924264Y-98000000D02*
X69500000Y-98000000D01*
X76438587Y-98000000D02*
X69924264Y-98000000D01*
X76563588Y-97874999D02*
X76438587Y-98000000D01*
X79874999Y-97874999D02*
X76563588Y-97874999D01*
X81000000Y-99000000D02*
X79874999Y-97874999D01*
X87500000Y-99000000D02*
X92000000Y-103500000D01*
X92000000Y-103500000D02*
X98500000Y-103500000D01*
X87500000Y-98500000D02*
X87500000Y-99000000D01*
X80385512Y-103281329D02*
X78049274Y-103281329D01*
X84685169Y-99750012D02*
X83916829Y-99750012D01*
X83916829Y-99750012D02*
X80385512Y-103281329D01*
X78049274Y-103281329D02*
X77625010Y-103281329D01*
X84031325Y-100375014D02*
X75281337Y-109125002D01*
X85310171Y-100050014D02*
X84985171Y-100375014D01*
X85130275Y-98007790D02*
X85310171Y-98187686D01*
X85455275Y-96749988D02*
X85130275Y-97074988D01*
X85130275Y-97074988D02*
X85130275Y-98007790D01*
X86750012Y-96749988D02*
X85455275Y-96749988D01*
X85310171Y-98187686D02*
X85310171Y-100050014D01*
X84985171Y-100375014D02*
X84031325Y-100375014D01*
X88000000Y-95500000D02*
X86750012Y-96749988D01*
X75281337Y-109125002D02*
X72549266Y-109125002D01*
X72549266Y-109125002D02*
X72424264Y-109000000D01*
X72424264Y-109000000D02*
X72000000Y-109000000D01*
X77000000Y-106500000D02*
X75000000Y-108500000D01*
X77000000Y-99500000D02*
X77000000Y-106500000D01*
X89252954Y-97386503D02*
X89252954Y-98780468D01*
X89252954Y-98780468D02*
X91980561Y-101508075D01*
X92501833Y-101508075D02*
X92926097Y-101508075D01*
X91980561Y-101508075D02*
X92501833Y-101508075D01*
X101298998Y-114500000D02*
X102000000Y-114500000D01*
X99000000Y-108000000D02*
X99000000Y-112201002D01*
X99000000Y-112201002D02*
X101298998Y-114500000D01*
X74000000Y-101500000D02*
X74000000Y-99625010D01*
X73500000Y-102000000D02*
X74000000Y-101500000D01*
X88454213Y-98945592D02*
X92099860Y-102591239D01*
X88454213Y-97341433D02*
X88454213Y-98945592D01*
X100000000Y-108500000D02*
X100000000Y-110500000D01*
X100000000Y-110500000D02*
X101000000Y-111500000D01*
X85755277Y-97374990D02*
X85755277Y-97891688D01*
X97141430Y-104125010D02*
X97565694Y-104125010D01*
X91988599Y-104125010D02*
X97141430Y-104125010D01*
X85755277Y-97891688D02*
X91988599Y-104125010D01*
X107000000Y-111000000D02*
X108000000Y-111000000D01*
X108000000Y-111000000D02*
X108500000Y-111500000D01*
X95500000Y-71500000D02*
X95500000Y-69933668D01*
X94000000Y-97000000D02*
X94000000Y-94000000D01*
X121000000Y-59000000D02*
X121000000Y-60500000D01*
X121000000Y-60500000D02*
X123000000Y-62500000D01*
X62500000Y-58500000D02*
X69500000Y-58500000D01*
D24*
G36*
X126790000Y-190290000D02*
X105210000Y-190290000D01*
X105210000Y-185652532D01*
X106777073Y-185652532D01*
X106875736Y-185919387D01*
X107485461Y-186145908D01*
X108135460Y-186121856D01*
X108624264Y-185919387D01*
X108722927Y-185652532D01*
X107750000Y-184679605D01*
X106777073Y-185652532D01*
X105210000Y-185652532D01*
X105210000Y-184235461D01*
X106104092Y-184235461D01*
X106128144Y-184885460D01*
X106330613Y-185374264D01*
X106597468Y-185472927D01*
X107570395Y-184500000D01*
X107929605Y-184500000D01*
X108902532Y-185472927D01*
X109169387Y-185374264D01*
X109373893Y-184823795D01*
X113614716Y-184823795D01*
X113863106Y-185424943D01*
X114322637Y-185885278D01*
X114923352Y-186134716D01*
X115573795Y-186135284D01*
X115901206Y-186000000D01*
X119290000Y-186000000D01*
X119534347Y-187228414D01*
X120230187Y-188269813D01*
X121271586Y-188965653D01*
X122500000Y-189210000D01*
X123728414Y-188965653D01*
X124769813Y-188269813D01*
X125465653Y-187228414D01*
X125710000Y-186000000D01*
X125465653Y-184771586D01*
X124769813Y-183730187D01*
X123728414Y-183034347D01*
X122500000Y-182790000D01*
X121271586Y-183034347D01*
X120230187Y-183730187D01*
X119534347Y-184771586D01*
X119290000Y-186000000D01*
X115901206Y-186000000D01*
X116174943Y-185886894D01*
X116635278Y-185427363D01*
X116884716Y-184826648D01*
X116885284Y-184176205D01*
X116636894Y-183575057D01*
X116177363Y-183114722D01*
X115576648Y-182865284D01*
X114926205Y-182864716D01*
X114325057Y-183113106D01*
X113864722Y-183572637D01*
X113615284Y-184173352D01*
X113614716Y-184823795D01*
X109373893Y-184823795D01*
X109395908Y-184764539D01*
X109371856Y-184114540D01*
X109169387Y-183625736D01*
X108902532Y-183527073D01*
X107929605Y-184500000D01*
X107570395Y-184500000D01*
X106597468Y-183527073D01*
X106330613Y-183625736D01*
X106104092Y-184235461D01*
X105210000Y-184235461D01*
X105210000Y-183347468D01*
X106777073Y-183347468D01*
X107750000Y-184320395D01*
X108722927Y-183347468D01*
X108624264Y-183080613D01*
X108014539Y-182854092D01*
X107364540Y-182878144D01*
X106875736Y-183080613D01*
X106777073Y-183347468D01*
X105210000Y-183347468D01*
X105210000Y-173573795D01*
X109864716Y-173573795D01*
X110113106Y-174174943D01*
X110572637Y-174635278D01*
X111173352Y-174884716D01*
X111823795Y-174885284D01*
X112424943Y-174636894D01*
X112885278Y-174177363D01*
X113134716Y-173576648D01*
X113135284Y-172926205D01*
X112886894Y-172325057D01*
X112427363Y-171864722D01*
X111826648Y-171615284D01*
X111176205Y-171614716D01*
X110575057Y-171863106D01*
X110114722Y-172322637D01*
X109865284Y-172923352D01*
X109864716Y-173573795D01*
X105210000Y-173573795D01*
X105210000Y-141073795D01*
X109864716Y-141073795D01*
X110113106Y-141674943D01*
X110572637Y-142135278D01*
X111173352Y-142384716D01*
X111823795Y-142385284D01*
X112424943Y-142136894D01*
X112885278Y-141677363D01*
X113134716Y-141076648D01*
X113135284Y-140426205D01*
X112886894Y-139825057D01*
X112427363Y-139364722D01*
X111826648Y-139115284D01*
X111176205Y-139114716D01*
X110575057Y-139363106D01*
X110114722Y-139822637D01*
X109865284Y-140423352D01*
X109864716Y-141073795D01*
X105210000Y-141073795D01*
X105210000Y-131000000D01*
X105155954Y-130728295D01*
X105002046Y-130497954D01*
X104771705Y-130344046D01*
X104500000Y-130290000D01*
X70500000Y-130290000D01*
X70228295Y-130344046D01*
X69997954Y-130497954D01*
X69844046Y-130728295D01*
X69790000Y-131000000D01*
X69790000Y-190290000D01*
X48210000Y-190290000D01*
X48210000Y-186000000D01*
X49290000Y-186000000D01*
X49534347Y-187228414D01*
X50230187Y-188269813D01*
X51271586Y-188965653D01*
X52500000Y-189210000D01*
X53728414Y-188965653D01*
X54769813Y-188269813D01*
X55465653Y-187228414D01*
X55710000Y-186000000D01*
X55640885Y-185652532D01*
X58777073Y-185652532D01*
X58875736Y-185919387D01*
X59485461Y-186145908D01*
X60135460Y-186121856D01*
X60624264Y-185919387D01*
X60722927Y-185652532D01*
X59750000Y-184679605D01*
X58777073Y-185652532D01*
X55640885Y-185652532D01*
X55465653Y-184771586D01*
X55107427Y-184235461D01*
X58104092Y-184235461D01*
X58128144Y-184885460D01*
X58330613Y-185374264D01*
X58597468Y-185472927D01*
X59570395Y-184500000D01*
X59929605Y-184500000D01*
X60902532Y-185472927D01*
X61169387Y-185374264D01*
X61373893Y-184823795D01*
X65614716Y-184823795D01*
X65863106Y-185424943D01*
X66322637Y-185885278D01*
X66923352Y-186134716D01*
X67573795Y-186135284D01*
X68174943Y-185886894D01*
X68635278Y-185427363D01*
X68884716Y-184826648D01*
X68885284Y-184176205D01*
X68636894Y-183575057D01*
X68177363Y-183114722D01*
X67576648Y-182865284D01*
X66926205Y-182864716D01*
X66325057Y-183113106D01*
X65864722Y-183572637D01*
X65615284Y-184173352D01*
X65614716Y-184823795D01*
X61373893Y-184823795D01*
X61395908Y-184764539D01*
X61371856Y-184114540D01*
X61169387Y-183625736D01*
X60902532Y-183527073D01*
X59929605Y-184500000D01*
X59570395Y-184500000D01*
X58597468Y-183527073D01*
X58330613Y-183625736D01*
X58104092Y-184235461D01*
X55107427Y-184235461D01*
X54769813Y-183730187D01*
X54197034Y-183347468D01*
X58777073Y-183347468D01*
X59750000Y-184320395D01*
X60722927Y-183347468D01*
X60624264Y-183080613D01*
X60014539Y-182854092D01*
X59364540Y-182878144D01*
X58875736Y-183080613D01*
X58777073Y-183347468D01*
X54197034Y-183347468D01*
X53728414Y-183034347D01*
X52500000Y-182790000D01*
X51271586Y-183034347D01*
X50230187Y-183730187D01*
X49534347Y-184771586D01*
X49290000Y-186000000D01*
X48210000Y-186000000D01*
X48210000Y-173573795D01*
X61864716Y-173573795D01*
X62113106Y-174174943D01*
X62572637Y-174635278D01*
X63173352Y-174884716D01*
X63823795Y-174885284D01*
X64424943Y-174636894D01*
X64885278Y-174177363D01*
X65134716Y-173576648D01*
X65135284Y-172926205D01*
X64886894Y-172325057D01*
X64427363Y-171864722D01*
X63826648Y-171615284D01*
X63176205Y-171614716D01*
X62575057Y-171863106D01*
X62114722Y-172322637D01*
X61865284Y-172923352D01*
X61864716Y-173573795D01*
X48210000Y-173573795D01*
X48210000Y-141073795D01*
X61864716Y-141073795D01*
X62113106Y-141674943D01*
X62572637Y-142135278D01*
X63173352Y-142384716D01*
X63823795Y-142385284D01*
X64424943Y-142136894D01*
X64885278Y-141677363D01*
X65134716Y-141076648D01*
X65135284Y-140426205D01*
X64886894Y-139825057D01*
X64427363Y-139364722D01*
X63826648Y-139115284D01*
X63176205Y-139114716D01*
X62575057Y-139363106D01*
X62114722Y-139822637D01*
X61865284Y-140423352D01*
X61864716Y-141073795D01*
X48210000Y-141073795D01*
X48210000Y-129823795D01*
X58114716Y-129823795D01*
X58363106Y-130424943D01*
X58822637Y-130885278D01*
X59423352Y-131134716D01*
X60073795Y-131135284D01*
X60674943Y-130886894D01*
X61000164Y-130562241D01*
X61322637Y-130885278D01*
X61923352Y-131134716D01*
X62573795Y-131135284D01*
X63174943Y-130886894D01*
X63500164Y-130562241D01*
X63822637Y-130885278D01*
X64423352Y-131134716D01*
X65073795Y-131135284D01*
X65674943Y-130886894D01*
X66020199Y-130542241D01*
X66362637Y-130885278D01*
X66963352Y-131134716D01*
X67613795Y-131135284D01*
X68214943Y-130886894D01*
X68675278Y-130427363D01*
X68924716Y-129826648D01*
X68924718Y-129823795D01*
X106114716Y-129823795D01*
X106363106Y-130424943D01*
X106822637Y-130885278D01*
X107423352Y-131134716D01*
X108073795Y-131135284D01*
X108674943Y-130886894D01*
X109000164Y-130562241D01*
X109322637Y-130885278D01*
X109923352Y-131134716D01*
X110573795Y-131135284D01*
X111174943Y-130886894D01*
X111500164Y-130562241D01*
X111822637Y-130885278D01*
X112423352Y-131134716D01*
X113073795Y-131135284D01*
X113674943Y-130886894D01*
X114020199Y-130542241D01*
X114362637Y-130885278D01*
X114963352Y-131134716D01*
X115613795Y-131135284D01*
X116214943Y-130886894D01*
X116675278Y-130427363D01*
X116924716Y-129826648D01*
X116925284Y-129176205D01*
X116676894Y-128575057D01*
X116217363Y-128114722D01*
X115616648Y-127865284D01*
X114966205Y-127864716D01*
X114365057Y-128113106D01*
X114019801Y-128457759D01*
X113677363Y-128114722D01*
X113076648Y-127865284D01*
X112426205Y-127864716D01*
X111825057Y-128113106D01*
X111499836Y-128437759D01*
X111177363Y-128114722D01*
X110576648Y-127865284D01*
X109926205Y-127864716D01*
X109325057Y-128113106D01*
X108999836Y-128437759D01*
X108677363Y-128114722D01*
X108076648Y-127865284D01*
X107426205Y-127864716D01*
X106825057Y-128113106D01*
X106364722Y-128572637D01*
X106115284Y-129173352D01*
X106114716Y-129823795D01*
X68924718Y-129823795D01*
X68925284Y-129176205D01*
X68676894Y-128575057D01*
X68217363Y-128114722D01*
X67616648Y-127865284D01*
X66966205Y-127864716D01*
X66365057Y-128113106D01*
X66019801Y-128457759D01*
X65677363Y-128114722D01*
X65076648Y-127865284D01*
X64426205Y-127864716D01*
X63825057Y-128113106D01*
X63499836Y-128437759D01*
X63177363Y-128114722D01*
X62576648Y-127865284D01*
X61926205Y-127864716D01*
X61325057Y-128113106D01*
X60999836Y-128437759D01*
X60677363Y-128114722D01*
X60076648Y-127865284D01*
X59426205Y-127864716D01*
X58825057Y-128113106D01*
X58364722Y-128572637D01*
X58115284Y-129173352D01*
X58114716Y-129823795D01*
X48210000Y-129823795D01*
X48210000Y-126650000D01*
X84002560Y-126650000D01*
X84002560Y-128350000D01*
X84046838Y-128585317D01*
X84185910Y-128801441D01*
X84398110Y-128946431D01*
X84650000Y-128997440D01*
X86350000Y-128997440D01*
X86585317Y-128953162D01*
X86801441Y-128814090D01*
X86946431Y-128601890D01*
X86968301Y-128493893D01*
X87273076Y-128771645D01*
X87683110Y-128941476D01*
X87913000Y-128820155D01*
X87913000Y-127627000D01*
X88167000Y-127627000D01*
X88167000Y-128820155D01*
X88396890Y-128941476D01*
X88806924Y-128771645D01*
X89235183Y-128381358D01*
X89481486Y-127856892D01*
X89360819Y-127627000D01*
X88167000Y-127627000D01*
X87913000Y-127627000D01*
X87893000Y-127627000D01*
X87893000Y-127373000D01*
X87913000Y-127373000D01*
X87913000Y-126179845D01*
X88167000Y-126179845D01*
X88167000Y-127373000D01*
X89360819Y-127373000D01*
X89481486Y-127143108D01*
X89235183Y-126618642D01*
X88806924Y-126228355D01*
X88396890Y-126058524D01*
X88167000Y-126179845D01*
X87913000Y-126179845D01*
X87683110Y-126058524D01*
X87273076Y-126228355D01*
X86970063Y-126504501D01*
X86953162Y-126414683D01*
X86814090Y-126198559D01*
X86601890Y-126053569D01*
X86350000Y-126002560D01*
X84650000Y-126002560D01*
X84414683Y-126046838D01*
X84198559Y-126185910D01*
X84053569Y-126398110D01*
X84002560Y-126650000D01*
X48210000Y-126650000D01*
X48210000Y-125763970D01*
X50585635Y-125763970D01*
X50745418Y-126082739D01*
X51536187Y-126392723D01*
X52385387Y-126376497D01*
X53094582Y-126082739D01*
X53254365Y-125763970D01*
X51920000Y-124429605D01*
X50585635Y-125763970D01*
X48210000Y-125763970D01*
X48210000Y-123866187D01*
X49777277Y-123866187D01*
X49793503Y-124715387D01*
X50087261Y-125424582D01*
X50406030Y-125584365D01*
X51740395Y-124250000D01*
X52099605Y-124250000D01*
X53433970Y-125584365D01*
X53752739Y-125424582D01*
X54047434Y-124672815D01*
X54864630Y-124672815D01*
X55188980Y-125457800D01*
X55789041Y-126058909D01*
X56573459Y-126384628D01*
X57422815Y-126385370D01*
X58207800Y-126061020D01*
X58505368Y-125763970D01*
X72585635Y-125763970D01*
X72745418Y-126082739D01*
X73536187Y-126392723D01*
X74385387Y-126376497D01*
X75094582Y-126082739D01*
X75254365Y-125763970D01*
X73920000Y-124429605D01*
X72585635Y-125763970D01*
X58505368Y-125763970D01*
X58808909Y-125460959D01*
X59134628Y-124676541D01*
X59135335Y-123866187D01*
X71777277Y-123866187D01*
X71793503Y-124715387D01*
X72087261Y-125424582D01*
X72406030Y-125584365D01*
X73740395Y-124250000D01*
X74099605Y-124250000D01*
X75433970Y-125584365D01*
X75752739Y-125424582D01*
X76047434Y-124672815D01*
X76864630Y-124672815D01*
X77188980Y-125457800D01*
X77789041Y-126058909D01*
X78573459Y-126384628D01*
X79422815Y-126385370D01*
X80207800Y-126061020D01*
X80505368Y-125763970D01*
X94585635Y-125763970D01*
X94745418Y-126082739D01*
X95536187Y-126392723D01*
X96385387Y-126376497D01*
X97094582Y-126082739D01*
X97254365Y-125763970D01*
X95920000Y-124429605D01*
X94585635Y-125763970D01*
X80505368Y-125763970D01*
X80808909Y-125460959D01*
X81134628Y-124676541D01*
X81135335Y-123866187D01*
X93777277Y-123866187D01*
X93793503Y-124715387D01*
X94087261Y-125424582D01*
X94406030Y-125584365D01*
X95740395Y-124250000D01*
X96099605Y-124250000D01*
X97433970Y-125584365D01*
X97752739Y-125424582D01*
X98047434Y-124672815D01*
X98864630Y-124672815D01*
X99188980Y-125457800D01*
X99789041Y-126058909D01*
X100573459Y-126384628D01*
X101422815Y-126385370D01*
X102207800Y-126061020D01*
X102505368Y-125763970D01*
X116585635Y-125763970D01*
X116745418Y-126082739D01*
X117536187Y-126392723D01*
X118385387Y-126376497D01*
X119094582Y-126082739D01*
X119254365Y-125763970D01*
X117920000Y-124429605D01*
X116585635Y-125763970D01*
X102505368Y-125763970D01*
X102808909Y-125460959D01*
X103134628Y-124676541D01*
X103135335Y-123866187D01*
X115777277Y-123866187D01*
X115793503Y-124715387D01*
X116087261Y-125424582D01*
X116406030Y-125584365D01*
X117740395Y-124250000D01*
X118099605Y-124250000D01*
X119433970Y-125584365D01*
X119752739Y-125424582D01*
X120047434Y-124672815D01*
X120864630Y-124672815D01*
X121188980Y-125457800D01*
X121789041Y-126058909D01*
X122573459Y-126384628D01*
X123422815Y-126385370D01*
X124207800Y-126061020D01*
X124808909Y-125460959D01*
X125134628Y-124676541D01*
X125135370Y-123827185D01*
X124811020Y-123042200D01*
X124210959Y-122441091D01*
X123426541Y-122115372D01*
X122577185Y-122114630D01*
X121792200Y-122438980D01*
X121191091Y-123039041D01*
X120865372Y-123823459D01*
X120864630Y-124672815D01*
X120047434Y-124672815D01*
X120062723Y-124633813D01*
X120046497Y-123784613D01*
X119752739Y-123075418D01*
X119433970Y-122915635D01*
X118099605Y-124250000D01*
X117740395Y-124250000D01*
X116406030Y-122915635D01*
X116087261Y-123075418D01*
X115777277Y-123866187D01*
X103135335Y-123866187D01*
X103135370Y-123827185D01*
X102811020Y-123042200D01*
X102505384Y-122736030D01*
X116585635Y-122736030D01*
X117920000Y-124070395D01*
X119254365Y-122736030D01*
X119094582Y-122417261D01*
X118303813Y-122107277D01*
X117454613Y-122123503D01*
X116745418Y-122417261D01*
X116585635Y-122736030D01*
X102505384Y-122736030D01*
X102210959Y-122441091D01*
X101426541Y-122115372D01*
X100577185Y-122114630D01*
X99792200Y-122438980D01*
X99191091Y-123039041D01*
X98865372Y-123823459D01*
X98864630Y-124672815D01*
X98047434Y-124672815D01*
X98062723Y-124633813D01*
X98046497Y-123784613D01*
X97752739Y-123075418D01*
X97433970Y-122915635D01*
X96099605Y-124250000D01*
X95740395Y-124250000D01*
X94406030Y-122915635D01*
X94087261Y-123075418D01*
X93777277Y-123866187D01*
X81135335Y-123866187D01*
X81135370Y-123827185D01*
X80811020Y-123042200D01*
X80505384Y-122736030D01*
X94585635Y-122736030D01*
X95920000Y-124070395D01*
X97254365Y-122736030D01*
X97094582Y-122417261D01*
X96303813Y-122107277D01*
X95454613Y-122123503D01*
X94745418Y-122417261D01*
X94585635Y-122736030D01*
X80505384Y-122736030D01*
X80210959Y-122441091D01*
X79426541Y-122115372D01*
X78577185Y-122114630D01*
X77792200Y-122438980D01*
X77191091Y-123039041D01*
X76865372Y-123823459D01*
X76864630Y-124672815D01*
X76047434Y-124672815D01*
X76062723Y-124633813D01*
X76046497Y-123784613D01*
X75752739Y-123075418D01*
X75433970Y-122915635D01*
X74099605Y-124250000D01*
X73740395Y-124250000D01*
X72406030Y-122915635D01*
X72087261Y-123075418D01*
X71777277Y-123866187D01*
X59135335Y-123866187D01*
X59135370Y-123827185D01*
X58811020Y-123042200D01*
X58505384Y-122736030D01*
X72585635Y-122736030D01*
X73920000Y-124070395D01*
X75254365Y-122736030D01*
X75094582Y-122417261D01*
X74303813Y-122107277D01*
X73454613Y-122123503D01*
X72745418Y-122417261D01*
X72585635Y-122736030D01*
X58505384Y-122736030D01*
X58210959Y-122441091D01*
X57426541Y-122115372D01*
X56577185Y-122114630D01*
X55792200Y-122438980D01*
X55191091Y-123039041D01*
X54865372Y-123823459D01*
X54864630Y-124672815D01*
X54047434Y-124672815D01*
X54062723Y-124633813D01*
X54046497Y-123784613D01*
X53752739Y-123075418D01*
X53433970Y-122915635D01*
X52099605Y-124250000D01*
X51740395Y-124250000D01*
X50406030Y-122915635D01*
X50087261Y-123075418D01*
X49777277Y-123866187D01*
X48210000Y-123866187D01*
X48210000Y-122736030D01*
X50585635Y-122736030D01*
X51920000Y-124070395D01*
X53254365Y-122736030D01*
X53094582Y-122417261D01*
X52303813Y-122107277D01*
X51454613Y-122123503D01*
X50745418Y-122417261D01*
X50585635Y-122736030D01*
X48210000Y-122736030D01*
X48210000Y-117803991D01*
X61424735Y-117803991D01*
X61657932Y-118368371D01*
X62089357Y-118800551D01*
X62653330Y-119034733D01*
X63263991Y-119035265D01*
X63828371Y-118802068D01*
X64230323Y-118400818D01*
X64629357Y-118800551D01*
X65193330Y-119034733D01*
X65803991Y-119035265D01*
X66368371Y-118802068D01*
X66536613Y-118634120D01*
X66536838Y-118635317D01*
X66675910Y-118851441D01*
X66888110Y-118996431D01*
X67140000Y-119047440D01*
X68940000Y-119047440D01*
X69175317Y-119003162D01*
X69391441Y-118864090D01*
X69513693Y-118685167D01*
X74064838Y-118685167D01*
X74206883Y-119028943D01*
X74469673Y-119292192D01*
X74813201Y-119434838D01*
X75185167Y-119435162D01*
X75528943Y-119293117D01*
X75792192Y-119030327D01*
X75934838Y-118686799D01*
X75934839Y-118685167D01*
X79564838Y-118685167D01*
X79706883Y-119028943D01*
X79969673Y-119292192D01*
X80313201Y-119434838D01*
X80685167Y-119435162D01*
X81028943Y-119293117D01*
X81292192Y-119030327D01*
X81434838Y-118686799D01*
X81435162Y-118314833D01*
X81293117Y-117971057D01*
X81030327Y-117707808D01*
X80686799Y-117565162D01*
X80314833Y-117564838D01*
X79971057Y-117706883D01*
X79707808Y-117969673D01*
X79565162Y-118313201D01*
X79564838Y-118685167D01*
X75934839Y-118685167D01*
X75935162Y-118314833D01*
X75793117Y-117971057D01*
X75530327Y-117707808D01*
X75186799Y-117565162D01*
X74814833Y-117564838D01*
X74471057Y-117706883D01*
X74207808Y-117969673D01*
X74065162Y-118313201D01*
X74064838Y-118685167D01*
X69513693Y-118685167D01*
X69536431Y-118651890D01*
X69587440Y-118400000D01*
X69587440Y-116600000D01*
X69543162Y-116364683D01*
X69404090Y-116148559D01*
X69191890Y-116003569D01*
X68940000Y-115952560D01*
X67140000Y-115952560D01*
X66904683Y-115996838D01*
X66688559Y-116135910D01*
X66543569Y-116348110D01*
X66539433Y-116368534D01*
X66370643Y-116199449D01*
X65806670Y-115965267D01*
X65196009Y-115964735D01*
X64631629Y-116197932D01*
X64229677Y-116599182D01*
X63830643Y-116199449D01*
X63266670Y-115965267D01*
X62656009Y-115964735D01*
X62091629Y-116197932D01*
X61659449Y-116629357D01*
X61425267Y-117193330D01*
X61424735Y-117803991D01*
X48210000Y-117803991D01*
X48210000Y-113013970D01*
X50665635Y-113013970D01*
X50825418Y-113332739D01*
X51616187Y-113642723D01*
X52465387Y-113626497D01*
X53174582Y-113332739D01*
X53334365Y-113013970D01*
X52000000Y-111679605D01*
X50665635Y-113013970D01*
X48210000Y-113013970D01*
X48210000Y-111116187D01*
X49857277Y-111116187D01*
X49873503Y-111965387D01*
X50167261Y-112674582D01*
X50486030Y-112834365D01*
X51820395Y-111500000D01*
X52179605Y-111500000D01*
X53513970Y-112834365D01*
X53832739Y-112674582D01*
X54127434Y-111922815D01*
X54864630Y-111922815D01*
X55188980Y-112707800D01*
X55789041Y-113308909D01*
X56573459Y-113634628D01*
X57422815Y-113635370D01*
X58207800Y-113311020D01*
X58505368Y-113013970D01*
X72665635Y-113013970D01*
X72825418Y-113332739D01*
X73616187Y-113642723D01*
X74465387Y-113626497D01*
X75174582Y-113332739D01*
X75334365Y-113013970D01*
X74000000Y-111679605D01*
X72665635Y-113013970D01*
X58505368Y-113013970D01*
X58808909Y-112710959D01*
X59134628Y-111926541D01*
X59135370Y-111077185D01*
X58811020Y-110292200D01*
X58210959Y-109691091D01*
X57426541Y-109365372D01*
X56577185Y-109364630D01*
X55792200Y-109688980D01*
X55191091Y-110289041D01*
X54865372Y-111073459D01*
X54864630Y-111922815D01*
X54127434Y-111922815D01*
X54142723Y-111883813D01*
X54126497Y-111034613D01*
X53832739Y-110325418D01*
X53513970Y-110165635D01*
X52179605Y-111500000D01*
X51820395Y-111500000D01*
X50486030Y-110165635D01*
X50167261Y-110325418D01*
X49857277Y-111116187D01*
X48210000Y-111116187D01*
X48210000Y-109986030D01*
X50665635Y-109986030D01*
X52000000Y-111320395D01*
X53334365Y-109986030D01*
X53174582Y-109667261D01*
X52383813Y-109357277D01*
X51534613Y-109373503D01*
X50825418Y-109667261D01*
X50665635Y-109986030D01*
X48210000Y-109986030D01*
X48210000Y-100436890D01*
X57558524Y-100436890D01*
X57728355Y-100846924D01*
X58118642Y-101275183D01*
X58643108Y-101521486D01*
X58873000Y-101400819D01*
X58873000Y-100207000D01*
X59127000Y-100207000D01*
X59127000Y-101400819D01*
X59356892Y-101521486D01*
X59881358Y-101275183D01*
X60271645Y-100846924D01*
X60441476Y-100436890D01*
X60320155Y-100207000D01*
X59127000Y-100207000D01*
X58873000Y-100207000D01*
X57679845Y-100207000D01*
X57558524Y-100436890D01*
X48210000Y-100436890D01*
X48210000Y-95000000D01*
X57485907Y-95000000D01*
X57598946Y-95568285D01*
X57920853Y-96050054D01*
X58250026Y-96270000D01*
X57920853Y-96489946D01*
X57598946Y-96971715D01*
X57485907Y-97540000D01*
X57598946Y-98108285D01*
X57920853Y-98590054D01*
X58261553Y-98817702D01*
X58118642Y-98884817D01*
X57728355Y-99313076D01*
X57558524Y-99723110D01*
X57679845Y-99953000D01*
X58873000Y-99953000D01*
X58873000Y-99933000D01*
X59127000Y-99933000D01*
X59127000Y-99953000D01*
X60320155Y-99953000D01*
X60441476Y-99723110D01*
X60271645Y-99313076D01*
X59881358Y-98884817D01*
X59738447Y-98817702D01*
X60079147Y-98590054D01*
X60401054Y-98108285D01*
X60485217Y-97685167D01*
X67064838Y-97685167D01*
X67206883Y-98028943D01*
X67469673Y-98292192D01*
X67813201Y-98434838D01*
X67860077Y-98434879D01*
X68837598Y-99412400D01*
X69084160Y-99577147D01*
X69374999Y-99634999D01*
X73064991Y-99634999D01*
X73064838Y-99810177D01*
X73206883Y-100153953D01*
X73240000Y-100187128D01*
X73240000Y-101095758D01*
X72971057Y-101206883D01*
X72707808Y-101469673D01*
X72565162Y-101813201D01*
X72564838Y-102185167D01*
X72706883Y-102528943D01*
X72969673Y-102792192D01*
X73313201Y-102934838D01*
X73685167Y-102935162D01*
X74028943Y-102793117D01*
X74292192Y-102530327D01*
X74434838Y-102186799D01*
X74434879Y-102139923D01*
X74537401Y-102037401D01*
X74702148Y-101790839D01*
X74760000Y-101500000D01*
X74760000Y-100187473D01*
X74792192Y-100155337D01*
X74934838Y-99811809D01*
X74934992Y-99634999D01*
X76064882Y-99634999D01*
X76064838Y-99685167D01*
X76206883Y-100028943D01*
X76240000Y-100062118D01*
X76240000Y-106185198D01*
X74860320Y-107564878D01*
X74814833Y-107564838D01*
X74471057Y-107706883D01*
X74207808Y-107969673D01*
X74065162Y-108313201D01*
X74065117Y-108365002D01*
X72815600Y-108365002D01*
X72715103Y-108297852D01*
X72596704Y-108274301D01*
X72530327Y-108207808D01*
X72186799Y-108065162D01*
X71814833Y-108064838D01*
X71471057Y-108206883D01*
X71207808Y-108469673D01*
X71159885Y-108585083D01*
X69935122Y-107360320D01*
X69935162Y-107314833D01*
X69793117Y-106971057D01*
X69530327Y-106707808D01*
X69186799Y-106565162D01*
X68814833Y-106564838D01*
X68471057Y-106706883D01*
X68207808Y-106969673D01*
X68065162Y-107313201D01*
X68064838Y-107685167D01*
X68206883Y-108028943D01*
X68469673Y-108292192D01*
X68813201Y-108434838D01*
X68860077Y-108434879D01*
X70587601Y-110162403D01*
X70834163Y-110327150D01*
X71125002Y-110385002D01*
X72143904Y-110385002D01*
X71857277Y-111116187D01*
X71873503Y-111965387D01*
X72167261Y-112674582D01*
X72486030Y-112834365D01*
X73820395Y-111500000D01*
X73806253Y-111485858D01*
X73985858Y-111306253D01*
X74000000Y-111320395D01*
X74014143Y-111306253D01*
X74193748Y-111485858D01*
X74179605Y-111500000D01*
X75513970Y-112834365D01*
X75832739Y-112674582D01*
X76142723Y-111883813D01*
X76126497Y-111034613D01*
X75857419Y-110385002D01*
X77151244Y-110385002D01*
X76865372Y-111073459D01*
X76864630Y-111922815D01*
X77188980Y-112707800D01*
X77789041Y-113308909D01*
X78573459Y-113634628D01*
X79422815Y-113635370D01*
X80207800Y-113311020D01*
X80505368Y-113013970D01*
X94665635Y-113013970D01*
X94825418Y-113332739D01*
X95616187Y-113642723D01*
X96465387Y-113626497D01*
X97174582Y-113332739D01*
X97334365Y-113013970D01*
X96000000Y-111679605D01*
X94665635Y-113013970D01*
X80505368Y-113013970D01*
X80808909Y-112710959D01*
X81134628Y-111926541D01*
X81135335Y-111116187D01*
X93857277Y-111116187D01*
X93873503Y-111965387D01*
X94167261Y-112674582D01*
X94486030Y-112834365D01*
X95820395Y-111500000D01*
X96179605Y-111500000D01*
X97513970Y-112834365D01*
X97832739Y-112674582D01*
X98142723Y-111883813D01*
X98126497Y-111034613D01*
X97832739Y-110325418D01*
X97513970Y-110165635D01*
X96179605Y-111500000D01*
X95820395Y-111500000D01*
X94486030Y-110165635D01*
X94167261Y-110325418D01*
X93857277Y-111116187D01*
X81135335Y-111116187D01*
X81135370Y-111077185D01*
X80811020Y-110292200D01*
X80505384Y-109986030D01*
X94665635Y-109986030D01*
X96000000Y-111320395D01*
X97334365Y-109986030D01*
X97174582Y-109667261D01*
X96383813Y-109357277D01*
X95534613Y-109373503D01*
X94825418Y-109667261D01*
X94665635Y-109986030D01*
X80505384Y-109986030D01*
X80210959Y-109691091D01*
X79426541Y-109365372D01*
X78710056Y-109364746D01*
X79889635Y-108185167D01*
X98064838Y-108185167D01*
X98206883Y-108528943D01*
X98240000Y-108562118D01*
X98240000Y-112201002D01*
X98297852Y-112491841D01*
X98462599Y-112738403D01*
X100761597Y-115037401D01*
X101008159Y-115202148D01*
X101298998Y-115260000D01*
X101437537Y-115260000D01*
X101469673Y-115292192D01*
X101813201Y-115434838D01*
X102185167Y-115435162D01*
X102528943Y-115293117D01*
X102792192Y-115030327D01*
X102934838Y-114686799D01*
X102935162Y-114314833D01*
X102793117Y-113971057D01*
X102530327Y-113707808D01*
X102186799Y-113565162D01*
X101814833Y-113564838D01*
X101548630Y-113674830D01*
X101483921Y-113610121D01*
X102207800Y-113311020D01*
X102808909Y-112710959D01*
X102941590Y-112391429D01*
X103234841Y-112513198D01*
X103606807Y-112513522D01*
X103686846Y-112480450D01*
X103706883Y-112528943D01*
X103969673Y-112792192D01*
X104313201Y-112934838D01*
X104360077Y-112934879D01*
X106240000Y-114814802D01*
X106240000Y-116653154D01*
X106131629Y-116697932D01*
X105699449Y-117129357D01*
X105465267Y-117693330D01*
X105464735Y-118303991D01*
X105697932Y-118868371D01*
X106129357Y-119300551D01*
X106693330Y-119534733D01*
X107303991Y-119535265D01*
X107868371Y-119302068D01*
X108270323Y-118900818D01*
X108669357Y-119300551D01*
X109233330Y-119534733D01*
X109843991Y-119535265D01*
X110408371Y-119302068D01*
X110576613Y-119134120D01*
X110576838Y-119135317D01*
X110715910Y-119351441D01*
X110928110Y-119496431D01*
X111180000Y-119547440D01*
X112980000Y-119547440D01*
X113215317Y-119503162D01*
X113431441Y-119364090D01*
X113576431Y-119151890D01*
X113627440Y-118900000D01*
X113627440Y-117100000D01*
X113583162Y-116864683D01*
X113444090Y-116648559D01*
X113231890Y-116503569D01*
X112980000Y-116452560D01*
X112602360Y-116452560D01*
X109163770Y-113013970D01*
X116665635Y-113013970D01*
X116825418Y-113332739D01*
X117616187Y-113642723D01*
X118465387Y-113626497D01*
X119174582Y-113332739D01*
X119334365Y-113013970D01*
X118000000Y-111679605D01*
X116665635Y-113013970D01*
X109163770Y-113013970D01*
X108584875Y-112435075D01*
X108685167Y-112435162D01*
X109028943Y-112293117D01*
X109292192Y-112030327D01*
X109434838Y-111686799D01*
X109435162Y-111314833D01*
X109353084Y-111116187D01*
X115857277Y-111116187D01*
X115873503Y-111965387D01*
X116167261Y-112674582D01*
X116486030Y-112834365D01*
X117820395Y-111500000D01*
X118179605Y-111500000D01*
X119513970Y-112834365D01*
X119832739Y-112674582D01*
X120127434Y-111922815D01*
X120864630Y-111922815D01*
X121188980Y-112707800D01*
X121789041Y-113308909D01*
X122573459Y-113634628D01*
X123422815Y-113635370D01*
X124207800Y-113311020D01*
X124808909Y-112710959D01*
X125134628Y-111926541D01*
X125135370Y-111077185D01*
X124811020Y-110292200D01*
X124210959Y-109691091D01*
X123426541Y-109365372D01*
X122577185Y-109364630D01*
X121792200Y-109688980D01*
X121191091Y-110289041D01*
X120865372Y-111073459D01*
X120864630Y-111922815D01*
X120127434Y-111922815D01*
X120142723Y-111883813D01*
X120126497Y-111034613D01*
X119832739Y-110325418D01*
X119513970Y-110165635D01*
X118179605Y-111500000D01*
X117820395Y-111500000D01*
X116486030Y-110165635D01*
X116167261Y-110325418D01*
X115857277Y-111116187D01*
X109353084Y-111116187D01*
X109293117Y-110971057D01*
X109030327Y-110707808D01*
X108686799Y-110565162D01*
X108639923Y-110565121D01*
X108537401Y-110462599D01*
X108290839Y-110297852D01*
X108000000Y-110240000D01*
X107562463Y-110240000D01*
X107530327Y-110207808D01*
X107186799Y-110065162D01*
X106814833Y-110064838D01*
X106471057Y-110206883D01*
X106207808Y-110469673D01*
X106187591Y-110518361D01*
X103721639Y-110518361D01*
X103430800Y-110576213D01*
X103330427Y-110643280D01*
X103236473Y-110643198D01*
X102996944Y-110742169D01*
X102811020Y-110292200D01*
X102505384Y-109986030D01*
X116665635Y-109986030D01*
X118000000Y-111320395D01*
X119334365Y-109986030D01*
X119174582Y-109667261D01*
X118383813Y-109357277D01*
X117534613Y-109373503D01*
X116825418Y-109667261D01*
X116665635Y-109986030D01*
X102505384Y-109986030D01*
X102210959Y-109691091D01*
X101426541Y-109365372D01*
X100760000Y-109364790D01*
X100760000Y-109062463D01*
X100792192Y-109030327D01*
X100934838Y-108686799D01*
X100935162Y-108314833D01*
X100793117Y-107971057D01*
X100530327Y-107707808D01*
X100186799Y-107565162D01*
X99831873Y-107564853D01*
X99793117Y-107471057D01*
X99530327Y-107207808D01*
X99511524Y-107200000D01*
X108052560Y-107200000D01*
X108052560Y-108800000D01*
X108096838Y-109035317D01*
X108235910Y-109251441D01*
X108448110Y-109396431D01*
X108700000Y-109447440D01*
X110300000Y-109447440D01*
X110535317Y-109403162D01*
X110751441Y-109264090D01*
X110755977Y-109257452D01*
X111283223Y-109446965D01*
X111853454Y-109419778D01*
X112254005Y-109253864D01*
X112328139Y-109007745D01*
X111500000Y-108179605D01*
X111485858Y-108193748D01*
X111306253Y-108014143D01*
X111320395Y-108000000D01*
X111679605Y-108000000D01*
X112507745Y-108828139D01*
X112753864Y-108754005D01*
X112946965Y-108216777D01*
X112919778Y-107646546D01*
X112753864Y-107245995D01*
X112507745Y-107171861D01*
X111679605Y-108000000D01*
X111320395Y-108000000D01*
X111306253Y-107985858D01*
X111485858Y-107806252D01*
X111500000Y-107820395D01*
X112328139Y-106992255D01*
X112254005Y-106746136D01*
X111716777Y-106553035D01*
X111146546Y-106580222D01*
X110755053Y-106742384D01*
X110551890Y-106603569D01*
X110300000Y-106552560D01*
X108700000Y-106552560D01*
X108464683Y-106596838D01*
X108248559Y-106735910D01*
X108103569Y-106948110D01*
X108052560Y-107200000D01*
X99511524Y-107200000D01*
X99186799Y-107065162D01*
X98814833Y-107064838D01*
X98471057Y-107206883D01*
X98207808Y-107469673D01*
X98065162Y-107813201D01*
X98064838Y-108185167D01*
X79889635Y-108185167D01*
X86639680Y-101435122D01*
X86685167Y-101435162D01*
X87028943Y-101293117D01*
X87292192Y-101030327D01*
X87434838Y-100686799D01*
X87434873Y-100646086D01*
X91451198Y-104662411D01*
X91697760Y-104827158D01*
X91988599Y-104885010D01*
X97003231Y-104885010D01*
X97035367Y-104917202D01*
X97378895Y-105059848D01*
X97750861Y-105060172D01*
X97896488Y-105000000D01*
X116790000Y-105000000D01*
X117034347Y-106228414D01*
X117730187Y-107269813D01*
X118771586Y-107965653D01*
X120000000Y-108210000D01*
X121228414Y-107965653D01*
X122269813Y-107269813D01*
X122965653Y-106228414D01*
X123210000Y-105000000D01*
X122965653Y-103771586D01*
X122269813Y-102730187D01*
X121228414Y-102034347D01*
X120000000Y-101790000D01*
X118771586Y-102034347D01*
X117730187Y-102730187D01*
X117034347Y-103771586D01*
X116790000Y-105000000D01*
X97896488Y-105000000D01*
X98094637Y-104918127D01*
X98357886Y-104655337D01*
X98449396Y-104434957D01*
X98685167Y-104435162D01*
X99028943Y-104293117D01*
X99292192Y-104030327D01*
X99434838Y-103686799D01*
X99435162Y-103314833D01*
X99293117Y-102971057D01*
X99030327Y-102707808D01*
X98686799Y-102565162D01*
X98314833Y-102564838D01*
X97971057Y-102706883D01*
X97937882Y-102740000D01*
X97091670Y-102740000D01*
X97217575Y-102436788D01*
X97217603Y-102403694D01*
X107785226Y-102403694D01*
X108033538Y-103004655D01*
X108492927Y-103464846D01*
X109093453Y-103714206D01*
X109743694Y-103714774D01*
X110344655Y-103466462D01*
X110804846Y-103007073D01*
X111054206Y-102406547D01*
X111054774Y-101756306D01*
X110806462Y-101155345D01*
X110347073Y-100695154D01*
X109746547Y-100445794D01*
X109096306Y-100445226D01*
X108495345Y-100693538D01*
X108035154Y-101152927D01*
X107785794Y-101753453D01*
X107785226Y-102403694D01*
X97217603Y-102403694D01*
X97217899Y-102064822D01*
X97188355Y-101993321D01*
X97597378Y-101911961D01*
X98079147Y-101590054D01*
X98268345Y-101306899D01*
X98268355Y-101306924D01*
X98658642Y-101735183D01*
X99183108Y-101981486D01*
X99413000Y-101860819D01*
X99413000Y-100667000D01*
X99667000Y-100667000D01*
X99667000Y-101860819D01*
X99896892Y-101981486D01*
X100421358Y-101735183D01*
X100811645Y-101306924D01*
X100981476Y-100896890D01*
X100860155Y-100667000D01*
X99667000Y-100667000D01*
X99413000Y-100667000D01*
X99393000Y-100667000D01*
X99393000Y-100413000D01*
X99413000Y-100413000D01*
X99413000Y-100393000D01*
X99667000Y-100393000D01*
X99667000Y-100413000D01*
X100860155Y-100413000D01*
X100981476Y-100183110D01*
X100811645Y-99773076D01*
X100421358Y-99344817D01*
X100278447Y-99277702D01*
X100619147Y-99050054D01*
X100941054Y-98568285D01*
X101054093Y-98000000D01*
X100941054Y-97431715D01*
X100868877Y-97323694D01*
X107785226Y-97323694D01*
X108033538Y-97924655D01*
X108492927Y-98384846D01*
X109093453Y-98634206D01*
X109743694Y-98634774D01*
X110344655Y-98386462D01*
X110804846Y-97927073D01*
X111054206Y-97326547D01*
X111054774Y-96676306D01*
X110806462Y-96075345D01*
X110347073Y-95615154D01*
X109746547Y-95365794D01*
X109096306Y-95365226D01*
X108495345Y-95613538D01*
X108035154Y-96072927D01*
X107785794Y-96673453D01*
X107785226Y-97323694D01*
X100868877Y-97323694D01*
X100619147Y-96949946D01*
X100289974Y-96730000D01*
X100619147Y-96510054D01*
X100941054Y-96028285D01*
X101054093Y-95460000D01*
X100941054Y-94891715D01*
X100619147Y-94409946D01*
X100282741Y-94185167D01*
X115564838Y-94185167D01*
X115706883Y-94528943D01*
X115969673Y-94792192D01*
X116313201Y-94934838D01*
X116685167Y-94935162D01*
X117028943Y-94793117D01*
X117292192Y-94530327D01*
X117434838Y-94186799D01*
X117434839Y-94185167D01*
X120064838Y-94185167D01*
X120206883Y-94528943D01*
X120427709Y-94750155D01*
X120207808Y-94969673D01*
X120065162Y-95313201D01*
X120064838Y-95685167D01*
X120206883Y-96028943D01*
X120240000Y-96062118D01*
X120240000Y-97937537D01*
X120207808Y-97969673D01*
X120065162Y-98313201D01*
X120064838Y-98685167D01*
X120206883Y-99028943D01*
X120469673Y-99292192D01*
X120813201Y-99434838D01*
X121185167Y-99435162D01*
X121528943Y-99293117D01*
X121792192Y-99030327D01*
X121934838Y-98686799D01*
X121935162Y-98314833D01*
X121793117Y-97971057D01*
X121760000Y-97937882D01*
X121760000Y-96062463D01*
X121792192Y-96030327D01*
X121934838Y-95686799D01*
X121935162Y-95314833D01*
X121793117Y-94971057D01*
X121582428Y-94760000D01*
X124437537Y-94760000D01*
X124469673Y-94792192D01*
X124813201Y-94934838D01*
X125185167Y-94935162D01*
X125528943Y-94793117D01*
X125792192Y-94530327D01*
X125934838Y-94186799D01*
X125935162Y-93814833D01*
X125793117Y-93471057D01*
X125530327Y-93207808D01*
X125186799Y-93065162D01*
X124814833Y-93064838D01*
X124471057Y-93206883D01*
X124437882Y-93240000D01*
X121562463Y-93240000D01*
X121530327Y-93207808D01*
X121186799Y-93065162D01*
X120814833Y-93064838D01*
X120471057Y-93206883D01*
X120207808Y-93469673D01*
X120065162Y-93813201D01*
X120064838Y-94185167D01*
X117434839Y-94185167D01*
X117435162Y-93814833D01*
X117293117Y-93471057D01*
X117030327Y-93207808D01*
X116686799Y-93065162D01*
X116314833Y-93064838D01*
X115971057Y-93206883D01*
X115707808Y-93469673D01*
X115565162Y-93813201D01*
X115564838Y-94185167D01*
X100282741Y-94185167D01*
X100137378Y-94088039D01*
X99569093Y-93975000D01*
X99510907Y-93975000D01*
X98942622Y-94088039D01*
X98460853Y-94409946D01*
X98460029Y-94411179D01*
X98453162Y-94374683D01*
X98314090Y-94158559D01*
X98101890Y-94013569D01*
X97850000Y-93962560D01*
X96735046Y-93962560D01*
X96735175Y-93814833D01*
X96690506Y-93706726D01*
X96867213Y-93530327D01*
X97009859Y-93186799D01*
X97010183Y-92814833D01*
X96868138Y-92471057D01*
X96605348Y-92207808D01*
X96261820Y-92065162D01*
X95889854Y-92064838D01*
X95768452Y-92115000D01*
X93681812Y-92115000D01*
X93561789Y-92065162D01*
X93189823Y-92064838D01*
X92846047Y-92206883D01*
X92582798Y-92469673D01*
X92440152Y-92813201D01*
X92439828Y-93185167D01*
X92581873Y-93528943D01*
X92844663Y-93792192D01*
X93065101Y-93883726D01*
X93064838Y-94185167D01*
X93206883Y-94528943D01*
X93240000Y-94562118D01*
X93240000Y-96437537D01*
X93207808Y-96469673D01*
X93065162Y-96813201D01*
X93064838Y-97185167D01*
X93206883Y-97528943D01*
X93469673Y-97792192D01*
X93813201Y-97934838D01*
X94185167Y-97935162D01*
X94528943Y-97793117D01*
X94792192Y-97530327D01*
X94869096Y-97345123D01*
X95153953Y-97227423D01*
X95175048Y-97206365D01*
X95262612Y-97337414D01*
X95558790Y-97633592D01*
X95485907Y-98000000D01*
X95598946Y-98568285D01*
X95920853Y-99050054D01*
X96250026Y-99270000D01*
X95920853Y-99489946D01*
X95727046Y-99780000D01*
X92254422Y-99780000D01*
X90813086Y-98338664D01*
X90813126Y-98293177D01*
X90671081Y-97949401D01*
X90408291Y-97686152D01*
X90180252Y-97591461D01*
X90187792Y-97573302D01*
X90188116Y-97201336D01*
X90046071Y-96857560D01*
X89983478Y-96794858D01*
X90057989Y-96764071D01*
X90321238Y-96501281D01*
X90463884Y-96157753D01*
X90464208Y-95785787D01*
X90322163Y-95442011D01*
X90059373Y-95178762D01*
X89715845Y-95036116D01*
X89668969Y-95036075D01*
X89260000Y-94627106D01*
X89260000Y-87700000D01*
X117552560Y-87700000D01*
X117552560Y-89300000D01*
X117596838Y-89535317D01*
X117735910Y-89751441D01*
X117948110Y-89896431D01*
X118200000Y-89947440D01*
X119800000Y-89947440D01*
X120035317Y-89903162D01*
X120251441Y-89764090D01*
X120396431Y-89551890D01*
X120405370Y-89507745D01*
X120671861Y-89507745D01*
X120745995Y-89753864D01*
X121283223Y-89946965D01*
X121853454Y-89919778D01*
X122254005Y-89753864D01*
X122328139Y-89507745D01*
X121500000Y-88679605D01*
X120671861Y-89507745D01*
X120405370Y-89507745D01*
X120444646Y-89313799D01*
X120492255Y-89328139D01*
X121320395Y-88500000D01*
X121679605Y-88500000D01*
X122507745Y-89328139D01*
X122753864Y-89254005D01*
X122946965Y-88716777D01*
X122919778Y-88146546D01*
X122753864Y-87745995D01*
X122507745Y-87671861D01*
X121679605Y-88500000D01*
X121320395Y-88500000D01*
X120492255Y-87671861D01*
X120444833Y-87686145D01*
X120408351Y-87492255D01*
X120671861Y-87492255D01*
X121500000Y-88320395D01*
X122328139Y-87492255D01*
X122254005Y-87246136D01*
X121716777Y-87053035D01*
X121146546Y-87080222D01*
X120745995Y-87246136D01*
X120671861Y-87492255D01*
X120408351Y-87492255D01*
X120403162Y-87464683D01*
X120264090Y-87248559D01*
X120051890Y-87103569D01*
X119800000Y-87052560D01*
X118200000Y-87052560D01*
X117964683Y-87096838D01*
X117748559Y-87235910D01*
X117603569Y-87448110D01*
X117552560Y-87700000D01*
X89260000Y-87700000D01*
X89260000Y-85562463D01*
X89292192Y-85530327D01*
X89434838Y-85186799D01*
X89435162Y-84814833D01*
X89293117Y-84471057D01*
X89030327Y-84207808D01*
X88686799Y-84065162D01*
X88314833Y-84064838D01*
X87971057Y-84206883D01*
X87707808Y-84469673D01*
X87585836Y-84763414D01*
X87530327Y-84707808D01*
X87186799Y-84565162D01*
X86814833Y-84564838D01*
X86471057Y-84706883D01*
X86207808Y-84969673D01*
X86065162Y-85313201D01*
X86064838Y-85685167D01*
X86206883Y-86028943D01*
X86240000Y-86062118D01*
X86240000Y-94937537D01*
X86207808Y-94969673D01*
X86065162Y-95313201D01*
X86064838Y-95685167D01*
X86190787Y-95989988D01*
X85455275Y-95989988D01*
X85216916Y-96037401D01*
X85164435Y-96047840D01*
X84917874Y-96212587D01*
X84592874Y-96537587D01*
X84428127Y-96784149D01*
X84370275Y-97074988D01*
X84370275Y-98007790D01*
X84428127Y-98298629D01*
X84550171Y-98481281D01*
X84550171Y-98814894D01*
X84500002Y-98814850D01*
X84156226Y-98956895D01*
X84123051Y-98990012D01*
X83916829Y-98990012D01*
X83625989Y-99047864D01*
X83379428Y-99212611D01*
X80070710Y-102521329D01*
X78187473Y-102521329D01*
X78155337Y-102489137D01*
X77811809Y-102346491D01*
X77760000Y-102346446D01*
X77760000Y-100062463D01*
X77792192Y-100030327D01*
X77934838Y-99686799D01*
X77934883Y-99634999D01*
X79651923Y-99634999D01*
X80110741Y-100093817D01*
X80110701Y-100139304D01*
X80252746Y-100483080D01*
X80515536Y-100746329D01*
X80859064Y-100888975D01*
X81231030Y-100889299D01*
X81574806Y-100747254D01*
X81838055Y-100484464D01*
X81980701Y-100140936D01*
X81981025Y-99768970D01*
X81838980Y-99425194D01*
X81836768Y-99422978D01*
X81934838Y-99186799D01*
X81935162Y-98814833D01*
X81793117Y-98471057D01*
X81530327Y-98207808D01*
X81186799Y-98065162D01*
X81139923Y-98065121D01*
X80412400Y-97337598D01*
X80165838Y-97172851D01*
X79874999Y-97114999D01*
X76563588Y-97114999D01*
X76272749Y-97172851D01*
X76172253Y-97240000D01*
X70062463Y-97240000D01*
X70030327Y-97207808D01*
X69686799Y-97065162D01*
X69314833Y-97064838D01*
X68971057Y-97206883D01*
X68914065Y-97263775D01*
X68793117Y-96971057D01*
X68530327Y-96707808D01*
X68186799Y-96565162D01*
X67814833Y-96564838D01*
X67471057Y-96706883D01*
X67207808Y-96969673D01*
X67065162Y-97313201D01*
X67064838Y-97685167D01*
X60485217Y-97685167D01*
X60514093Y-97540000D01*
X60401054Y-96971715D01*
X60079147Y-96489946D01*
X59749974Y-96270000D01*
X60079147Y-96050054D01*
X60401054Y-95568285D01*
X60514093Y-95000000D01*
X60401054Y-94431715D01*
X60079147Y-93949946D01*
X60037548Y-93922150D01*
X60085317Y-93913162D01*
X60301441Y-93774090D01*
X60446431Y-93561890D01*
X60497440Y-93310000D01*
X60497440Y-91610000D01*
X60453162Y-91374683D01*
X60314090Y-91158559D01*
X60101890Y-91013569D01*
X59850000Y-90962560D01*
X58150000Y-90962560D01*
X57914683Y-91006838D01*
X57698559Y-91145910D01*
X57553569Y-91358110D01*
X57502560Y-91610000D01*
X57502560Y-93310000D01*
X57546838Y-93545317D01*
X57685910Y-93761441D01*
X57898110Y-93906431D01*
X57965541Y-93920086D01*
X57920853Y-93949946D01*
X57598946Y-94431715D01*
X57485907Y-95000000D01*
X48210000Y-95000000D01*
X48210000Y-90000000D01*
X61790000Y-90000000D01*
X62034347Y-91228414D01*
X62730187Y-92269813D01*
X63771586Y-92965653D01*
X65000000Y-93210000D01*
X66228414Y-92965653D01*
X67269813Y-92269813D01*
X67965653Y-91228414D01*
X68210000Y-90000000D01*
X67965653Y-88771586D01*
X67269813Y-87730187D01*
X66228414Y-87034347D01*
X65000000Y-86790000D01*
X63771586Y-87034347D01*
X62730187Y-87730187D01*
X62034347Y-88771586D01*
X61790000Y-90000000D01*
X48210000Y-90000000D01*
X48210000Y-84685167D01*
X64064838Y-84685167D01*
X64206883Y-85028943D01*
X64469673Y-85292192D01*
X64813201Y-85434838D01*
X65185167Y-85435162D01*
X65528943Y-85293117D01*
X65562118Y-85260000D01*
X65685198Y-85260000D01*
X67064878Y-86639680D01*
X67064838Y-86685167D01*
X67206883Y-87028943D01*
X67469673Y-87292192D01*
X67813201Y-87434838D01*
X68185167Y-87435162D01*
X68528943Y-87293117D01*
X68792192Y-87030327D01*
X68934838Y-86686799D01*
X68935162Y-86314833D01*
X68793117Y-85971057D01*
X68530327Y-85707808D01*
X68186799Y-85565162D01*
X68139923Y-85565121D01*
X66537401Y-83962599D01*
X66290839Y-83797852D01*
X66000000Y-83740000D01*
X65562463Y-83740000D01*
X65530327Y-83707808D01*
X65186799Y-83565162D01*
X64814833Y-83564838D01*
X64471057Y-83706883D01*
X64207808Y-83969673D01*
X64065162Y-84313201D01*
X64064838Y-84685167D01*
X48210000Y-84685167D01*
X48210000Y-70185167D01*
X48564838Y-70185167D01*
X48706883Y-70528943D01*
X48969673Y-70792192D01*
X49313201Y-70934838D01*
X49685167Y-70935162D01*
X50028943Y-70793117D01*
X50292192Y-70530327D01*
X50434838Y-70186799D01*
X50434879Y-70139923D01*
X53162402Y-67412400D01*
X53327149Y-67165838D01*
X53385001Y-66874999D01*
X53385001Y-64934901D01*
X53685167Y-64935162D01*
X54028943Y-64793117D01*
X54062118Y-64760000D01*
X63937537Y-64760000D01*
X63969673Y-64792192D01*
X64313201Y-64934838D01*
X64685167Y-64935162D01*
X65028943Y-64793117D01*
X65292192Y-64530327D01*
X65434838Y-64186799D01*
X65435162Y-63814833D01*
X65293117Y-63471057D01*
X65030327Y-63207808D01*
X64999485Y-63195001D01*
X78044999Y-63195001D01*
X78044999Y-80544999D01*
X78102851Y-80835838D01*
X78267598Y-81082400D01*
X78504998Y-81319800D01*
X78495241Y-81343298D01*
X78494760Y-81894285D01*
X78705169Y-82403515D01*
X79094436Y-82793461D01*
X79603298Y-83004759D01*
X80154285Y-83005240D01*
X80663515Y-82794831D01*
X81053461Y-82405564D01*
X81149976Y-82173130D01*
X81245169Y-82403515D01*
X81634436Y-82793461D01*
X82143298Y-83004759D01*
X82694285Y-83005240D01*
X83203515Y-82794831D01*
X83593461Y-82405564D01*
X83689976Y-82173130D01*
X83785169Y-82403515D01*
X84174436Y-82793461D01*
X84683298Y-83004759D01*
X85234285Y-83005240D01*
X85743515Y-82794831D01*
X86133461Y-82405564D01*
X86229976Y-82173130D01*
X86325169Y-82403515D01*
X86714436Y-82793461D01*
X87223298Y-83004759D01*
X87774285Y-83005240D01*
X88283515Y-82794831D01*
X88673461Y-82405564D01*
X88769976Y-82173130D01*
X88865169Y-82403515D01*
X89254436Y-82793461D01*
X89763298Y-83004759D01*
X90314285Y-83005240D01*
X90823515Y-82794831D01*
X91213461Y-82405564D01*
X91309976Y-82173130D01*
X91405169Y-82403515D01*
X91794436Y-82793461D01*
X92303298Y-83004759D01*
X92854285Y-83005240D01*
X93363515Y-82794831D01*
X93753461Y-82405564D01*
X93849976Y-82173130D01*
X93945169Y-82403515D01*
X94334436Y-82793461D01*
X94843298Y-83004759D01*
X95394285Y-83005240D01*
X95903515Y-82794831D01*
X96293461Y-82405564D01*
X96504759Y-81896702D01*
X96505240Y-81345715D01*
X96294831Y-80836485D01*
X95905564Y-80446539D01*
X95396702Y-80235241D01*
X94845715Y-80234760D01*
X94336485Y-80445169D01*
X93946539Y-80834436D01*
X93850024Y-81066870D01*
X93754831Y-80836485D01*
X93365564Y-80446539D01*
X92856702Y-80235241D01*
X92305715Y-80234760D01*
X91796485Y-80445169D01*
X91406539Y-80834436D01*
X91310024Y-81066870D01*
X91214831Y-80836485D01*
X90825564Y-80446539D01*
X90316702Y-80235241D01*
X89765715Y-80234760D01*
X89740132Y-80245330D01*
X89724999Y-80230197D01*
X89724999Y-72523223D01*
X89813201Y-72559848D01*
X90185167Y-72560172D01*
X90528943Y-72418127D01*
X90792192Y-72155337D01*
X90934838Y-71811809D01*
X90935162Y-71439843D01*
X90800000Y-71112725D01*
X90800000Y-67564547D01*
X90823515Y-67554831D01*
X91213461Y-67165564D01*
X91309976Y-66933130D01*
X91405169Y-67163515D01*
X91794436Y-67553461D01*
X92303298Y-67764759D01*
X92854285Y-67765240D01*
X93363515Y-67554831D01*
X93753461Y-67165564D01*
X93849976Y-66933130D01*
X93945169Y-67163515D01*
X94334436Y-67553461D01*
X94843298Y-67764759D01*
X95394285Y-67765240D01*
X95740000Y-67622394D01*
X95740000Y-69020921D01*
X95686799Y-68998830D01*
X95314833Y-68998506D01*
X94971057Y-69140551D01*
X94707808Y-69403341D01*
X94565162Y-69746869D01*
X94564838Y-70118835D01*
X94706883Y-70462611D01*
X94740000Y-70495786D01*
X94740000Y-70937537D01*
X94707808Y-70969673D01*
X94565162Y-71313201D01*
X94564838Y-71685167D01*
X94706883Y-72028943D01*
X94969673Y-72292192D01*
X95313201Y-72434838D01*
X95668127Y-72435147D01*
X95706883Y-72528943D01*
X95969673Y-72792192D01*
X96313201Y-72934838D01*
X96685167Y-72935162D01*
X97028943Y-72793117D01*
X97292192Y-72530327D01*
X97434838Y-72186799D01*
X97435162Y-71814833D01*
X97293117Y-71471057D01*
X97260000Y-71437882D01*
X97260000Y-59185167D01*
X120064838Y-59185167D01*
X120206883Y-59528943D01*
X120240000Y-59562118D01*
X120240000Y-60500000D01*
X120297852Y-60790839D01*
X120462599Y-61037401D01*
X122064878Y-62639680D01*
X122064838Y-62685167D01*
X122206883Y-63028943D01*
X122469673Y-63292192D01*
X122813201Y-63434838D01*
X123185167Y-63435162D01*
X123528943Y-63293117D01*
X123792192Y-63030327D01*
X123934838Y-62686799D01*
X123935162Y-62314833D01*
X123793117Y-61971057D01*
X123530327Y-61707808D01*
X123186799Y-61565162D01*
X123139923Y-61565121D01*
X121760000Y-60185198D01*
X121760000Y-59562463D01*
X121792192Y-59530327D01*
X121934838Y-59186799D01*
X121934839Y-59185167D01*
X122064838Y-59185167D01*
X122206883Y-59528943D01*
X122469673Y-59792192D01*
X122813201Y-59934838D01*
X123185167Y-59935162D01*
X123528943Y-59793117D01*
X123792192Y-59530327D01*
X123934838Y-59186799D01*
X123935162Y-58814833D01*
X123793117Y-58471057D01*
X123530327Y-58207808D01*
X123186799Y-58065162D01*
X122814833Y-58064838D01*
X122471057Y-58206883D01*
X122207808Y-58469673D01*
X122065162Y-58813201D01*
X122064838Y-59185167D01*
X121934839Y-59185167D01*
X121935162Y-58814833D01*
X121793117Y-58471057D01*
X121530327Y-58207808D01*
X121186799Y-58065162D01*
X120814833Y-58064838D01*
X120471057Y-58206883D01*
X120207808Y-58469673D01*
X120065162Y-58813201D01*
X120064838Y-59185167D01*
X97260000Y-59185167D01*
X97260000Y-56562463D01*
X97292192Y-56530327D01*
X97434838Y-56186799D01*
X97435162Y-55814833D01*
X97293117Y-55471057D01*
X97030327Y-55207808D01*
X96686799Y-55065162D01*
X96314833Y-55064838D01*
X95971057Y-55206883D01*
X95707808Y-55469673D01*
X95565162Y-55813201D01*
X95564838Y-56185167D01*
X95706883Y-56528943D01*
X95740000Y-56562118D01*
X95740000Y-60877791D01*
X95396702Y-60735241D01*
X94845715Y-60734760D01*
X94336485Y-60945169D01*
X93946539Y-61334436D01*
X93850024Y-61566870D01*
X93754831Y-61336485D01*
X93365564Y-60946539D01*
X93340000Y-60935924D01*
X93340000Y-60575704D01*
X93299650Y-60372853D01*
X93282148Y-60284864D01*
X93117401Y-60038303D01*
X92918039Y-59838941D01*
X93028943Y-59793117D01*
X93292192Y-59530327D01*
X93434838Y-59186799D01*
X93435162Y-58814833D01*
X93293117Y-58471057D01*
X93030327Y-58207808D01*
X92686799Y-58065162D01*
X92314833Y-58064838D01*
X92092292Y-58156790D01*
X92092292Y-50650000D01*
X116002560Y-50650000D01*
X116002560Y-52350000D01*
X116046838Y-52585317D01*
X116185910Y-52801441D01*
X116398110Y-52946431D01*
X116650000Y-52997440D01*
X118350000Y-52997440D01*
X118585317Y-52953162D01*
X118801441Y-52814090D01*
X118946431Y-52601890D01*
X118960086Y-52534459D01*
X118989946Y-52579147D01*
X119471715Y-52901054D01*
X120040000Y-53014093D01*
X120608285Y-52901054D01*
X121090054Y-52579147D01*
X121317702Y-52238447D01*
X121384817Y-52381358D01*
X121813076Y-52771645D01*
X122223110Y-52941476D01*
X122453000Y-52820155D01*
X122453000Y-51627000D01*
X122707000Y-51627000D01*
X122707000Y-52820155D01*
X122936890Y-52941476D01*
X123346924Y-52771645D01*
X123775183Y-52381358D01*
X124021486Y-51856892D01*
X123900819Y-51627000D01*
X122707000Y-51627000D01*
X122453000Y-51627000D01*
X122433000Y-51627000D01*
X122433000Y-51373000D01*
X122453000Y-51373000D01*
X122453000Y-50179845D01*
X122707000Y-50179845D01*
X122707000Y-51373000D01*
X123900819Y-51373000D01*
X124021486Y-51143108D01*
X123775183Y-50618642D01*
X123346924Y-50228355D01*
X122936890Y-50058524D01*
X122707000Y-50179845D01*
X122453000Y-50179845D01*
X122223110Y-50058524D01*
X121813076Y-50228355D01*
X121384817Y-50618642D01*
X121317702Y-50761553D01*
X121090054Y-50420853D01*
X120608285Y-50098946D01*
X120040000Y-49985907D01*
X119471715Y-50098946D01*
X118989946Y-50420853D01*
X118962150Y-50462452D01*
X118953162Y-50414683D01*
X118814090Y-50198559D01*
X118601890Y-50053569D01*
X118350000Y-50002560D01*
X116650000Y-50002560D01*
X116414683Y-50046838D01*
X116198559Y-50185910D01*
X116053569Y-50398110D01*
X116002560Y-50650000D01*
X92092292Y-50650000D01*
X92092292Y-48442510D01*
X92279800Y-48255002D01*
X92303298Y-48264759D01*
X92854285Y-48265240D01*
X93363515Y-48054831D01*
X93753461Y-47665564D01*
X93849976Y-47433130D01*
X93945169Y-47663515D01*
X94334436Y-48053461D01*
X94843298Y-48264759D01*
X95394285Y-48265240D01*
X95903515Y-48054831D01*
X96293461Y-47665564D01*
X96504759Y-47156702D01*
X96505240Y-46605715D01*
X96294831Y-46096485D01*
X95905564Y-45706539D01*
X95396702Y-45495241D01*
X94845715Y-45494760D01*
X94336485Y-45705169D01*
X93946539Y-46094436D01*
X93850024Y-46326870D01*
X93754831Y-46096485D01*
X93365564Y-45706539D01*
X92856702Y-45495241D01*
X92305715Y-45494760D01*
X91796485Y-45705169D01*
X91406539Y-46094436D01*
X91310024Y-46326870D01*
X91214831Y-46096485D01*
X90825564Y-45706539D01*
X90316702Y-45495241D01*
X89765715Y-45494760D01*
X89256485Y-45705169D01*
X88866539Y-46094436D01*
X88770024Y-46326870D01*
X88674831Y-46096485D01*
X88285564Y-45706539D01*
X87776702Y-45495241D01*
X87225715Y-45494760D01*
X86716485Y-45705169D01*
X86326539Y-46094436D01*
X86230024Y-46326870D01*
X86134831Y-46096485D01*
X85745564Y-45706539D01*
X85236702Y-45495241D01*
X84685715Y-45494760D01*
X84176485Y-45705169D01*
X83786539Y-46094436D01*
X83690024Y-46326870D01*
X83594831Y-46096485D01*
X83205564Y-45706539D01*
X82696702Y-45495241D01*
X82145715Y-45494760D01*
X81636485Y-45705169D01*
X81246539Y-46094436D01*
X81150024Y-46326870D01*
X81054831Y-46096485D01*
X80665564Y-45706539D01*
X80156702Y-45495241D01*
X79605715Y-45494760D01*
X79096485Y-45705169D01*
X78706539Y-46094436D01*
X78495241Y-46603298D01*
X78494760Y-47154285D01*
X78705169Y-47663515D01*
X79094436Y-48053461D01*
X79603298Y-48264759D01*
X80154285Y-48265240D01*
X80663515Y-48054831D01*
X81053461Y-47665564D01*
X81149976Y-47433130D01*
X81245169Y-47663515D01*
X81634436Y-48053461D01*
X81660000Y-48064076D01*
X81660000Y-57424999D01*
X81717852Y-57715838D01*
X81882599Y-57962400D01*
X82689328Y-58769129D01*
X82689288Y-58814616D01*
X82831333Y-59158392D01*
X82864450Y-59191567D01*
X82864450Y-60804896D01*
X82696702Y-60735241D01*
X82145715Y-60734760D01*
X81636485Y-60945169D01*
X81246539Y-61334436D01*
X81150024Y-61566870D01*
X81054831Y-61336485D01*
X80665564Y-60946539D01*
X80156702Y-60735241D01*
X79605715Y-60734760D01*
X79096485Y-60945169D01*
X78706539Y-61334436D01*
X78495241Y-61843298D01*
X78494760Y-62394285D01*
X78505330Y-62419868D01*
X78267598Y-62657600D01*
X78102851Y-62904162D01*
X78044999Y-63195001D01*
X64999485Y-63195001D01*
X64686799Y-63065162D01*
X64314833Y-63064838D01*
X63971057Y-63206883D01*
X63937882Y-63240000D01*
X54062463Y-63240000D01*
X54030327Y-63207808D01*
X53914917Y-63159885D01*
X54139680Y-62935122D01*
X54185167Y-62935162D01*
X54528943Y-62793117D01*
X54792192Y-62530327D01*
X54934838Y-62186799D01*
X54935162Y-61814833D01*
X54793117Y-61471057D01*
X54530327Y-61207808D01*
X54186799Y-61065162D01*
X53814833Y-61064838D01*
X53471057Y-61206883D01*
X53207808Y-61469673D01*
X53065162Y-61813201D01*
X53065121Y-61860077D01*
X52760000Y-62165198D01*
X52760000Y-60562463D01*
X52792192Y-60530327D01*
X52934838Y-60186799D01*
X52935162Y-59814833D01*
X52793117Y-59471057D01*
X52530327Y-59207808D01*
X52186799Y-59065162D01*
X51814833Y-59064838D01*
X51471057Y-59206883D01*
X51207808Y-59469673D01*
X51065162Y-59813201D01*
X51064838Y-60185167D01*
X51206883Y-60528943D01*
X51240000Y-60562118D01*
X51240000Y-65937537D01*
X51207808Y-65969673D01*
X51065162Y-66313201D01*
X51064838Y-66685167D01*
X51206883Y-67028943D01*
X51301486Y-67123712D01*
X49360320Y-69064878D01*
X49314833Y-69064838D01*
X48971057Y-69206883D01*
X48707808Y-69469673D01*
X48565162Y-69813201D01*
X48564838Y-70185167D01*
X48210000Y-70185167D01*
X48210000Y-58685167D01*
X61564838Y-58685167D01*
X61706883Y-59028943D01*
X61969673Y-59292192D01*
X62065146Y-59331836D01*
X62064838Y-59685167D01*
X62206883Y-60028943D01*
X62469673Y-60292192D01*
X62813201Y-60434838D01*
X63185167Y-60435162D01*
X63528943Y-60293117D01*
X63562118Y-60260000D01*
X67937537Y-60260000D01*
X67969673Y-60292192D01*
X68313201Y-60434838D01*
X68685167Y-60435162D01*
X69028943Y-60293117D01*
X69292192Y-60030327D01*
X69434838Y-59686799D01*
X69435057Y-59434944D01*
X69685167Y-59435162D01*
X70028943Y-59293117D01*
X70292192Y-59030327D01*
X70434838Y-58686799D01*
X70435162Y-58314833D01*
X70293117Y-57971057D01*
X70030327Y-57707808D01*
X69686799Y-57565162D01*
X69314833Y-57564838D01*
X68971057Y-57706883D01*
X68937882Y-57740000D01*
X63062463Y-57740000D01*
X63030327Y-57707808D01*
X62686799Y-57565162D01*
X62314833Y-57564838D01*
X61971057Y-57706883D01*
X61707808Y-57969673D01*
X61565162Y-58313201D01*
X61564838Y-58685167D01*
X48210000Y-58685167D01*
X48210000Y-51150000D01*
X51002560Y-51150000D01*
X51002560Y-52850000D01*
X51046838Y-53085317D01*
X51185910Y-53301441D01*
X51398110Y-53446431D01*
X51650000Y-53497440D01*
X53350000Y-53497440D01*
X53585317Y-53453162D01*
X53801441Y-53314090D01*
X53946431Y-53101890D01*
X53960086Y-53034459D01*
X53989946Y-53079147D01*
X54471715Y-53401054D01*
X55040000Y-53514093D01*
X55608285Y-53401054D01*
X56090054Y-53079147D01*
X56317702Y-52738447D01*
X56384817Y-52881358D01*
X56813076Y-53271645D01*
X57223110Y-53441476D01*
X57453000Y-53320155D01*
X57453000Y-52127000D01*
X57707000Y-52127000D01*
X57707000Y-53320155D01*
X57936890Y-53441476D01*
X58346924Y-53271645D01*
X58775183Y-52881358D01*
X59021486Y-52356892D01*
X58900819Y-52127000D01*
X57707000Y-52127000D01*
X57453000Y-52127000D01*
X57433000Y-52127000D01*
X57433000Y-51873000D01*
X57453000Y-51873000D01*
X57453000Y-50679845D01*
X57707000Y-50679845D01*
X57707000Y-51873000D01*
X58900819Y-51873000D01*
X59021486Y-51643108D01*
X58775183Y-51118642D01*
X58346924Y-50728355D01*
X57936890Y-50558524D01*
X57707000Y-50679845D01*
X57453000Y-50679845D01*
X57223110Y-50558524D01*
X56813076Y-50728355D01*
X56384817Y-51118642D01*
X56317702Y-51261553D01*
X56090054Y-50920853D01*
X55608285Y-50598946D01*
X55040000Y-50485907D01*
X54471715Y-50598946D01*
X53989946Y-50920853D01*
X53962150Y-50962452D01*
X53953162Y-50914683D01*
X53814090Y-50698559D01*
X53601890Y-50553569D01*
X53350000Y-50502560D01*
X51650000Y-50502560D01*
X51414683Y-50546838D01*
X51198559Y-50685910D01*
X51053569Y-50898110D01*
X51002560Y-51150000D01*
X48210000Y-51150000D01*
X48210000Y-41210000D01*
X126790000Y-41210000D01*
X126790000Y-190290000D01*
X126790000Y-190290000D01*
G37*
X126790000Y-190290000D02*
X105210000Y-190290000D01*
X105210000Y-185652532D01*
X106777073Y-185652532D01*
X106875736Y-185919387D01*
X107485461Y-186145908D01*
X108135460Y-186121856D01*
X108624264Y-185919387D01*
X108722927Y-185652532D01*
X107750000Y-184679605D01*
X106777073Y-185652532D01*
X105210000Y-185652532D01*
X105210000Y-184235461D01*
X106104092Y-184235461D01*
X106128144Y-184885460D01*
X106330613Y-185374264D01*
X106597468Y-185472927D01*
X107570395Y-184500000D01*
X107929605Y-184500000D01*
X108902532Y-185472927D01*
X109169387Y-185374264D01*
X109373893Y-184823795D01*
X113614716Y-184823795D01*
X113863106Y-185424943D01*
X114322637Y-185885278D01*
X114923352Y-186134716D01*
X115573795Y-186135284D01*
X115901206Y-186000000D01*
X119290000Y-186000000D01*
X119534347Y-187228414D01*
X120230187Y-188269813D01*
X121271586Y-188965653D01*
X122500000Y-189210000D01*
X123728414Y-188965653D01*
X124769813Y-188269813D01*
X125465653Y-187228414D01*
X125710000Y-186000000D01*
X125465653Y-184771586D01*
X124769813Y-183730187D01*
X123728414Y-183034347D01*
X122500000Y-182790000D01*
X121271586Y-183034347D01*
X120230187Y-183730187D01*
X119534347Y-184771586D01*
X119290000Y-186000000D01*
X115901206Y-186000000D01*
X116174943Y-185886894D01*
X116635278Y-185427363D01*
X116884716Y-184826648D01*
X116885284Y-184176205D01*
X116636894Y-183575057D01*
X116177363Y-183114722D01*
X115576648Y-182865284D01*
X114926205Y-182864716D01*
X114325057Y-183113106D01*
X113864722Y-183572637D01*
X113615284Y-184173352D01*
X113614716Y-184823795D01*
X109373893Y-184823795D01*
X109395908Y-184764539D01*
X109371856Y-184114540D01*
X109169387Y-183625736D01*
X108902532Y-183527073D01*
X107929605Y-184500000D01*
X107570395Y-184500000D01*
X106597468Y-183527073D01*
X106330613Y-183625736D01*
X106104092Y-184235461D01*
X105210000Y-184235461D01*
X105210000Y-183347468D01*
X106777073Y-183347468D01*
X107750000Y-184320395D01*
X108722927Y-183347468D01*
X108624264Y-183080613D01*
X108014539Y-182854092D01*
X107364540Y-182878144D01*
X106875736Y-183080613D01*
X106777073Y-183347468D01*
X105210000Y-183347468D01*
X105210000Y-173573795D01*
X109864716Y-173573795D01*
X110113106Y-174174943D01*
X110572637Y-174635278D01*
X111173352Y-174884716D01*
X111823795Y-174885284D01*
X112424943Y-174636894D01*
X112885278Y-174177363D01*
X113134716Y-173576648D01*
X113135284Y-172926205D01*
X112886894Y-172325057D01*
X112427363Y-171864722D01*
X111826648Y-171615284D01*
X111176205Y-171614716D01*
X110575057Y-171863106D01*
X110114722Y-172322637D01*
X109865284Y-172923352D01*
X109864716Y-173573795D01*
X105210000Y-173573795D01*
X105210000Y-141073795D01*
X109864716Y-141073795D01*
X110113106Y-141674943D01*
X110572637Y-142135278D01*
X111173352Y-142384716D01*
X111823795Y-142385284D01*
X112424943Y-142136894D01*
X112885278Y-141677363D01*
X113134716Y-141076648D01*
X113135284Y-140426205D01*
X112886894Y-139825057D01*
X112427363Y-139364722D01*
X111826648Y-139115284D01*
X111176205Y-139114716D01*
X110575057Y-139363106D01*
X110114722Y-139822637D01*
X109865284Y-140423352D01*
X109864716Y-141073795D01*
X105210000Y-141073795D01*
X105210000Y-131000000D01*
X105155954Y-130728295D01*
X105002046Y-130497954D01*
X104771705Y-130344046D01*
X104500000Y-130290000D01*
X70500000Y-130290000D01*
X70228295Y-130344046D01*
X69997954Y-130497954D01*
X69844046Y-130728295D01*
X69790000Y-131000000D01*
X69790000Y-190290000D01*
X48210000Y-190290000D01*
X48210000Y-186000000D01*
X49290000Y-186000000D01*
X49534347Y-187228414D01*
X50230187Y-188269813D01*
X51271586Y-188965653D01*
X52500000Y-189210000D01*
X53728414Y-188965653D01*
X54769813Y-188269813D01*
X55465653Y-187228414D01*
X55710000Y-186000000D01*
X55640885Y-185652532D01*
X58777073Y-185652532D01*
X58875736Y-185919387D01*
X59485461Y-186145908D01*
X60135460Y-186121856D01*
X60624264Y-185919387D01*
X60722927Y-185652532D01*
X59750000Y-184679605D01*
X58777073Y-185652532D01*
X55640885Y-185652532D01*
X55465653Y-184771586D01*
X55107427Y-184235461D01*
X58104092Y-184235461D01*
X58128144Y-184885460D01*
X58330613Y-185374264D01*
X58597468Y-185472927D01*
X59570395Y-184500000D01*
X59929605Y-184500000D01*
X60902532Y-185472927D01*
X61169387Y-185374264D01*
X61373893Y-184823795D01*
X65614716Y-184823795D01*
X65863106Y-185424943D01*
X66322637Y-185885278D01*
X66923352Y-186134716D01*
X67573795Y-186135284D01*
X68174943Y-185886894D01*
X68635278Y-185427363D01*
X68884716Y-184826648D01*
X68885284Y-184176205D01*
X68636894Y-183575057D01*
X68177363Y-183114722D01*
X67576648Y-182865284D01*
X66926205Y-182864716D01*
X66325057Y-183113106D01*
X65864722Y-183572637D01*
X65615284Y-184173352D01*
X65614716Y-184823795D01*
X61373893Y-184823795D01*
X61395908Y-184764539D01*
X61371856Y-184114540D01*
X61169387Y-183625736D01*
X60902532Y-183527073D01*
X59929605Y-184500000D01*
X59570395Y-184500000D01*
X58597468Y-183527073D01*
X58330613Y-183625736D01*
X58104092Y-184235461D01*
X55107427Y-184235461D01*
X54769813Y-183730187D01*
X54197034Y-183347468D01*
X58777073Y-183347468D01*
X59750000Y-184320395D01*
X60722927Y-183347468D01*
X60624264Y-183080613D01*
X60014539Y-182854092D01*
X59364540Y-182878144D01*
X58875736Y-183080613D01*
X58777073Y-183347468D01*
X54197034Y-183347468D01*
X53728414Y-183034347D01*
X52500000Y-182790000D01*
X51271586Y-183034347D01*
X50230187Y-183730187D01*
X49534347Y-184771586D01*
X49290000Y-186000000D01*
X48210000Y-186000000D01*
X48210000Y-173573795D01*
X61864716Y-173573795D01*
X62113106Y-174174943D01*
X62572637Y-174635278D01*
X63173352Y-174884716D01*
X63823795Y-174885284D01*
X64424943Y-174636894D01*
X64885278Y-174177363D01*
X65134716Y-173576648D01*
X65135284Y-172926205D01*
X64886894Y-172325057D01*
X64427363Y-171864722D01*
X63826648Y-171615284D01*
X63176205Y-171614716D01*
X62575057Y-171863106D01*
X62114722Y-172322637D01*
X61865284Y-172923352D01*
X61864716Y-173573795D01*
X48210000Y-173573795D01*
X48210000Y-141073795D01*
X61864716Y-141073795D01*
X62113106Y-141674943D01*
X62572637Y-142135278D01*
X63173352Y-142384716D01*
X63823795Y-142385284D01*
X64424943Y-142136894D01*
X64885278Y-141677363D01*
X65134716Y-141076648D01*
X65135284Y-140426205D01*
X64886894Y-139825057D01*
X64427363Y-139364722D01*
X63826648Y-139115284D01*
X63176205Y-139114716D01*
X62575057Y-139363106D01*
X62114722Y-139822637D01*
X61865284Y-140423352D01*
X61864716Y-141073795D01*
X48210000Y-141073795D01*
X48210000Y-129823795D01*
X58114716Y-129823795D01*
X58363106Y-130424943D01*
X58822637Y-130885278D01*
X59423352Y-131134716D01*
X60073795Y-131135284D01*
X60674943Y-130886894D01*
X61000164Y-130562241D01*
X61322637Y-130885278D01*
X61923352Y-131134716D01*
X62573795Y-131135284D01*
X63174943Y-130886894D01*
X63500164Y-130562241D01*
X63822637Y-130885278D01*
X64423352Y-131134716D01*
X65073795Y-131135284D01*
X65674943Y-130886894D01*
X66020199Y-130542241D01*
X66362637Y-130885278D01*
X66963352Y-131134716D01*
X67613795Y-131135284D01*
X68214943Y-130886894D01*
X68675278Y-130427363D01*
X68924716Y-129826648D01*
X68924718Y-129823795D01*
X106114716Y-129823795D01*
X106363106Y-130424943D01*
X106822637Y-130885278D01*
X107423352Y-131134716D01*
X108073795Y-131135284D01*
X108674943Y-130886894D01*
X109000164Y-130562241D01*
X109322637Y-130885278D01*
X109923352Y-131134716D01*
X110573795Y-131135284D01*
X111174943Y-130886894D01*
X111500164Y-130562241D01*
X111822637Y-130885278D01*
X112423352Y-131134716D01*
X113073795Y-131135284D01*
X113674943Y-130886894D01*
X114020199Y-130542241D01*
X114362637Y-130885278D01*
X114963352Y-131134716D01*
X115613795Y-131135284D01*
X116214943Y-130886894D01*
X116675278Y-130427363D01*
X116924716Y-129826648D01*
X116925284Y-129176205D01*
X116676894Y-128575057D01*
X116217363Y-128114722D01*
X115616648Y-127865284D01*
X114966205Y-127864716D01*
X114365057Y-128113106D01*
X114019801Y-128457759D01*
X113677363Y-128114722D01*
X113076648Y-127865284D01*
X112426205Y-127864716D01*
X111825057Y-128113106D01*
X111499836Y-128437759D01*
X111177363Y-128114722D01*
X110576648Y-127865284D01*
X109926205Y-127864716D01*
X109325057Y-128113106D01*
X108999836Y-128437759D01*
X108677363Y-128114722D01*
X108076648Y-127865284D01*
X107426205Y-127864716D01*
X106825057Y-128113106D01*
X106364722Y-128572637D01*
X106115284Y-129173352D01*
X106114716Y-129823795D01*
X68924718Y-129823795D01*
X68925284Y-129176205D01*
X68676894Y-128575057D01*
X68217363Y-128114722D01*
X67616648Y-127865284D01*
X66966205Y-127864716D01*
X66365057Y-128113106D01*
X66019801Y-128457759D01*
X65677363Y-128114722D01*
X65076648Y-127865284D01*
X64426205Y-127864716D01*
X63825057Y-128113106D01*
X63499836Y-128437759D01*
X63177363Y-128114722D01*
X62576648Y-127865284D01*
X61926205Y-127864716D01*
X61325057Y-128113106D01*
X60999836Y-128437759D01*
X60677363Y-128114722D01*
X60076648Y-127865284D01*
X59426205Y-127864716D01*
X58825057Y-128113106D01*
X58364722Y-128572637D01*
X58115284Y-129173352D01*
X58114716Y-129823795D01*
X48210000Y-129823795D01*
X48210000Y-126650000D01*
X84002560Y-126650000D01*
X84002560Y-128350000D01*
X84046838Y-128585317D01*
X84185910Y-128801441D01*
X84398110Y-128946431D01*
X84650000Y-128997440D01*
X86350000Y-128997440D01*
X86585317Y-128953162D01*
X86801441Y-128814090D01*
X86946431Y-128601890D01*
X86968301Y-128493893D01*
X87273076Y-128771645D01*
X87683110Y-128941476D01*
X87913000Y-128820155D01*
X87913000Y-127627000D01*
X88167000Y-127627000D01*
X88167000Y-128820155D01*
X88396890Y-128941476D01*
X88806924Y-128771645D01*
X89235183Y-128381358D01*
X89481486Y-127856892D01*
X89360819Y-127627000D01*
X88167000Y-127627000D01*
X87913000Y-127627000D01*
X87893000Y-127627000D01*
X87893000Y-127373000D01*
X87913000Y-127373000D01*
X87913000Y-126179845D01*
X88167000Y-126179845D01*
X88167000Y-127373000D01*
X89360819Y-127373000D01*
X89481486Y-127143108D01*
X89235183Y-126618642D01*
X88806924Y-126228355D01*
X88396890Y-126058524D01*
X88167000Y-126179845D01*
X87913000Y-126179845D01*
X87683110Y-126058524D01*
X87273076Y-126228355D01*
X86970063Y-126504501D01*
X86953162Y-126414683D01*
X86814090Y-126198559D01*
X86601890Y-126053569D01*
X86350000Y-126002560D01*
X84650000Y-126002560D01*
X84414683Y-126046838D01*
X84198559Y-126185910D01*
X84053569Y-126398110D01*
X84002560Y-126650000D01*
X48210000Y-126650000D01*
X48210000Y-125763970D01*
X50585635Y-125763970D01*
X50745418Y-126082739D01*
X51536187Y-126392723D01*
X52385387Y-126376497D01*
X53094582Y-126082739D01*
X53254365Y-125763970D01*
X51920000Y-124429605D01*
X50585635Y-125763970D01*
X48210000Y-125763970D01*
X48210000Y-123866187D01*
X49777277Y-123866187D01*
X49793503Y-124715387D01*
X50087261Y-125424582D01*
X50406030Y-125584365D01*
X51740395Y-124250000D01*
X52099605Y-124250000D01*
X53433970Y-125584365D01*
X53752739Y-125424582D01*
X54047434Y-124672815D01*
X54864630Y-124672815D01*
X55188980Y-125457800D01*
X55789041Y-126058909D01*
X56573459Y-126384628D01*
X57422815Y-126385370D01*
X58207800Y-126061020D01*
X58505368Y-125763970D01*
X72585635Y-125763970D01*
X72745418Y-126082739D01*
X73536187Y-126392723D01*
X74385387Y-126376497D01*
X75094582Y-126082739D01*
X75254365Y-125763970D01*
X73920000Y-124429605D01*
X72585635Y-125763970D01*
X58505368Y-125763970D01*
X58808909Y-125460959D01*
X59134628Y-124676541D01*
X59135335Y-123866187D01*
X71777277Y-123866187D01*
X71793503Y-124715387D01*
X72087261Y-125424582D01*
X72406030Y-125584365D01*
X73740395Y-124250000D01*
X74099605Y-124250000D01*
X75433970Y-125584365D01*
X75752739Y-125424582D01*
X76047434Y-124672815D01*
X76864630Y-124672815D01*
X77188980Y-125457800D01*
X77789041Y-126058909D01*
X78573459Y-126384628D01*
X79422815Y-126385370D01*
X80207800Y-126061020D01*
X80505368Y-125763970D01*
X94585635Y-125763970D01*
X94745418Y-126082739D01*
X95536187Y-126392723D01*
X96385387Y-126376497D01*
X97094582Y-126082739D01*
X97254365Y-125763970D01*
X95920000Y-124429605D01*
X94585635Y-125763970D01*
X80505368Y-125763970D01*
X80808909Y-125460959D01*
X81134628Y-124676541D01*
X81135335Y-123866187D01*
X93777277Y-123866187D01*
X93793503Y-124715387D01*
X94087261Y-125424582D01*
X94406030Y-125584365D01*
X95740395Y-124250000D01*
X96099605Y-124250000D01*
X97433970Y-125584365D01*
X97752739Y-125424582D01*
X98047434Y-124672815D01*
X98864630Y-124672815D01*
X99188980Y-125457800D01*
X99789041Y-126058909D01*
X100573459Y-126384628D01*
X101422815Y-126385370D01*
X102207800Y-126061020D01*
X102505368Y-125763970D01*
X116585635Y-125763970D01*
X116745418Y-126082739D01*
X117536187Y-126392723D01*
X118385387Y-126376497D01*
X119094582Y-126082739D01*
X119254365Y-125763970D01*
X117920000Y-124429605D01*
X116585635Y-125763970D01*
X102505368Y-125763970D01*
X102808909Y-125460959D01*
X103134628Y-124676541D01*
X103135335Y-123866187D01*
X115777277Y-123866187D01*
X115793503Y-124715387D01*
X116087261Y-125424582D01*
X116406030Y-125584365D01*
X117740395Y-124250000D01*
X118099605Y-124250000D01*
X119433970Y-125584365D01*
X119752739Y-125424582D01*
X120047434Y-124672815D01*
X120864630Y-124672815D01*
X121188980Y-125457800D01*
X121789041Y-126058909D01*
X122573459Y-126384628D01*
X123422815Y-126385370D01*
X124207800Y-126061020D01*
X124808909Y-125460959D01*
X125134628Y-124676541D01*
X125135370Y-123827185D01*
X124811020Y-123042200D01*
X124210959Y-122441091D01*
X123426541Y-122115372D01*
X122577185Y-122114630D01*
X121792200Y-122438980D01*
X121191091Y-123039041D01*
X120865372Y-123823459D01*
X120864630Y-124672815D01*
X120047434Y-124672815D01*
X120062723Y-124633813D01*
X120046497Y-123784613D01*
X119752739Y-123075418D01*
X119433970Y-122915635D01*
X118099605Y-124250000D01*
X117740395Y-124250000D01*
X116406030Y-122915635D01*
X116087261Y-123075418D01*
X115777277Y-123866187D01*
X103135335Y-123866187D01*
X103135370Y-123827185D01*
X102811020Y-123042200D01*
X102505384Y-122736030D01*
X116585635Y-122736030D01*
X117920000Y-124070395D01*
X119254365Y-122736030D01*
X119094582Y-122417261D01*
X118303813Y-122107277D01*
X117454613Y-122123503D01*
X116745418Y-122417261D01*
X116585635Y-122736030D01*
X102505384Y-122736030D01*
X102210959Y-122441091D01*
X101426541Y-122115372D01*
X100577185Y-122114630D01*
X99792200Y-122438980D01*
X99191091Y-123039041D01*
X98865372Y-123823459D01*
X98864630Y-124672815D01*
X98047434Y-124672815D01*
X98062723Y-124633813D01*
X98046497Y-123784613D01*
X97752739Y-123075418D01*
X97433970Y-122915635D01*
X96099605Y-124250000D01*
X95740395Y-124250000D01*
X94406030Y-122915635D01*
X94087261Y-123075418D01*
X93777277Y-123866187D01*
X81135335Y-123866187D01*
X81135370Y-123827185D01*
X80811020Y-123042200D01*
X80505384Y-122736030D01*
X94585635Y-122736030D01*
X95920000Y-124070395D01*
X97254365Y-122736030D01*
X97094582Y-122417261D01*
X96303813Y-122107277D01*
X95454613Y-122123503D01*
X94745418Y-122417261D01*
X94585635Y-122736030D01*
X80505384Y-122736030D01*
X80210959Y-122441091D01*
X79426541Y-122115372D01*
X78577185Y-122114630D01*
X77792200Y-122438980D01*
X77191091Y-123039041D01*
X76865372Y-123823459D01*
X76864630Y-124672815D01*
X76047434Y-124672815D01*
X76062723Y-124633813D01*
X76046497Y-123784613D01*
X75752739Y-123075418D01*
X75433970Y-122915635D01*
X74099605Y-124250000D01*
X73740395Y-124250000D01*
X72406030Y-122915635D01*
X72087261Y-123075418D01*
X71777277Y-123866187D01*
X59135335Y-123866187D01*
X59135370Y-123827185D01*
X58811020Y-123042200D01*
X58505384Y-122736030D01*
X72585635Y-122736030D01*
X73920000Y-124070395D01*
X75254365Y-122736030D01*
X75094582Y-122417261D01*
X74303813Y-122107277D01*
X73454613Y-122123503D01*
X72745418Y-122417261D01*
X72585635Y-122736030D01*
X58505384Y-122736030D01*
X58210959Y-122441091D01*
X57426541Y-122115372D01*
X56577185Y-122114630D01*
X55792200Y-122438980D01*
X55191091Y-123039041D01*
X54865372Y-123823459D01*
X54864630Y-124672815D01*
X54047434Y-124672815D01*
X54062723Y-124633813D01*
X54046497Y-123784613D01*
X53752739Y-123075418D01*
X53433970Y-122915635D01*
X52099605Y-124250000D01*
X51740395Y-124250000D01*
X50406030Y-122915635D01*
X50087261Y-123075418D01*
X49777277Y-123866187D01*
X48210000Y-123866187D01*
X48210000Y-122736030D01*
X50585635Y-122736030D01*
X51920000Y-124070395D01*
X53254365Y-122736030D01*
X53094582Y-122417261D01*
X52303813Y-122107277D01*
X51454613Y-122123503D01*
X50745418Y-122417261D01*
X50585635Y-122736030D01*
X48210000Y-122736030D01*
X48210000Y-117803991D01*
X61424735Y-117803991D01*
X61657932Y-118368371D01*
X62089357Y-118800551D01*
X62653330Y-119034733D01*
X63263991Y-119035265D01*
X63828371Y-118802068D01*
X64230323Y-118400818D01*
X64629357Y-118800551D01*
X65193330Y-119034733D01*
X65803991Y-119035265D01*
X66368371Y-118802068D01*
X66536613Y-118634120D01*
X66536838Y-118635317D01*
X66675910Y-118851441D01*
X66888110Y-118996431D01*
X67140000Y-119047440D01*
X68940000Y-119047440D01*
X69175317Y-119003162D01*
X69391441Y-118864090D01*
X69513693Y-118685167D01*
X74064838Y-118685167D01*
X74206883Y-119028943D01*
X74469673Y-119292192D01*
X74813201Y-119434838D01*
X75185167Y-119435162D01*
X75528943Y-119293117D01*
X75792192Y-119030327D01*
X75934838Y-118686799D01*
X75934839Y-118685167D01*
X79564838Y-118685167D01*
X79706883Y-119028943D01*
X79969673Y-119292192D01*
X80313201Y-119434838D01*
X80685167Y-119435162D01*
X81028943Y-119293117D01*
X81292192Y-119030327D01*
X81434838Y-118686799D01*
X81435162Y-118314833D01*
X81293117Y-117971057D01*
X81030327Y-117707808D01*
X80686799Y-117565162D01*
X80314833Y-117564838D01*
X79971057Y-117706883D01*
X79707808Y-117969673D01*
X79565162Y-118313201D01*
X79564838Y-118685167D01*
X75934839Y-118685167D01*
X75935162Y-118314833D01*
X75793117Y-117971057D01*
X75530327Y-117707808D01*
X75186799Y-117565162D01*
X74814833Y-117564838D01*
X74471057Y-117706883D01*
X74207808Y-117969673D01*
X74065162Y-118313201D01*
X74064838Y-118685167D01*
X69513693Y-118685167D01*
X69536431Y-118651890D01*
X69587440Y-118400000D01*
X69587440Y-116600000D01*
X69543162Y-116364683D01*
X69404090Y-116148559D01*
X69191890Y-116003569D01*
X68940000Y-115952560D01*
X67140000Y-115952560D01*
X66904683Y-115996838D01*
X66688559Y-116135910D01*
X66543569Y-116348110D01*
X66539433Y-116368534D01*
X66370643Y-116199449D01*
X65806670Y-115965267D01*
X65196009Y-115964735D01*
X64631629Y-116197932D01*
X64229677Y-116599182D01*
X63830643Y-116199449D01*
X63266670Y-115965267D01*
X62656009Y-115964735D01*
X62091629Y-116197932D01*
X61659449Y-116629357D01*
X61425267Y-117193330D01*
X61424735Y-117803991D01*
X48210000Y-117803991D01*
X48210000Y-113013970D01*
X50665635Y-113013970D01*
X50825418Y-113332739D01*
X51616187Y-113642723D01*
X52465387Y-113626497D01*
X53174582Y-113332739D01*
X53334365Y-113013970D01*
X52000000Y-111679605D01*
X50665635Y-113013970D01*
X48210000Y-113013970D01*
X48210000Y-111116187D01*
X49857277Y-111116187D01*
X49873503Y-111965387D01*
X50167261Y-112674582D01*
X50486030Y-112834365D01*
X51820395Y-111500000D01*
X52179605Y-111500000D01*
X53513970Y-112834365D01*
X53832739Y-112674582D01*
X54127434Y-111922815D01*
X54864630Y-111922815D01*
X55188980Y-112707800D01*
X55789041Y-113308909D01*
X56573459Y-113634628D01*
X57422815Y-113635370D01*
X58207800Y-113311020D01*
X58505368Y-113013970D01*
X72665635Y-113013970D01*
X72825418Y-113332739D01*
X73616187Y-113642723D01*
X74465387Y-113626497D01*
X75174582Y-113332739D01*
X75334365Y-113013970D01*
X74000000Y-111679605D01*
X72665635Y-113013970D01*
X58505368Y-113013970D01*
X58808909Y-112710959D01*
X59134628Y-111926541D01*
X59135370Y-111077185D01*
X58811020Y-110292200D01*
X58210959Y-109691091D01*
X57426541Y-109365372D01*
X56577185Y-109364630D01*
X55792200Y-109688980D01*
X55191091Y-110289041D01*
X54865372Y-111073459D01*
X54864630Y-111922815D01*
X54127434Y-111922815D01*
X54142723Y-111883813D01*
X54126497Y-111034613D01*
X53832739Y-110325418D01*
X53513970Y-110165635D01*
X52179605Y-111500000D01*
X51820395Y-111500000D01*
X50486030Y-110165635D01*
X50167261Y-110325418D01*
X49857277Y-111116187D01*
X48210000Y-111116187D01*
X48210000Y-109986030D01*
X50665635Y-109986030D01*
X52000000Y-111320395D01*
X53334365Y-109986030D01*
X53174582Y-109667261D01*
X52383813Y-109357277D01*
X51534613Y-109373503D01*
X50825418Y-109667261D01*
X50665635Y-109986030D01*
X48210000Y-109986030D01*
X48210000Y-100436890D01*
X57558524Y-100436890D01*
X57728355Y-100846924D01*
X58118642Y-101275183D01*
X58643108Y-101521486D01*
X58873000Y-101400819D01*
X58873000Y-100207000D01*
X59127000Y-100207000D01*
X59127000Y-101400819D01*
X59356892Y-101521486D01*
X59881358Y-101275183D01*
X60271645Y-100846924D01*
X60441476Y-100436890D01*
X60320155Y-100207000D01*
X59127000Y-100207000D01*
X58873000Y-100207000D01*
X57679845Y-100207000D01*
X57558524Y-100436890D01*
X48210000Y-100436890D01*
X48210000Y-95000000D01*
X57485907Y-95000000D01*
X57598946Y-95568285D01*
X57920853Y-96050054D01*
X58250026Y-96270000D01*
X57920853Y-96489946D01*
X57598946Y-96971715D01*
X57485907Y-97540000D01*
X57598946Y-98108285D01*
X57920853Y-98590054D01*
X58261553Y-98817702D01*
X58118642Y-98884817D01*
X57728355Y-99313076D01*
X57558524Y-99723110D01*
X57679845Y-99953000D01*
X58873000Y-99953000D01*
X58873000Y-99933000D01*
X59127000Y-99933000D01*
X59127000Y-99953000D01*
X60320155Y-99953000D01*
X60441476Y-99723110D01*
X60271645Y-99313076D01*
X59881358Y-98884817D01*
X59738447Y-98817702D01*
X60079147Y-98590054D01*
X60401054Y-98108285D01*
X60485217Y-97685167D01*
X67064838Y-97685167D01*
X67206883Y-98028943D01*
X67469673Y-98292192D01*
X67813201Y-98434838D01*
X67860077Y-98434879D01*
X68837598Y-99412400D01*
X69084160Y-99577147D01*
X69374999Y-99634999D01*
X73064991Y-99634999D01*
X73064838Y-99810177D01*
X73206883Y-100153953D01*
X73240000Y-100187128D01*
X73240000Y-101095758D01*
X72971057Y-101206883D01*
X72707808Y-101469673D01*
X72565162Y-101813201D01*
X72564838Y-102185167D01*
X72706883Y-102528943D01*
X72969673Y-102792192D01*
X73313201Y-102934838D01*
X73685167Y-102935162D01*
X74028943Y-102793117D01*
X74292192Y-102530327D01*
X74434838Y-102186799D01*
X74434879Y-102139923D01*
X74537401Y-102037401D01*
X74702148Y-101790839D01*
X74760000Y-101500000D01*
X74760000Y-100187473D01*
X74792192Y-100155337D01*
X74934838Y-99811809D01*
X74934992Y-99634999D01*
X76064882Y-99634999D01*
X76064838Y-99685167D01*
X76206883Y-100028943D01*
X76240000Y-100062118D01*
X76240000Y-106185198D01*
X74860320Y-107564878D01*
X74814833Y-107564838D01*
X74471057Y-107706883D01*
X74207808Y-107969673D01*
X74065162Y-108313201D01*
X74065117Y-108365002D01*
X72815600Y-108365002D01*
X72715103Y-108297852D01*
X72596704Y-108274301D01*
X72530327Y-108207808D01*
X72186799Y-108065162D01*
X71814833Y-108064838D01*
X71471057Y-108206883D01*
X71207808Y-108469673D01*
X71159885Y-108585083D01*
X69935122Y-107360320D01*
X69935162Y-107314833D01*
X69793117Y-106971057D01*
X69530327Y-106707808D01*
X69186799Y-106565162D01*
X68814833Y-106564838D01*
X68471057Y-106706883D01*
X68207808Y-106969673D01*
X68065162Y-107313201D01*
X68064838Y-107685167D01*
X68206883Y-108028943D01*
X68469673Y-108292192D01*
X68813201Y-108434838D01*
X68860077Y-108434879D01*
X70587601Y-110162403D01*
X70834163Y-110327150D01*
X71125002Y-110385002D01*
X72143904Y-110385002D01*
X71857277Y-111116187D01*
X71873503Y-111965387D01*
X72167261Y-112674582D01*
X72486030Y-112834365D01*
X73820395Y-111500000D01*
X73806253Y-111485858D01*
X73985858Y-111306253D01*
X74000000Y-111320395D01*
X74014143Y-111306253D01*
X74193748Y-111485858D01*
X74179605Y-111500000D01*
X75513970Y-112834365D01*
X75832739Y-112674582D01*
X76142723Y-111883813D01*
X76126497Y-111034613D01*
X75857419Y-110385002D01*
X77151244Y-110385002D01*
X76865372Y-111073459D01*
X76864630Y-111922815D01*
X77188980Y-112707800D01*
X77789041Y-113308909D01*
X78573459Y-113634628D01*
X79422815Y-113635370D01*
X80207800Y-113311020D01*
X80505368Y-113013970D01*
X94665635Y-113013970D01*
X94825418Y-113332739D01*
X95616187Y-113642723D01*
X96465387Y-113626497D01*
X97174582Y-113332739D01*
X97334365Y-113013970D01*
X96000000Y-111679605D01*
X94665635Y-113013970D01*
X80505368Y-113013970D01*
X80808909Y-112710959D01*
X81134628Y-111926541D01*
X81135335Y-111116187D01*
X93857277Y-111116187D01*
X93873503Y-111965387D01*
X94167261Y-112674582D01*
X94486030Y-112834365D01*
X95820395Y-111500000D01*
X96179605Y-111500000D01*
X97513970Y-112834365D01*
X97832739Y-112674582D01*
X98142723Y-111883813D01*
X98126497Y-111034613D01*
X97832739Y-110325418D01*
X97513970Y-110165635D01*
X96179605Y-111500000D01*
X95820395Y-111500000D01*
X94486030Y-110165635D01*
X94167261Y-110325418D01*
X93857277Y-111116187D01*
X81135335Y-111116187D01*
X81135370Y-111077185D01*
X80811020Y-110292200D01*
X80505384Y-109986030D01*
X94665635Y-109986030D01*
X96000000Y-111320395D01*
X97334365Y-109986030D01*
X97174582Y-109667261D01*
X96383813Y-109357277D01*
X95534613Y-109373503D01*
X94825418Y-109667261D01*
X94665635Y-109986030D01*
X80505384Y-109986030D01*
X80210959Y-109691091D01*
X79426541Y-109365372D01*
X78710056Y-109364746D01*
X79889635Y-108185167D01*
X98064838Y-108185167D01*
X98206883Y-108528943D01*
X98240000Y-108562118D01*
X98240000Y-112201002D01*
X98297852Y-112491841D01*
X98462599Y-112738403D01*
X100761597Y-115037401D01*
X101008159Y-115202148D01*
X101298998Y-115260000D01*
X101437537Y-115260000D01*
X101469673Y-115292192D01*
X101813201Y-115434838D01*
X102185167Y-115435162D01*
X102528943Y-115293117D01*
X102792192Y-115030327D01*
X102934838Y-114686799D01*
X102935162Y-114314833D01*
X102793117Y-113971057D01*
X102530327Y-113707808D01*
X102186799Y-113565162D01*
X101814833Y-113564838D01*
X101548630Y-113674830D01*
X101483921Y-113610121D01*
X102207800Y-113311020D01*
X102808909Y-112710959D01*
X102941590Y-112391429D01*
X103234841Y-112513198D01*
X103606807Y-112513522D01*
X103686846Y-112480450D01*
X103706883Y-112528943D01*
X103969673Y-112792192D01*
X104313201Y-112934838D01*
X104360077Y-112934879D01*
X106240000Y-114814802D01*
X106240000Y-116653154D01*
X106131629Y-116697932D01*
X105699449Y-117129357D01*
X105465267Y-117693330D01*
X105464735Y-118303991D01*
X105697932Y-118868371D01*
X106129357Y-119300551D01*
X106693330Y-119534733D01*
X107303991Y-119535265D01*
X107868371Y-119302068D01*
X108270323Y-118900818D01*
X108669357Y-119300551D01*
X109233330Y-119534733D01*
X109843991Y-119535265D01*
X110408371Y-119302068D01*
X110576613Y-119134120D01*
X110576838Y-119135317D01*
X110715910Y-119351441D01*
X110928110Y-119496431D01*
X111180000Y-119547440D01*
X112980000Y-119547440D01*
X113215317Y-119503162D01*
X113431441Y-119364090D01*
X113576431Y-119151890D01*
X113627440Y-118900000D01*
X113627440Y-117100000D01*
X113583162Y-116864683D01*
X113444090Y-116648559D01*
X113231890Y-116503569D01*
X112980000Y-116452560D01*
X112602360Y-116452560D01*
X109163770Y-113013970D01*
X116665635Y-113013970D01*
X116825418Y-113332739D01*
X117616187Y-113642723D01*
X118465387Y-113626497D01*
X119174582Y-113332739D01*
X119334365Y-113013970D01*
X118000000Y-111679605D01*
X116665635Y-113013970D01*
X109163770Y-113013970D01*
X108584875Y-112435075D01*
X108685167Y-112435162D01*
X109028943Y-112293117D01*
X109292192Y-112030327D01*
X109434838Y-111686799D01*
X109435162Y-111314833D01*
X109353084Y-111116187D01*
X115857277Y-111116187D01*
X115873503Y-111965387D01*
X116167261Y-112674582D01*
X116486030Y-112834365D01*
X117820395Y-111500000D01*
X118179605Y-111500000D01*
X119513970Y-112834365D01*
X119832739Y-112674582D01*
X120127434Y-111922815D01*
X120864630Y-111922815D01*
X121188980Y-112707800D01*
X121789041Y-113308909D01*
X122573459Y-113634628D01*
X123422815Y-113635370D01*
X124207800Y-113311020D01*
X124808909Y-112710959D01*
X125134628Y-111926541D01*
X125135370Y-111077185D01*
X124811020Y-110292200D01*
X124210959Y-109691091D01*
X123426541Y-109365372D01*
X122577185Y-109364630D01*
X121792200Y-109688980D01*
X121191091Y-110289041D01*
X120865372Y-111073459D01*
X120864630Y-111922815D01*
X120127434Y-111922815D01*
X120142723Y-111883813D01*
X120126497Y-111034613D01*
X119832739Y-110325418D01*
X119513970Y-110165635D01*
X118179605Y-111500000D01*
X117820395Y-111500000D01*
X116486030Y-110165635D01*
X116167261Y-110325418D01*
X115857277Y-111116187D01*
X109353084Y-111116187D01*
X109293117Y-110971057D01*
X109030327Y-110707808D01*
X108686799Y-110565162D01*
X108639923Y-110565121D01*
X108537401Y-110462599D01*
X108290839Y-110297852D01*
X108000000Y-110240000D01*
X107562463Y-110240000D01*
X107530327Y-110207808D01*
X107186799Y-110065162D01*
X106814833Y-110064838D01*
X106471057Y-110206883D01*
X106207808Y-110469673D01*
X106187591Y-110518361D01*
X103721639Y-110518361D01*
X103430800Y-110576213D01*
X103330427Y-110643280D01*
X103236473Y-110643198D01*
X102996944Y-110742169D01*
X102811020Y-110292200D01*
X102505384Y-109986030D01*
X116665635Y-109986030D01*
X118000000Y-111320395D01*
X119334365Y-109986030D01*
X119174582Y-109667261D01*
X118383813Y-109357277D01*
X117534613Y-109373503D01*
X116825418Y-109667261D01*
X116665635Y-109986030D01*
X102505384Y-109986030D01*
X102210959Y-109691091D01*
X101426541Y-109365372D01*
X100760000Y-109364790D01*
X100760000Y-109062463D01*
X100792192Y-109030327D01*
X100934838Y-108686799D01*
X100935162Y-108314833D01*
X100793117Y-107971057D01*
X100530327Y-107707808D01*
X100186799Y-107565162D01*
X99831873Y-107564853D01*
X99793117Y-107471057D01*
X99530327Y-107207808D01*
X99511524Y-107200000D01*
X108052560Y-107200000D01*
X108052560Y-108800000D01*
X108096838Y-109035317D01*
X108235910Y-109251441D01*
X108448110Y-109396431D01*
X108700000Y-109447440D01*
X110300000Y-109447440D01*
X110535317Y-109403162D01*
X110751441Y-109264090D01*
X110755977Y-109257452D01*
X111283223Y-109446965D01*
X111853454Y-109419778D01*
X112254005Y-109253864D01*
X112328139Y-109007745D01*
X111500000Y-108179605D01*
X111485858Y-108193748D01*
X111306253Y-108014143D01*
X111320395Y-108000000D01*
X111679605Y-108000000D01*
X112507745Y-108828139D01*
X112753864Y-108754005D01*
X112946965Y-108216777D01*
X112919778Y-107646546D01*
X112753864Y-107245995D01*
X112507745Y-107171861D01*
X111679605Y-108000000D01*
X111320395Y-108000000D01*
X111306253Y-107985858D01*
X111485858Y-107806252D01*
X111500000Y-107820395D01*
X112328139Y-106992255D01*
X112254005Y-106746136D01*
X111716777Y-106553035D01*
X111146546Y-106580222D01*
X110755053Y-106742384D01*
X110551890Y-106603569D01*
X110300000Y-106552560D01*
X108700000Y-106552560D01*
X108464683Y-106596838D01*
X108248559Y-106735910D01*
X108103569Y-106948110D01*
X108052560Y-107200000D01*
X99511524Y-107200000D01*
X99186799Y-107065162D01*
X98814833Y-107064838D01*
X98471057Y-107206883D01*
X98207808Y-107469673D01*
X98065162Y-107813201D01*
X98064838Y-108185167D01*
X79889635Y-108185167D01*
X86639680Y-101435122D01*
X86685167Y-101435162D01*
X87028943Y-101293117D01*
X87292192Y-101030327D01*
X87434838Y-100686799D01*
X87434873Y-100646086D01*
X91451198Y-104662411D01*
X91697760Y-104827158D01*
X91988599Y-104885010D01*
X97003231Y-104885010D01*
X97035367Y-104917202D01*
X97378895Y-105059848D01*
X97750861Y-105060172D01*
X97896488Y-105000000D01*
X116790000Y-105000000D01*
X117034347Y-106228414D01*
X117730187Y-107269813D01*
X118771586Y-107965653D01*
X120000000Y-108210000D01*
X121228414Y-107965653D01*
X122269813Y-107269813D01*
X122965653Y-106228414D01*
X123210000Y-105000000D01*
X122965653Y-103771586D01*
X122269813Y-102730187D01*
X121228414Y-102034347D01*
X120000000Y-101790000D01*
X118771586Y-102034347D01*
X117730187Y-102730187D01*
X117034347Y-103771586D01*
X116790000Y-105000000D01*
X97896488Y-105000000D01*
X98094637Y-104918127D01*
X98357886Y-104655337D01*
X98449396Y-104434957D01*
X98685167Y-104435162D01*
X99028943Y-104293117D01*
X99292192Y-104030327D01*
X99434838Y-103686799D01*
X99435162Y-103314833D01*
X99293117Y-102971057D01*
X99030327Y-102707808D01*
X98686799Y-102565162D01*
X98314833Y-102564838D01*
X97971057Y-102706883D01*
X97937882Y-102740000D01*
X97091670Y-102740000D01*
X97217575Y-102436788D01*
X97217603Y-102403694D01*
X107785226Y-102403694D01*
X108033538Y-103004655D01*
X108492927Y-103464846D01*
X109093453Y-103714206D01*
X109743694Y-103714774D01*
X110344655Y-103466462D01*
X110804846Y-103007073D01*
X111054206Y-102406547D01*
X111054774Y-101756306D01*
X110806462Y-101155345D01*
X110347073Y-100695154D01*
X109746547Y-100445794D01*
X109096306Y-100445226D01*
X108495345Y-100693538D01*
X108035154Y-101152927D01*
X107785794Y-101753453D01*
X107785226Y-102403694D01*
X97217603Y-102403694D01*
X97217899Y-102064822D01*
X97188355Y-101993321D01*
X97597378Y-101911961D01*
X98079147Y-101590054D01*
X98268345Y-101306899D01*
X98268355Y-101306924D01*
X98658642Y-101735183D01*
X99183108Y-101981486D01*
X99413000Y-101860819D01*
X99413000Y-100667000D01*
X99667000Y-100667000D01*
X99667000Y-101860819D01*
X99896892Y-101981486D01*
X100421358Y-101735183D01*
X100811645Y-101306924D01*
X100981476Y-100896890D01*
X100860155Y-100667000D01*
X99667000Y-100667000D01*
X99413000Y-100667000D01*
X99393000Y-100667000D01*
X99393000Y-100413000D01*
X99413000Y-100413000D01*
X99413000Y-100393000D01*
X99667000Y-100393000D01*
X99667000Y-100413000D01*
X100860155Y-100413000D01*
X100981476Y-100183110D01*
X100811645Y-99773076D01*
X100421358Y-99344817D01*
X100278447Y-99277702D01*
X100619147Y-99050054D01*
X100941054Y-98568285D01*
X101054093Y-98000000D01*
X100941054Y-97431715D01*
X100868877Y-97323694D01*
X107785226Y-97323694D01*
X108033538Y-97924655D01*
X108492927Y-98384846D01*
X109093453Y-98634206D01*
X109743694Y-98634774D01*
X110344655Y-98386462D01*
X110804846Y-97927073D01*
X111054206Y-97326547D01*
X111054774Y-96676306D01*
X110806462Y-96075345D01*
X110347073Y-95615154D01*
X109746547Y-95365794D01*
X109096306Y-95365226D01*
X108495345Y-95613538D01*
X108035154Y-96072927D01*
X107785794Y-96673453D01*
X107785226Y-97323694D01*
X100868877Y-97323694D01*
X100619147Y-96949946D01*
X100289974Y-96730000D01*
X100619147Y-96510054D01*
X100941054Y-96028285D01*
X101054093Y-95460000D01*
X100941054Y-94891715D01*
X100619147Y-94409946D01*
X100282741Y-94185167D01*
X115564838Y-94185167D01*
X115706883Y-94528943D01*
X115969673Y-94792192D01*
X116313201Y-94934838D01*
X116685167Y-94935162D01*
X117028943Y-94793117D01*
X117292192Y-94530327D01*
X117434838Y-94186799D01*
X117434839Y-94185167D01*
X120064838Y-94185167D01*
X120206883Y-94528943D01*
X120427709Y-94750155D01*
X120207808Y-94969673D01*
X120065162Y-95313201D01*
X120064838Y-95685167D01*
X120206883Y-96028943D01*
X120240000Y-96062118D01*
X120240000Y-97937537D01*
X120207808Y-97969673D01*
X120065162Y-98313201D01*
X120064838Y-98685167D01*
X120206883Y-99028943D01*
X120469673Y-99292192D01*
X120813201Y-99434838D01*
X121185167Y-99435162D01*
X121528943Y-99293117D01*
X121792192Y-99030327D01*
X121934838Y-98686799D01*
X121935162Y-98314833D01*
X121793117Y-97971057D01*
X121760000Y-97937882D01*
X121760000Y-96062463D01*
X121792192Y-96030327D01*
X121934838Y-95686799D01*
X121935162Y-95314833D01*
X121793117Y-94971057D01*
X121582428Y-94760000D01*
X124437537Y-94760000D01*
X124469673Y-94792192D01*
X124813201Y-94934838D01*
X125185167Y-94935162D01*
X125528943Y-94793117D01*
X125792192Y-94530327D01*
X125934838Y-94186799D01*
X125935162Y-93814833D01*
X125793117Y-93471057D01*
X125530327Y-93207808D01*
X125186799Y-93065162D01*
X124814833Y-93064838D01*
X124471057Y-93206883D01*
X124437882Y-93240000D01*
X121562463Y-93240000D01*
X121530327Y-93207808D01*
X121186799Y-93065162D01*
X120814833Y-93064838D01*
X120471057Y-93206883D01*
X120207808Y-93469673D01*
X120065162Y-93813201D01*
X120064838Y-94185167D01*
X117434839Y-94185167D01*
X117435162Y-93814833D01*
X117293117Y-93471057D01*
X117030327Y-93207808D01*
X116686799Y-93065162D01*
X116314833Y-93064838D01*
X115971057Y-93206883D01*
X115707808Y-93469673D01*
X115565162Y-93813201D01*
X115564838Y-94185167D01*
X100282741Y-94185167D01*
X100137378Y-94088039D01*
X99569093Y-93975000D01*
X99510907Y-93975000D01*
X98942622Y-94088039D01*
X98460853Y-94409946D01*
X98460029Y-94411179D01*
X98453162Y-94374683D01*
X98314090Y-94158559D01*
X98101890Y-94013569D01*
X97850000Y-93962560D01*
X96735046Y-93962560D01*
X96735175Y-93814833D01*
X96690506Y-93706726D01*
X96867213Y-93530327D01*
X97009859Y-93186799D01*
X97010183Y-92814833D01*
X96868138Y-92471057D01*
X96605348Y-92207808D01*
X96261820Y-92065162D01*
X95889854Y-92064838D01*
X95768452Y-92115000D01*
X93681812Y-92115000D01*
X93561789Y-92065162D01*
X93189823Y-92064838D01*
X92846047Y-92206883D01*
X92582798Y-92469673D01*
X92440152Y-92813201D01*
X92439828Y-93185167D01*
X92581873Y-93528943D01*
X92844663Y-93792192D01*
X93065101Y-93883726D01*
X93064838Y-94185167D01*
X93206883Y-94528943D01*
X93240000Y-94562118D01*
X93240000Y-96437537D01*
X93207808Y-96469673D01*
X93065162Y-96813201D01*
X93064838Y-97185167D01*
X93206883Y-97528943D01*
X93469673Y-97792192D01*
X93813201Y-97934838D01*
X94185167Y-97935162D01*
X94528943Y-97793117D01*
X94792192Y-97530327D01*
X94869096Y-97345123D01*
X95153953Y-97227423D01*
X95175048Y-97206365D01*
X95262612Y-97337414D01*
X95558790Y-97633592D01*
X95485907Y-98000000D01*
X95598946Y-98568285D01*
X95920853Y-99050054D01*
X96250026Y-99270000D01*
X95920853Y-99489946D01*
X95727046Y-99780000D01*
X92254422Y-99780000D01*
X90813086Y-98338664D01*
X90813126Y-98293177D01*
X90671081Y-97949401D01*
X90408291Y-97686152D01*
X90180252Y-97591461D01*
X90187792Y-97573302D01*
X90188116Y-97201336D01*
X90046071Y-96857560D01*
X89983478Y-96794858D01*
X90057989Y-96764071D01*
X90321238Y-96501281D01*
X90463884Y-96157753D01*
X90464208Y-95785787D01*
X90322163Y-95442011D01*
X90059373Y-95178762D01*
X89715845Y-95036116D01*
X89668969Y-95036075D01*
X89260000Y-94627106D01*
X89260000Y-87700000D01*
X117552560Y-87700000D01*
X117552560Y-89300000D01*
X117596838Y-89535317D01*
X117735910Y-89751441D01*
X117948110Y-89896431D01*
X118200000Y-89947440D01*
X119800000Y-89947440D01*
X120035317Y-89903162D01*
X120251441Y-89764090D01*
X120396431Y-89551890D01*
X120405370Y-89507745D01*
X120671861Y-89507745D01*
X120745995Y-89753864D01*
X121283223Y-89946965D01*
X121853454Y-89919778D01*
X122254005Y-89753864D01*
X122328139Y-89507745D01*
X121500000Y-88679605D01*
X120671861Y-89507745D01*
X120405370Y-89507745D01*
X120444646Y-89313799D01*
X120492255Y-89328139D01*
X121320395Y-88500000D01*
X121679605Y-88500000D01*
X122507745Y-89328139D01*
X122753864Y-89254005D01*
X122946965Y-88716777D01*
X122919778Y-88146546D01*
X122753864Y-87745995D01*
X122507745Y-87671861D01*
X121679605Y-88500000D01*
X121320395Y-88500000D01*
X120492255Y-87671861D01*
X120444833Y-87686145D01*
X120408351Y-87492255D01*
X120671861Y-87492255D01*
X121500000Y-88320395D01*
X122328139Y-87492255D01*
X122254005Y-87246136D01*
X121716777Y-87053035D01*
X121146546Y-87080222D01*
X120745995Y-87246136D01*
X120671861Y-87492255D01*
X120408351Y-87492255D01*
X120403162Y-87464683D01*
X120264090Y-87248559D01*
X120051890Y-87103569D01*
X119800000Y-87052560D01*
X118200000Y-87052560D01*
X117964683Y-87096838D01*
X117748559Y-87235910D01*
X117603569Y-87448110D01*
X117552560Y-87700000D01*
X89260000Y-87700000D01*
X89260000Y-85562463D01*
X89292192Y-85530327D01*
X89434838Y-85186799D01*
X89435162Y-84814833D01*
X89293117Y-84471057D01*
X89030327Y-84207808D01*
X88686799Y-84065162D01*
X88314833Y-84064838D01*
X87971057Y-84206883D01*
X87707808Y-84469673D01*
X87585836Y-84763414D01*
X87530327Y-84707808D01*
X87186799Y-84565162D01*
X86814833Y-84564838D01*
X86471057Y-84706883D01*
X86207808Y-84969673D01*
X86065162Y-85313201D01*
X86064838Y-85685167D01*
X86206883Y-86028943D01*
X86240000Y-86062118D01*
X86240000Y-94937537D01*
X86207808Y-94969673D01*
X86065162Y-95313201D01*
X86064838Y-95685167D01*
X86190787Y-95989988D01*
X85455275Y-95989988D01*
X85216916Y-96037401D01*
X85164435Y-96047840D01*
X84917874Y-96212587D01*
X84592874Y-96537587D01*
X84428127Y-96784149D01*
X84370275Y-97074988D01*
X84370275Y-98007790D01*
X84428127Y-98298629D01*
X84550171Y-98481281D01*
X84550171Y-98814894D01*
X84500002Y-98814850D01*
X84156226Y-98956895D01*
X84123051Y-98990012D01*
X83916829Y-98990012D01*
X83625989Y-99047864D01*
X83379428Y-99212611D01*
X80070710Y-102521329D01*
X78187473Y-102521329D01*
X78155337Y-102489137D01*
X77811809Y-102346491D01*
X77760000Y-102346446D01*
X77760000Y-100062463D01*
X77792192Y-100030327D01*
X77934838Y-99686799D01*
X77934883Y-99634999D01*
X79651923Y-99634999D01*
X80110741Y-100093817D01*
X80110701Y-100139304D01*
X80252746Y-100483080D01*
X80515536Y-100746329D01*
X80859064Y-100888975D01*
X81231030Y-100889299D01*
X81574806Y-100747254D01*
X81838055Y-100484464D01*
X81980701Y-100140936D01*
X81981025Y-99768970D01*
X81838980Y-99425194D01*
X81836768Y-99422978D01*
X81934838Y-99186799D01*
X81935162Y-98814833D01*
X81793117Y-98471057D01*
X81530327Y-98207808D01*
X81186799Y-98065162D01*
X81139923Y-98065121D01*
X80412400Y-97337598D01*
X80165838Y-97172851D01*
X79874999Y-97114999D01*
X76563588Y-97114999D01*
X76272749Y-97172851D01*
X76172253Y-97240000D01*
X70062463Y-97240000D01*
X70030327Y-97207808D01*
X69686799Y-97065162D01*
X69314833Y-97064838D01*
X68971057Y-97206883D01*
X68914065Y-97263775D01*
X68793117Y-96971057D01*
X68530327Y-96707808D01*
X68186799Y-96565162D01*
X67814833Y-96564838D01*
X67471057Y-96706883D01*
X67207808Y-96969673D01*
X67065162Y-97313201D01*
X67064838Y-97685167D01*
X60485217Y-97685167D01*
X60514093Y-97540000D01*
X60401054Y-96971715D01*
X60079147Y-96489946D01*
X59749974Y-96270000D01*
X60079147Y-96050054D01*
X60401054Y-95568285D01*
X60514093Y-95000000D01*
X60401054Y-94431715D01*
X60079147Y-93949946D01*
X60037548Y-93922150D01*
X60085317Y-93913162D01*
X60301441Y-93774090D01*
X60446431Y-93561890D01*
X60497440Y-93310000D01*
X60497440Y-91610000D01*
X60453162Y-91374683D01*
X60314090Y-91158559D01*
X60101890Y-91013569D01*
X59850000Y-90962560D01*
X58150000Y-90962560D01*
X57914683Y-91006838D01*
X57698559Y-91145910D01*
X57553569Y-91358110D01*
X57502560Y-91610000D01*
X57502560Y-93310000D01*
X57546838Y-93545317D01*
X57685910Y-93761441D01*
X57898110Y-93906431D01*
X57965541Y-93920086D01*
X57920853Y-93949946D01*
X57598946Y-94431715D01*
X57485907Y-95000000D01*
X48210000Y-95000000D01*
X48210000Y-90000000D01*
X61790000Y-90000000D01*
X62034347Y-91228414D01*
X62730187Y-92269813D01*
X63771586Y-92965653D01*
X65000000Y-93210000D01*
X66228414Y-92965653D01*
X67269813Y-92269813D01*
X67965653Y-91228414D01*
X68210000Y-90000000D01*
X67965653Y-88771586D01*
X67269813Y-87730187D01*
X66228414Y-87034347D01*
X65000000Y-86790000D01*
X63771586Y-87034347D01*
X62730187Y-87730187D01*
X62034347Y-88771586D01*
X61790000Y-90000000D01*
X48210000Y-90000000D01*
X48210000Y-84685167D01*
X64064838Y-84685167D01*
X64206883Y-85028943D01*
X64469673Y-85292192D01*
X64813201Y-85434838D01*
X65185167Y-85435162D01*
X65528943Y-85293117D01*
X65562118Y-85260000D01*
X65685198Y-85260000D01*
X67064878Y-86639680D01*
X67064838Y-86685167D01*
X67206883Y-87028943D01*
X67469673Y-87292192D01*
X67813201Y-87434838D01*
X68185167Y-87435162D01*
X68528943Y-87293117D01*
X68792192Y-87030327D01*
X68934838Y-86686799D01*
X68935162Y-86314833D01*
X68793117Y-85971057D01*
X68530327Y-85707808D01*
X68186799Y-85565162D01*
X68139923Y-85565121D01*
X66537401Y-83962599D01*
X66290839Y-83797852D01*
X66000000Y-83740000D01*
X65562463Y-83740000D01*
X65530327Y-83707808D01*
X65186799Y-83565162D01*
X64814833Y-83564838D01*
X64471057Y-83706883D01*
X64207808Y-83969673D01*
X64065162Y-84313201D01*
X64064838Y-84685167D01*
X48210000Y-84685167D01*
X48210000Y-70185167D01*
X48564838Y-70185167D01*
X48706883Y-70528943D01*
X48969673Y-70792192D01*
X49313201Y-70934838D01*
X49685167Y-70935162D01*
X50028943Y-70793117D01*
X50292192Y-70530327D01*
X50434838Y-70186799D01*
X50434879Y-70139923D01*
X53162402Y-67412400D01*
X53327149Y-67165838D01*
X53385001Y-66874999D01*
X53385001Y-64934901D01*
X53685167Y-64935162D01*
X54028943Y-64793117D01*
X54062118Y-64760000D01*
X63937537Y-64760000D01*
X63969673Y-64792192D01*
X64313201Y-64934838D01*
X64685167Y-64935162D01*
X65028943Y-64793117D01*
X65292192Y-64530327D01*
X65434838Y-64186799D01*
X65435162Y-63814833D01*
X65293117Y-63471057D01*
X65030327Y-63207808D01*
X64999485Y-63195001D01*
X78044999Y-63195001D01*
X78044999Y-80544999D01*
X78102851Y-80835838D01*
X78267598Y-81082400D01*
X78504998Y-81319800D01*
X78495241Y-81343298D01*
X78494760Y-81894285D01*
X78705169Y-82403515D01*
X79094436Y-82793461D01*
X79603298Y-83004759D01*
X80154285Y-83005240D01*
X80663515Y-82794831D01*
X81053461Y-82405564D01*
X81149976Y-82173130D01*
X81245169Y-82403515D01*
X81634436Y-82793461D01*
X82143298Y-83004759D01*
X82694285Y-83005240D01*
X83203515Y-82794831D01*
X83593461Y-82405564D01*
X83689976Y-82173130D01*
X83785169Y-82403515D01*
X84174436Y-82793461D01*
X84683298Y-83004759D01*
X85234285Y-83005240D01*
X85743515Y-82794831D01*
X86133461Y-82405564D01*
X86229976Y-82173130D01*
X86325169Y-82403515D01*
X86714436Y-82793461D01*
X87223298Y-83004759D01*
X87774285Y-83005240D01*
X88283515Y-82794831D01*
X88673461Y-82405564D01*
X88769976Y-82173130D01*
X88865169Y-82403515D01*
X89254436Y-82793461D01*
X89763298Y-83004759D01*
X90314285Y-83005240D01*
X90823515Y-82794831D01*
X91213461Y-82405564D01*
X91309976Y-82173130D01*
X91405169Y-82403515D01*
X91794436Y-82793461D01*
X92303298Y-83004759D01*
X92854285Y-83005240D01*
X93363515Y-82794831D01*
X93753461Y-82405564D01*
X93849976Y-82173130D01*
X93945169Y-82403515D01*
X94334436Y-82793461D01*
X94843298Y-83004759D01*
X95394285Y-83005240D01*
X95903515Y-82794831D01*
X96293461Y-82405564D01*
X96504759Y-81896702D01*
X96505240Y-81345715D01*
X96294831Y-80836485D01*
X95905564Y-80446539D01*
X95396702Y-80235241D01*
X94845715Y-80234760D01*
X94336485Y-80445169D01*
X93946539Y-80834436D01*
X93850024Y-81066870D01*
X93754831Y-80836485D01*
X93365564Y-80446539D01*
X92856702Y-80235241D01*
X92305715Y-80234760D01*
X91796485Y-80445169D01*
X91406539Y-80834436D01*
X91310024Y-81066870D01*
X91214831Y-80836485D01*
X90825564Y-80446539D01*
X90316702Y-80235241D01*
X89765715Y-80234760D01*
X89740132Y-80245330D01*
X89724999Y-80230197D01*
X89724999Y-72523223D01*
X89813201Y-72559848D01*
X90185167Y-72560172D01*
X90528943Y-72418127D01*
X90792192Y-72155337D01*
X90934838Y-71811809D01*
X90935162Y-71439843D01*
X90800000Y-71112725D01*
X90800000Y-67564547D01*
X90823515Y-67554831D01*
X91213461Y-67165564D01*
X91309976Y-66933130D01*
X91405169Y-67163515D01*
X91794436Y-67553461D01*
X92303298Y-67764759D01*
X92854285Y-67765240D01*
X93363515Y-67554831D01*
X93753461Y-67165564D01*
X93849976Y-66933130D01*
X93945169Y-67163515D01*
X94334436Y-67553461D01*
X94843298Y-67764759D01*
X95394285Y-67765240D01*
X95740000Y-67622394D01*
X95740000Y-69020921D01*
X95686799Y-68998830D01*
X95314833Y-68998506D01*
X94971057Y-69140551D01*
X94707808Y-69403341D01*
X94565162Y-69746869D01*
X94564838Y-70118835D01*
X94706883Y-70462611D01*
X94740000Y-70495786D01*
X94740000Y-70937537D01*
X94707808Y-70969673D01*
X94565162Y-71313201D01*
X94564838Y-71685167D01*
X94706883Y-72028943D01*
X94969673Y-72292192D01*
X95313201Y-72434838D01*
X95668127Y-72435147D01*
X95706883Y-72528943D01*
X95969673Y-72792192D01*
X96313201Y-72934838D01*
X96685167Y-72935162D01*
X97028943Y-72793117D01*
X97292192Y-72530327D01*
X97434838Y-72186799D01*
X97435162Y-71814833D01*
X97293117Y-71471057D01*
X97260000Y-71437882D01*
X97260000Y-59185167D01*
X120064838Y-59185167D01*
X120206883Y-59528943D01*
X120240000Y-59562118D01*
X120240000Y-60500000D01*
X120297852Y-60790839D01*
X120462599Y-61037401D01*
X122064878Y-62639680D01*
X122064838Y-62685167D01*
X122206883Y-63028943D01*
X122469673Y-63292192D01*
X122813201Y-63434838D01*
X123185167Y-63435162D01*
X123528943Y-63293117D01*
X123792192Y-63030327D01*
X123934838Y-62686799D01*
X123935162Y-62314833D01*
X123793117Y-61971057D01*
X123530327Y-61707808D01*
X123186799Y-61565162D01*
X123139923Y-61565121D01*
X121760000Y-60185198D01*
X121760000Y-59562463D01*
X121792192Y-59530327D01*
X121934838Y-59186799D01*
X121934839Y-59185167D01*
X122064838Y-59185167D01*
X122206883Y-59528943D01*
X122469673Y-59792192D01*
X122813201Y-59934838D01*
X123185167Y-59935162D01*
X123528943Y-59793117D01*
X123792192Y-59530327D01*
X123934838Y-59186799D01*
X123935162Y-58814833D01*
X123793117Y-58471057D01*
X123530327Y-58207808D01*
X123186799Y-58065162D01*
X122814833Y-58064838D01*
X122471057Y-58206883D01*
X122207808Y-58469673D01*
X122065162Y-58813201D01*
X122064838Y-59185167D01*
X121934839Y-59185167D01*
X121935162Y-58814833D01*
X121793117Y-58471057D01*
X121530327Y-58207808D01*
X121186799Y-58065162D01*
X120814833Y-58064838D01*
X120471057Y-58206883D01*
X120207808Y-58469673D01*
X120065162Y-58813201D01*
X120064838Y-59185167D01*
X97260000Y-59185167D01*
X97260000Y-56562463D01*
X97292192Y-56530327D01*
X97434838Y-56186799D01*
X97435162Y-55814833D01*
X97293117Y-55471057D01*
X97030327Y-55207808D01*
X96686799Y-55065162D01*
X96314833Y-55064838D01*
X95971057Y-55206883D01*
X95707808Y-55469673D01*
X95565162Y-55813201D01*
X95564838Y-56185167D01*
X95706883Y-56528943D01*
X95740000Y-56562118D01*
X95740000Y-60877791D01*
X95396702Y-60735241D01*
X94845715Y-60734760D01*
X94336485Y-60945169D01*
X93946539Y-61334436D01*
X93850024Y-61566870D01*
X93754831Y-61336485D01*
X93365564Y-60946539D01*
X93340000Y-60935924D01*
X93340000Y-60575704D01*
X93299650Y-60372853D01*
X93282148Y-60284864D01*
X93117401Y-60038303D01*
X92918039Y-59838941D01*
X93028943Y-59793117D01*
X93292192Y-59530327D01*
X93434838Y-59186799D01*
X93435162Y-58814833D01*
X93293117Y-58471057D01*
X93030327Y-58207808D01*
X92686799Y-58065162D01*
X92314833Y-58064838D01*
X92092292Y-58156790D01*
X92092292Y-50650000D01*
X116002560Y-50650000D01*
X116002560Y-52350000D01*
X116046838Y-52585317D01*
X116185910Y-52801441D01*
X116398110Y-52946431D01*
X116650000Y-52997440D01*
X118350000Y-52997440D01*
X118585317Y-52953162D01*
X118801441Y-52814090D01*
X118946431Y-52601890D01*
X118960086Y-52534459D01*
X118989946Y-52579147D01*
X119471715Y-52901054D01*
X120040000Y-53014093D01*
X120608285Y-52901054D01*
X121090054Y-52579147D01*
X121317702Y-52238447D01*
X121384817Y-52381358D01*
X121813076Y-52771645D01*
X122223110Y-52941476D01*
X122453000Y-52820155D01*
X122453000Y-51627000D01*
X122707000Y-51627000D01*
X122707000Y-52820155D01*
X122936890Y-52941476D01*
X123346924Y-52771645D01*
X123775183Y-52381358D01*
X124021486Y-51856892D01*
X123900819Y-51627000D01*
X122707000Y-51627000D01*
X122453000Y-51627000D01*
X122433000Y-51627000D01*
X122433000Y-51373000D01*
X122453000Y-51373000D01*
X122453000Y-50179845D01*
X122707000Y-50179845D01*
X122707000Y-51373000D01*
X123900819Y-51373000D01*
X124021486Y-51143108D01*
X123775183Y-50618642D01*
X123346924Y-50228355D01*
X122936890Y-50058524D01*
X122707000Y-50179845D01*
X122453000Y-50179845D01*
X122223110Y-50058524D01*
X121813076Y-50228355D01*
X121384817Y-50618642D01*
X121317702Y-50761553D01*
X121090054Y-50420853D01*
X120608285Y-50098946D01*
X120040000Y-49985907D01*
X119471715Y-50098946D01*
X118989946Y-50420853D01*
X118962150Y-50462452D01*
X118953162Y-50414683D01*
X118814090Y-50198559D01*
X118601890Y-50053569D01*
X118350000Y-50002560D01*
X116650000Y-50002560D01*
X116414683Y-50046838D01*
X116198559Y-50185910D01*
X116053569Y-50398110D01*
X116002560Y-50650000D01*
X92092292Y-50650000D01*
X92092292Y-48442510D01*
X92279800Y-48255002D01*
X92303298Y-48264759D01*
X92854285Y-48265240D01*
X93363515Y-48054831D01*
X93753461Y-47665564D01*
X93849976Y-47433130D01*
X93945169Y-47663515D01*
X94334436Y-48053461D01*
X94843298Y-48264759D01*
X95394285Y-48265240D01*
X95903515Y-48054831D01*
X96293461Y-47665564D01*
X96504759Y-47156702D01*
X96505240Y-46605715D01*
X96294831Y-46096485D01*
X95905564Y-45706539D01*
X95396702Y-45495241D01*
X94845715Y-45494760D01*
X94336485Y-45705169D01*
X93946539Y-46094436D01*
X93850024Y-46326870D01*
X93754831Y-46096485D01*
X93365564Y-45706539D01*
X92856702Y-45495241D01*
X92305715Y-45494760D01*
X91796485Y-45705169D01*
X91406539Y-46094436D01*
X91310024Y-46326870D01*
X91214831Y-46096485D01*
X90825564Y-45706539D01*
X90316702Y-45495241D01*
X89765715Y-45494760D01*
X89256485Y-45705169D01*
X88866539Y-46094436D01*
X88770024Y-46326870D01*
X88674831Y-46096485D01*
X88285564Y-45706539D01*
X87776702Y-45495241D01*
X87225715Y-45494760D01*
X86716485Y-45705169D01*
X86326539Y-46094436D01*
X86230024Y-46326870D01*
X86134831Y-46096485D01*
X85745564Y-45706539D01*
X85236702Y-45495241D01*
X84685715Y-45494760D01*
X84176485Y-45705169D01*
X83786539Y-46094436D01*
X83690024Y-46326870D01*
X83594831Y-46096485D01*
X83205564Y-45706539D01*
X82696702Y-45495241D01*
X82145715Y-45494760D01*
X81636485Y-45705169D01*
X81246539Y-46094436D01*
X81150024Y-46326870D01*
X81054831Y-46096485D01*
X80665564Y-45706539D01*
X80156702Y-45495241D01*
X79605715Y-45494760D01*
X79096485Y-45705169D01*
X78706539Y-46094436D01*
X78495241Y-46603298D01*
X78494760Y-47154285D01*
X78705169Y-47663515D01*
X79094436Y-48053461D01*
X79603298Y-48264759D01*
X80154285Y-48265240D01*
X80663515Y-48054831D01*
X81053461Y-47665564D01*
X81149976Y-47433130D01*
X81245169Y-47663515D01*
X81634436Y-48053461D01*
X81660000Y-48064076D01*
X81660000Y-57424999D01*
X81717852Y-57715838D01*
X81882599Y-57962400D01*
X82689328Y-58769129D01*
X82689288Y-58814616D01*
X82831333Y-59158392D01*
X82864450Y-59191567D01*
X82864450Y-60804896D01*
X82696702Y-60735241D01*
X82145715Y-60734760D01*
X81636485Y-60945169D01*
X81246539Y-61334436D01*
X81150024Y-61566870D01*
X81054831Y-61336485D01*
X80665564Y-60946539D01*
X80156702Y-60735241D01*
X79605715Y-60734760D01*
X79096485Y-60945169D01*
X78706539Y-61334436D01*
X78495241Y-61843298D01*
X78494760Y-62394285D01*
X78505330Y-62419868D01*
X78267598Y-62657600D01*
X78102851Y-62904162D01*
X78044999Y-63195001D01*
X64999485Y-63195001D01*
X64686799Y-63065162D01*
X64314833Y-63064838D01*
X63971057Y-63206883D01*
X63937882Y-63240000D01*
X54062463Y-63240000D01*
X54030327Y-63207808D01*
X53914917Y-63159885D01*
X54139680Y-62935122D01*
X54185167Y-62935162D01*
X54528943Y-62793117D01*
X54792192Y-62530327D01*
X54934838Y-62186799D01*
X54935162Y-61814833D01*
X54793117Y-61471057D01*
X54530327Y-61207808D01*
X54186799Y-61065162D01*
X53814833Y-61064838D01*
X53471057Y-61206883D01*
X53207808Y-61469673D01*
X53065162Y-61813201D01*
X53065121Y-61860077D01*
X52760000Y-62165198D01*
X52760000Y-60562463D01*
X52792192Y-60530327D01*
X52934838Y-60186799D01*
X52935162Y-59814833D01*
X52793117Y-59471057D01*
X52530327Y-59207808D01*
X52186799Y-59065162D01*
X51814833Y-59064838D01*
X51471057Y-59206883D01*
X51207808Y-59469673D01*
X51065162Y-59813201D01*
X51064838Y-60185167D01*
X51206883Y-60528943D01*
X51240000Y-60562118D01*
X51240000Y-65937537D01*
X51207808Y-65969673D01*
X51065162Y-66313201D01*
X51064838Y-66685167D01*
X51206883Y-67028943D01*
X51301486Y-67123712D01*
X49360320Y-69064878D01*
X49314833Y-69064838D01*
X48971057Y-69206883D01*
X48707808Y-69469673D01*
X48565162Y-69813201D01*
X48564838Y-70185167D01*
X48210000Y-70185167D01*
X48210000Y-58685167D01*
X61564838Y-58685167D01*
X61706883Y-59028943D01*
X61969673Y-59292192D01*
X62065146Y-59331836D01*
X62064838Y-59685167D01*
X62206883Y-60028943D01*
X62469673Y-60292192D01*
X62813201Y-60434838D01*
X63185167Y-60435162D01*
X63528943Y-60293117D01*
X63562118Y-60260000D01*
X67937537Y-60260000D01*
X67969673Y-60292192D01*
X68313201Y-60434838D01*
X68685167Y-60435162D01*
X69028943Y-60293117D01*
X69292192Y-60030327D01*
X69434838Y-59686799D01*
X69435057Y-59434944D01*
X69685167Y-59435162D01*
X70028943Y-59293117D01*
X70292192Y-59030327D01*
X70434838Y-58686799D01*
X70435162Y-58314833D01*
X70293117Y-57971057D01*
X70030327Y-57707808D01*
X69686799Y-57565162D01*
X69314833Y-57564838D01*
X68971057Y-57706883D01*
X68937882Y-57740000D01*
X63062463Y-57740000D01*
X63030327Y-57707808D01*
X62686799Y-57565162D01*
X62314833Y-57564838D01*
X61971057Y-57706883D01*
X61707808Y-57969673D01*
X61565162Y-58313201D01*
X61564838Y-58685167D01*
X48210000Y-58685167D01*
X48210000Y-51150000D01*
X51002560Y-51150000D01*
X51002560Y-52850000D01*
X51046838Y-53085317D01*
X51185910Y-53301441D01*
X51398110Y-53446431D01*
X51650000Y-53497440D01*
X53350000Y-53497440D01*
X53585317Y-53453162D01*
X53801441Y-53314090D01*
X53946431Y-53101890D01*
X53960086Y-53034459D01*
X53989946Y-53079147D01*
X54471715Y-53401054D01*
X55040000Y-53514093D01*
X55608285Y-53401054D01*
X56090054Y-53079147D01*
X56317702Y-52738447D01*
X56384817Y-52881358D01*
X56813076Y-53271645D01*
X57223110Y-53441476D01*
X57453000Y-53320155D01*
X57453000Y-52127000D01*
X57707000Y-52127000D01*
X57707000Y-53320155D01*
X57936890Y-53441476D01*
X58346924Y-53271645D01*
X58775183Y-52881358D01*
X59021486Y-52356892D01*
X58900819Y-52127000D01*
X57707000Y-52127000D01*
X57453000Y-52127000D01*
X57433000Y-52127000D01*
X57433000Y-51873000D01*
X57453000Y-51873000D01*
X57453000Y-50679845D01*
X57707000Y-50679845D01*
X57707000Y-51873000D01*
X58900819Y-51873000D01*
X59021486Y-51643108D01*
X58775183Y-51118642D01*
X58346924Y-50728355D01*
X57936890Y-50558524D01*
X57707000Y-50679845D01*
X57453000Y-50679845D01*
X57223110Y-50558524D01*
X56813076Y-50728355D01*
X56384817Y-51118642D01*
X56317702Y-51261553D01*
X56090054Y-50920853D01*
X55608285Y-50598946D01*
X55040000Y-50485907D01*
X54471715Y-50598946D01*
X53989946Y-50920853D01*
X53962150Y-50962452D01*
X53953162Y-50914683D01*
X53814090Y-50698559D01*
X53601890Y-50553569D01*
X53350000Y-50502560D01*
X51650000Y-50502560D01*
X51414683Y-50546838D01*
X51198559Y-50685910D01*
X51053569Y-50898110D01*
X51002560Y-51150000D01*
X48210000Y-51150000D01*
X48210000Y-41210000D01*
X126790000Y-41210000D01*
X126790000Y-190290000D01*
M02*
