M48
;DRILL file {KiCad 4.0.4-stable} date Saturday, September 23, 2017 'PMt' 03:39:24 PM
;FORMAT={3:3/ absolute / metric / suppress leading zeros}
FMAT,2
METRIC,TZ
T1C0.400
T2C0.600
T3C0.800
T4C0.900
T5C1.000
T6C1.001
T7C1.100
T8C1.300
T9C2.000
%
G90
G05
M71
T1
X49500Y-70000
X52000Y-60000
X52000Y-66500
X53500Y-64000
X54000Y-62000
X55000Y-114000
X55500Y-74000
X56500Y-73000
X58000Y-68000
X58500Y-114000
X60500Y-69500
X62500Y-58500
X63000Y-59500
X64500Y-64000
X65000Y-84500
X68000Y-86500
X68000Y-97500
X68500Y-59500
X69000Y-107500
X69500Y-58500
X69500Y-98000
X69500Y-129500
X69500Y-132000
X72000Y-109000
X73500Y-102000
X74000Y-99625
X75000Y-108500
X75000Y-118500
X75500Y-128500
X77000Y-94000
X77000Y-99500
X77500Y-91500
X77625Y-103281
X78000Y-128500
X80500Y-118500
X81000Y-99000
X81046Y-99954
X83624Y-58629
X84685Y-99750
X85500Y-92000
X85500Y-104000
X85755Y-97375
X86500Y-100500
X86500Y-105000
X87000Y-85500
X87000Y-95500
X87500Y-98500
X88000Y-60500
X88000Y-95500
X88454Y-97341
X88500Y-85000
X89253Y-97387
X89529Y-95971
X89878Y-98478
X90000Y-71625
X91957Y-59953
X92100Y-102591
X92500Y-59000
X92926Y-101508
X93291Y-102755
X93375Y-93000
X94000Y-94000
X94000Y-97000
X94625Y-96434
X95000Y-94000
X95500Y-69934
X95500Y-71500
X95800Y-94000
X96075Y-93000
X96283Y-102250
X96500Y-56000
X96500Y-72000
X97566Y-104125
X98500Y-103500
X99000Y-108000
X100000Y-108500
X102000Y-114500
X103422Y-111578
X104000Y-129000
X104500Y-112000
X105500Y-112000
X106500Y-132500
X107000Y-111000
X108500Y-111500
X108500Y-126500
X112000Y-126500
X114500Y-96000
X114500Y-100500
X116500Y-88500
X116500Y-94000
X118000Y-70000
X118000Y-72500
X121000Y-59000
X121000Y-94000
X121000Y-95500
X121000Y-98500
X121500Y-49000
X123000Y-59000
X123000Y-62500
X123500Y-49000
X125000Y-94000
X126000Y-72000
T2
X79880Y-46880
X79880Y-62120
X79880Y-66380
X79880Y-81620
X82420Y-46880
X82420Y-62120
X82420Y-66380
X82420Y-81620
X84960Y-46880
X84960Y-62120
X84960Y-66380
X84960Y-81620
X87500Y-46880
X87500Y-62120
X87500Y-66380
X87500Y-81620
X90040Y-46880
X90040Y-62120
X90040Y-66380
X90040Y-81620
X92580Y-46880
X92580Y-62120
X92580Y-66380
X92580Y-81620
X95120Y-46880
X95120Y-62120
X95120Y-66380
X95120Y-81620
T3
X109500Y-108000
X111500Y-108000
X119000Y-88500
X121500Y-88500
T4
X62960Y-117500
X65500Y-117500
X68040Y-117500
X107000Y-118000
X109540Y-118000
X112080Y-118000
T5
X52500Y-52000
X55040Y-52000
X57580Y-52000
X59000Y-92460
X59000Y-95000
X59000Y-97540
X59000Y-100080
X85500Y-127500
X88040Y-127500
X97000Y-95460
X97000Y-98000
X97000Y-100540
X99540Y-95460
X99540Y-98000
X99540Y-100540
X117500Y-51500
X120040Y-51500
X122580Y-51500
T6
X109420Y-97000
X109420Y-102080
T7
X59750Y-129500
X59750Y-184500
X62250Y-129500
X64750Y-129500
X67250Y-184500
X67290Y-129500
X107750Y-129500
X107750Y-184500
X110250Y-129500
X112750Y-129500
X115250Y-184500
X115290Y-129500
T8
X51920Y-124250
X52000Y-111500
X57000Y-111500
X57000Y-124250
X73920Y-124250
X74000Y-111500
X79000Y-111500
X79000Y-124250
X95920Y-124250
X96000Y-111500
X101000Y-111500
X101000Y-124250
X117920Y-124250
X118000Y-111500
X123000Y-111500
X123000Y-124250
T9
X63500Y-140750
X63500Y-173250
X111500Y-140750
X111500Y-173250
T0
M30
