G04 #@! TF.FileFunction,Legend,Top*
%FSLAX46Y46*%
G04 Gerber Fmt 4.6, Leading zero omitted, Abs format (unit mm)*
G04 Created by KiCad (PCBNEW 4.0.4-stable) date Saturday, September 23, 2017 'PMt' 01:19:15 PM*
%MOMM*%
%LPD*%
G01*
G04 APERTURE LIST*
%ADD10C,0.100000*%
%ADD11C,0.150000*%
%ADD12C,0.120000*%
G04 APERTURE END LIST*
D10*
D11*
X60500000Y-112000000D02*
X59000000Y-112000000D01*
X60500000Y-124000000D02*
X59000000Y-124000000D01*
X48500000Y-124000000D02*
X50000000Y-124000000D01*
X48500000Y-112000000D02*
X50000000Y-112000000D01*
X60500000Y-124000000D02*
X60500000Y-112000000D01*
X48500000Y-124000000D02*
X48500000Y-112000000D01*
D12*
X112805722Y-106820277D02*
G75*
G03X108194420Y-106820000I-2305722J-1179723D01*
G01*
X112805722Y-109179723D02*
G75*
G02X108194420Y-109180000I-2305722J1179723D01*
G01*
X112805722Y-109179723D02*
G75*
G03X112805580Y-106820000I-2305722J1179723D01*
G01*
X110500000Y-105450000D02*
X110500000Y-110550000D01*
X110540000Y-105450000D02*
X110540000Y-107020000D01*
X110540000Y-108980000D02*
X110540000Y-110550000D01*
X110580000Y-105451000D02*
X110580000Y-107020000D01*
X110580000Y-108980000D02*
X110580000Y-110549000D01*
X110620000Y-105452000D02*
X110620000Y-107020000D01*
X110620000Y-108980000D02*
X110620000Y-110548000D01*
X110660000Y-105454000D02*
X110660000Y-107020000D01*
X110660000Y-108980000D02*
X110660000Y-110546000D01*
X110700000Y-105457000D02*
X110700000Y-107020000D01*
X110700000Y-108980000D02*
X110700000Y-110543000D01*
X110740000Y-105461000D02*
X110740000Y-107020000D01*
X110740000Y-108980000D02*
X110740000Y-110539000D01*
X110780000Y-105465000D02*
X110780000Y-107020000D01*
X110780000Y-108980000D02*
X110780000Y-110535000D01*
X110820000Y-105469000D02*
X110820000Y-107020000D01*
X110820000Y-108980000D02*
X110820000Y-110531000D01*
X110860000Y-105475000D02*
X110860000Y-107020000D01*
X110860000Y-108980000D02*
X110860000Y-110525000D01*
X110900000Y-105481000D02*
X110900000Y-107020000D01*
X110900000Y-108980000D02*
X110900000Y-110519000D01*
X110940000Y-105487000D02*
X110940000Y-107020000D01*
X110940000Y-108980000D02*
X110940000Y-110513000D01*
X110980000Y-105494000D02*
X110980000Y-107020000D01*
X110980000Y-108980000D02*
X110980000Y-110506000D01*
X111020000Y-105502000D02*
X111020000Y-107020000D01*
X111020000Y-108980000D02*
X111020000Y-110498000D01*
X111060000Y-105511000D02*
X111060000Y-107020000D01*
X111060000Y-108980000D02*
X111060000Y-110489000D01*
X111100000Y-105520000D02*
X111100000Y-107020000D01*
X111100000Y-108980000D02*
X111100000Y-110480000D01*
X111140000Y-105530000D02*
X111140000Y-107020000D01*
X111140000Y-108980000D02*
X111140000Y-110470000D01*
X111180000Y-105540000D02*
X111180000Y-107020000D01*
X111180000Y-108980000D02*
X111180000Y-110460000D01*
X111221000Y-105552000D02*
X111221000Y-107020000D01*
X111221000Y-108980000D02*
X111221000Y-110448000D01*
X111261000Y-105564000D02*
X111261000Y-107020000D01*
X111261000Y-108980000D02*
X111261000Y-110436000D01*
X111301000Y-105576000D02*
X111301000Y-107020000D01*
X111301000Y-108980000D02*
X111301000Y-110424000D01*
X111341000Y-105590000D02*
X111341000Y-107020000D01*
X111341000Y-108980000D02*
X111341000Y-110410000D01*
X111381000Y-105604000D02*
X111381000Y-107020000D01*
X111381000Y-108980000D02*
X111381000Y-110396000D01*
X111421000Y-105618000D02*
X111421000Y-107020000D01*
X111421000Y-108980000D02*
X111421000Y-110382000D01*
X111461000Y-105634000D02*
X111461000Y-107020000D01*
X111461000Y-108980000D02*
X111461000Y-110366000D01*
X111501000Y-105650000D02*
X111501000Y-107020000D01*
X111501000Y-108980000D02*
X111501000Y-110350000D01*
X111541000Y-105667000D02*
X111541000Y-107020000D01*
X111541000Y-108980000D02*
X111541000Y-110333000D01*
X111581000Y-105685000D02*
X111581000Y-107020000D01*
X111581000Y-108980000D02*
X111581000Y-110315000D01*
X111621000Y-105704000D02*
X111621000Y-107020000D01*
X111621000Y-108980000D02*
X111621000Y-110296000D01*
X111661000Y-105724000D02*
X111661000Y-107020000D01*
X111661000Y-108980000D02*
X111661000Y-110276000D01*
X111701000Y-105744000D02*
X111701000Y-107020000D01*
X111701000Y-108980000D02*
X111701000Y-110256000D01*
X111741000Y-105766000D02*
X111741000Y-107020000D01*
X111741000Y-108980000D02*
X111741000Y-110234000D01*
X111781000Y-105788000D02*
X111781000Y-107020000D01*
X111781000Y-108980000D02*
X111781000Y-110212000D01*
X111821000Y-105811000D02*
X111821000Y-107020000D01*
X111821000Y-108980000D02*
X111821000Y-110189000D01*
X111861000Y-105835000D02*
X111861000Y-107020000D01*
X111861000Y-108980000D02*
X111861000Y-110165000D01*
X111901000Y-105860000D02*
X111901000Y-107020000D01*
X111901000Y-108980000D02*
X111901000Y-110140000D01*
X111941000Y-105887000D02*
X111941000Y-107020000D01*
X111941000Y-108980000D02*
X111941000Y-110113000D01*
X111981000Y-105914000D02*
X111981000Y-107020000D01*
X111981000Y-108980000D02*
X111981000Y-110086000D01*
X112021000Y-105942000D02*
X112021000Y-107020000D01*
X112021000Y-108980000D02*
X112021000Y-110058000D01*
X112061000Y-105972000D02*
X112061000Y-107020000D01*
X112061000Y-108980000D02*
X112061000Y-110028000D01*
X112101000Y-106003000D02*
X112101000Y-107020000D01*
X112101000Y-108980000D02*
X112101000Y-109997000D01*
X112141000Y-106035000D02*
X112141000Y-107020000D01*
X112141000Y-108980000D02*
X112141000Y-109965000D01*
X112181000Y-106068000D02*
X112181000Y-107020000D01*
X112181000Y-108980000D02*
X112181000Y-109932000D01*
X112221000Y-106103000D02*
X112221000Y-107020000D01*
X112221000Y-108980000D02*
X112221000Y-109897000D01*
X112261000Y-106139000D02*
X112261000Y-107020000D01*
X112261000Y-108980000D02*
X112261000Y-109861000D01*
X112301000Y-106177000D02*
X112301000Y-107020000D01*
X112301000Y-108980000D02*
X112301000Y-109823000D01*
X112341000Y-106217000D02*
X112341000Y-107020000D01*
X112341000Y-108980000D02*
X112341000Y-109783000D01*
X112381000Y-106258000D02*
X112381000Y-107020000D01*
X112381000Y-108980000D02*
X112381000Y-109742000D01*
X112421000Y-106301000D02*
X112421000Y-107020000D01*
X112421000Y-108980000D02*
X112421000Y-109699000D01*
X112461000Y-106346000D02*
X112461000Y-107020000D01*
X112461000Y-108980000D02*
X112461000Y-109654000D01*
X112501000Y-106394000D02*
X112501000Y-109606000D01*
X112541000Y-106444000D02*
X112541000Y-109556000D01*
X112581000Y-106496000D02*
X112581000Y-109504000D01*
X112621000Y-106552000D02*
X112621000Y-109448000D01*
X112661000Y-106610000D02*
X112661000Y-109390000D01*
X112701000Y-106673000D02*
X112701000Y-109327000D01*
X112741000Y-106739000D02*
X112741000Y-109261000D01*
X112781000Y-106811000D02*
X112781000Y-109189000D01*
X112821000Y-106888000D02*
X112821000Y-109112000D01*
X112861000Y-106972000D02*
X112861000Y-109028000D01*
X112901000Y-107066000D02*
X112901000Y-108934000D01*
X112941000Y-107171000D02*
X112941000Y-108829000D01*
X112981000Y-107293000D02*
X112981000Y-108707000D01*
X113021000Y-107441000D02*
X113021000Y-108559000D01*
X113061000Y-107646000D02*
X113061000Y-108354000D01*
X107300000Y-108000000D02*
X108500000Y-108000000D01*
X107900000Y-107350000D02*
X107900000Y-108650000D01*
X123267820Y-87320864D02*
G75*
G03X117232518Y-87320000I-3017820J-1179136D01*
G01*
X123267820Y-89679136D02*
G75*
G02X117232518Y-89680000I-3017820J1179136D01*
G01*
X123267820Y-89679136D02*
G75*
G03X123267482Y-87320000I-3017820J1179136D01*
G01*
X120250000Y-85300000D02*
X120250000Y-91700000D01*
X120290000Y-85300000D02*
X120290000Y-91700000D01*
X120330000Y-85300000D02*
X120330000Y-91700000D01*
X120370000Y-85302000D02*
X120370000Y-91698000D01*
X120410000Y-85303000D02*
X120410000Y-91697000D01*
X120450000Y-85306000D02*
X120450000Y-91694000D01*
X120490000Y-85308000D02*
X120490000Y-91692000D01*
X120530000Y-85312000D02*
X120530000Y-87520000D01*
X120530000Y-89480000D02*
X120530000Y-91688000D01*
X120570000Y-85315000D02*
X120570000Y-87520000D01*
X120570000Y-89480000D02*
X120570000Y-91685000D01*
X120610000Y-85320000D02*
X120610000Y-87520000D01*
X120610000Y-89480000D02*
X120610000Y-91680000D01*
X120650000Y-85324000D02*
X120650000Y-87520000D01*
X120650000Y-89480000D02*
X120650000Y-91676000D01*
X120690000Y-85330000D02*
X120690000Y-87520000D01*
X120690000Y-89480000D02*
X120690000Y-91670000D01*
X120730000Y-85335000D02*
X120730000Y-87520000D01*
X120730000Y-89480000D02*
X120730000Y-91665000D01*
X120770000Y-85342000D02*
X120770000Y-87520000D01*
X120770000Y-89480000D02*
X120770000Y-91658000D01*
X120810000Y-85348000D02*
X120810000Y-87520000D01*
X120810000Y-89480000D02*
X120810000Y-91652000D01*
X120850000Y-85356000D02*
X120850000Y-87520000D01*
X120850000Y-89480000D02*
X120850000Y-91644000D01*
X120890000Y-85363000D02*
X120890000Y-87520000D01*
X120890000Y-89480000D02*
X120890000Y-91637000D01*
X120930000Y-85372000D02*
X120930000Y-87520000D01*
X120930000Y-89480000D02*
X120930000Y-91628000D01*
X120971000Y-85381000D02*
X120971000Y-87520000D01*
X120971000Y-89480000D02*
X120971000Y-91619000D01*
X121011000Y-85390000D02*
X121011000Y-87520000D01*
X121011000Y-89480000D02*
X121011000Y-91610000D01*
X121051000Y-85400000D02*
X121051000Y-87520000D01*
X121051000Y-89480000D02*
X121051000Y-91600000D01*
X121091000Y-85410000D02*
X121091000Y-87520000D01*
X121091000Y-89480000D02*
X121091000Y-91590000D01*
X121131000Y-85421000D02*
X121131000Y-87520000D01*
X121131000Y-89480000D02*
X121131000Y-91579000D01*
X121171000Y-85433000D02*
X121171000Y-87520000D01*
X121171000Y-89480000D02*
X121171000Y-91567000D01*
X121211000Y-85445000D02*
X121211000Y-87520000D01*
X121211000Y-89480000D02*
X121211000Y-91555000D01*
X121251000Y-85458000D02*
X121251000Y-87520000D01*
X121251000Y-89480000D02*
X121251000Y-91542000D01*
X121291000Y-85471000D02*
X121291000Y-87520000D01*
X121291000Y-89480000D02*
X121291000Y-91529000D01*
X121331000Y-85485000D02*
X121331000Y-87520000D01*
X121331000Y-89480000D02*
X121331000Y-91515000D01*
X121371000Y-85499000D02*
X121371000Y-87520000D01*
X121371000Y-89480000D02*
X121371000Y-91501000D01*
X121411000Y-85514000D02*
X121411000Y-87520000D01*
X121411000Y-89480000D02*
X121411000Y-91486000D01*
X121451000Y-85530000D02*
X121451000Y-87520000D01*
X121451000Y-89480000D02*
X121451000Y-91470000D01*
X121491000Y-85546000D02*
X121491000Y-87520000D01*
X121491000Y-89480000D02*
X121491000Y-91454000D01*
X121531000Y-85563000D02*
X121531000Y-87520000D01*
X121531000Y-89480000D02*
X121531000Y-91437000D01*
X121571000Y-85581000D02*
X121571000Y-87520000D01*
X121571000Y-89480000D02*
X121571000Y-91419000D01*
X121611000Y-85599000D02*
X121611000Y-87520000D01*
X121611000Y-89480000D02*
X121611000Y-91401000D01*
X121651000Y-85618000D02*
X121651000Y-87520000D01*
X121651000Y-89480000D02*
X121651000Y-91382000D01*
X121691000Y-85637000D02*
X121691000Y-87520000D01*
X121691000Y-89480000D02*
X121691000Y-91363000D01*
X121731000Y-85657000D02*
X121731000Y-87520000D01*
X121731000Y-89480000D02*
X121731000Y-91343000D01*
X121771000Y-85678000D02*
X121771000Y-87520000D01*
X121771000Y-89480000D02*
X121771000Y-91322000D01*
X121811000Y-85700000D02*
X121811000Y-87520000D01*
X121811000Y-89480000D02*
X121811000Y-91300000D01*
X121851000Y-85722000D02*
X121851000Y-87520000D01*
X121851000Y-89480000D02*
X121851000Y-91278000D01*
X121891000Y-85745000D02*
X121891000Y-87520000D01*
X121891000Y-89480000D02*
X121891000Y-91255000D01*
X121931000Y-85769000D02*
X121931000Y-87520000D01*
X121931000Y-89480000D02*
X121931000Y-91231000D01*
X121971000Y-85794000D02*
X121971000Y-87520000D01*
X121971000Y-89480000D02*
X121971000Y-91206000D01*
X122011000Y-85819000D02*
X122011000Y-87520000D01*
X122011000Y-89480000D02*
X122011000Y-91181000D01*
X122051000Y-85846000D02*
X122051000Y-87520000D01*
X122051000Y-89480000D02*
X122051000Y-91154000D01*
X122091000Y-85873000D02*
X122091000Y-87520000D01*
X122091000Y-89480000D02*
X122091000Y-91127000D01*
X122131000Y-85901000D02*
X122131000Y-87520000D01*
X122131000Y-89480000D02*
X122131000Y-91099000D01*
X122171000Y-85930000D02*
X122171000Y-87520000D01*
X122171000Y-89480000D02*
X122171000Y-91070000D01*
X122211000Y-85960000D02*
X122211000Y-87520000D01*
X122211000Y-89480000D02*
X122211000Y-91040000D01*
X122251000Y-85990000D02*
X122251000Y-87520000D01*
X122251000Y-89480000D02*
X122251000Y-91010000D01*
X122291000Y-86022000D02*
X122291000Y-87520000D01*
X122291000Y-89480000D02*
X122291000Y-90978000D01*
X122331000Y-86055000D02*
X122331000Y-87520000D01*
X122331000Y-89480000D02*
X122331000Y-90945000D01*
X122371000Y-86089000D02*
X122371000Y-87520000D01*
X122371000Y-89480000D02*
X122371000Y-90911000D01*
X122411000Y-86125000D02*
X122411000Y-87520000D01*
X122411000Y-89480000D02*
X122411000Y-90875000D01*
X122451000Y-86161000D02*
X122451000Y-87520000D01*
X122451000Y-89480000D02*
X122451000Y-90839000D01*
X122491000Y-86199000D02*
X122491000Y-90801000D01*
X122531000Y-86238000D02*
X122531000Y-90762000D01*
X122571000Y-86278000D02*
X122571000Y-90722000D01*
X122611000Y-86320000D02*
X122611000Y-90680000D01*
X122651000Y-86363000D02*
X122651000Y-90637000D01*
X122691000Y-86408000D02*
X122691000Y-90592000D01*
X122731000Y-86455000D02*
X122731000Y-90545000D01*
X122771000Y-86503000D02*
X122771000Y-90497000D01*
X122811000Y-86554000D02*
X122811000Y-90446000D01*
X122851000Y-86606000D02*
X122851000Y-90394000D01*
X122891000Y-86661000D02*
X122891000Y-90339000D01*
X122931000Y-86719000D02*
X122931000Y-90281000D01*
X122971000Y-86779000D02*
X122971000Y-90221000D01*
X123011000Y-86842000D02*
X123011000Y-90158000D01*
X123051000Y-86909000D02*
X123051000Y-90091000D01*
X123091000Y-86980000D02*
X123091000Y-90020000D01*
X123131000Y-87055000D02*
X123131000Y-89945000D01*
X123171000Y-87136000D02*
X123171000Y-89864000D01*
X123211000Y-87222000D02*
X123211000Y-89778000D01*
X123251000Y-87316000D02*
X123251000Y-89684000D01*
X123291000Y-87419000D02*
X123291000Y-89581000D01*
X123331000Y-87534000D02*
X123331000Y-89466000D01*
X123371000Y-87666000D02*
X123371000Y-89334000D01*
X123411000Y-87824000D02*
X123411000Y-89176000D01*
X123451000Y-88032000D02*
X123451000Y-88968000D01*
X116800000Y-88500000D02*
X118000000Y-88500000D01*
X117400000Y-87850000D02*
X117400000Y-89150000D01*
X84500000Y-91520000D02*
X86500000Y-91520000D01*
X86500000Y-89480000D02*
X84500000Y-89480000D01*
X121000000Y-73520000D02*
X123000000Y-73520000D01*
X123000000Y-71480000D02*
X121000000Y-71480000D01*
X86000000Y-106520000D02*
X88000000Y-106520000D01*
X88000000Y-104480000D02*
X86000000Y-104480000D01*
X116400000Y-93150000D02*
X116400000Y-89850000D01*
X116400000Y-89850000D02*
X109500000Y-89850000D01*
X116400000Y-93150000D02*
X109500000Y-93150000D01*
D11*
X114500000Y-97000000D02*
X110944000Y-97000000D01*
X114500000Y-102080000D02*
X110944000Y-102080000D01*
X106880000Y-97000000D02*
X107896000Y-97000000D01*
X106880000Y-102080000D02*
X107896000Y-102080000D01*
X104340000Y-97000000D02*
X106880000Y-97000000D01*
X104340000Y-102080000D02*
X106880000Y-102080000D01*
X104340000Y-97000000D02*
X104340000Y-102080000D01*
X114500000Y-102080000D02*
X114500000Y-97000000D01*
D12*
X62712185Y-118580827D02*
G75*
G03X68060000Y-119044830I2787815J1080827D01*
G01*
X62712185Y-116419173D02*
G75*
G02X68060000Y-115955170I2787815J-1080827D01*
G01*
X63245521Y-118580429D02*
G75*
G03X67754684Y-118580000I2254479J1080429D01*
G01*
X63245521Y-116419571D02*
G75*
G02X67754684Y-116420000I2254479J-1080429D01*
G01*
X68060000Y-119045000D02*
X68060000Y-118580000D01*
X68060000Y-116420000D02*
X68060000Y-115955000D01*
X106752185Y-119080827D02*
G75*
G03X112100000Y-119544830I2787815J1080827D01*
G01*
X106752185Y-116919173D02*
G75*
G02X112100000Y-116455170I2787815J-1080827D01*
G01*
X107285521Y-119080429D02*
G75*
G03X111794684Y-119080000I2254479J1080429D01*
G01*
X107285521Y-116919571D02*
G75*
G02X111794684Y-116920000I2254479J-1080429D01*
G01*
X112100000Y-119545000D02*
X112100000Y-119080000D01*
X112100000Y-116920000D02*
X112100000Y-116455000D01*
D11*
X112600000Y-64500000D02*
X112600000Y-83500000D01*
X62400000Y-64500000D02*
X62400000Y-83500000D01*
X62400000Y-64500000D02*
X112600000Y-64500000D01*
X62400000Y-83500000D02*
X112600000Y-83500000D01*
X112600000Y-45000000D02*
X112600000Y-64000000D01*
X62400000Y-45000000D02*
X62400000Y-64000000D01*
X62400000Y-45000000D02*
X112600000Y-45000000D01*
X62400000Y-64000000D02*
X112600000Y-64000000D01*
D12*
X89370000Y-128830000D02*
X89370000Y-126170000D01*
X86770000Y-128830000D02*
X89370000Y-128830000D01*
X86770000Y-126170000D02*
X89370000Y-126170000D01*
X86770000Y-128830000D02*
X86770000Y-126170000D01*
X85500000Y-128830000D02*
X84170000Y-128830000D01*
X84170000Y-128830000D02*
X84170000Y-127500000D01*
X95670000Y-101870000D02*
X100870000Y-101870000D01*
X95670000Y-96730000D02*
X95670000Y-101870000D01*
X100870000Y-94130000D02*
X100870000Y-101870000D01*
X95670000Y-96730000D02*
X98270000Y-96730000D01*
X98270000Y-96730000D02*
X98270000Y-94130000D01*
X98270000Y-94130000D02*
X100870000Y-94130000D01*
X95670000Y-95460000D02*
X95670000Y-94130000D01*
X95670000Y-94130000D02*
X97000000Y-94130000D01*
X51170000Y-50560000D02*
X58910000Y-50560000D01*
X58910000Y-50560000D02*
X58910000Y-47900000D01*
X58910000Y-47900000D02*
X51170000Y-47900000D01*
X51170000Y-47900000D02*
X51170000Y-50560000D01*
X52120000Y-47900000D02*
X52120000Y-41900000D01*
X52120000Y-41900000D02*
X52880000Y-41900000D01*
X52880000Y-41900000D02*
X52880000Y-47900000D01*
X52180000Y-47900000D02*
X52180000Y-41900000D01*
X52300000Y-47900000D02*
X52300000Y-41900000D01*
X52420000Y-47900000D02*
X52420000Y-41900000D01*
X52540000Y-47900000D02*
X52540000Y-41900000D01*
X52660000Y-47900000D02*
X52660000Y-41900000D01*
X52780000Y-47900000D02*
X52780000Y-41900000D01*
X52120000Y-50890000D02*
X52120000Y-50560000D01*
X52880000Y-50890000D02*
X52880000Y-50560000D01*
X53770000Y-50560000D02*
X53770000Y-47900000D01*
X54660000Y-47900000D02*
X54660000Y-41900000D01*
X54660000Y-41900000D02*
X55420000Y-41900000D01*
X55420000Y-41900000D02*
X55420000Y-47900000D01*
X54660000Y-50957071D02*
X54660000Y-50560000D01*
X55420000Y-50957071D02*
X55420000Y-50560000D01*
X56310000Y-50560000D02*
X56310000Y-47900000D01*
X57200000Y-47900000D02*
X57200000Y-41900000D01*
X57200000Y-41900000D02*
X57960000Y-41900000D01*
X57960000Y-41900000D02*
X57960000Y-47900000D01*
X57200000Y-50957071D02*
X57200000Y-50560000D01*
X57960000Y-50957071D02*
X57960000Y-50560000D01*
X52500000Y-53270000D02*
X51230000Y-53270000D01*
X51230000Y-53270000D02*
X51230000Y-52000000D01*
X116170000Y-50060000D02*
X123910000Y-50060000D01*
X123910000Y-50060000D02*
X123910000Y-47400000D01*
X123910000Y-47400000D02*
X116170000Y-47400000D01*
X116170000Y-47400000D02*
X116170000Y-50060000D01*
X117120000Y-47400000D02*
X117120000Y-41400000D01*
X117120000Y-41400000D02*
X117880000Y-41400000D01*
X117880000Y-41400000D02*
X117880000Y-47400000D01*
X117180000Y-47400000D02*
X117180000Y-41400000D01*
X117300000Y-47400000D02*
X117300000Y-41400000D01*
X117420000Y-47400000D02*
X117420000Y-41400000D01*
X117540000Y-47400000D02*
X117540000Y-41400000D01*
X117660000Y-47400000D02*
X117660000Y-41400000D01*
X117780000Y-47400000D02*
X117780000Y-41400000D01*
X117120000Y-50390000D02*
X117120000Y-50060000D01*
X117880000Y-50390000D02*
X117880000Y-50060000D01*
X118770000Y-50060000D02*
X118770000Y-47400000D01*
X119660000Y-47400000D02*
X119660000Y-41400000D01*
X119660000Y-41400000D02*
X120420000Y-41400000D01*
X120420000Y-41400000D02*
X120420000Y-47400000D01*
X119660000Y-50457071D02*
X119660000Y-50060000D01*
X120420000Y-50457071D02*
X120420000Y-50060000D01*
X121310000Y-50060000D02*
X121310000Y-47400000D01*
X122200000Y-47400000D02*
X122200000Y-41400000D01*
X122200000Y-41400000D02*
X122960000Y-41400000D01*
X122960000Y-41400000D02*
X122960000Y-47400000D01*
X122200000Y-50457071D02*
X122200000Y-50060000D01*
X122960000Y-50457071D02*
X122960000Y-50060000D01*
X117500000Y-52770000D02*
X116230000Y-52770000D01*
X116230000Y-52770000D02*
X116230000Y-51500000D01*
X57670000Y-101410000D02*
X60330000Y-101410000D01*
X57670000Y-93730000D02*
X57670000Y-101410000D01*
X60330000Y-93730000D02*
X60330000Y-101410000D01*
X57670000Y-93730000D02*
X60330000Y-93730000D01*
X57670000Y-92460000D02*
X57670000Y-91130000D01*
X57670000Y-91130000D02*
X59000000Y-91130000D01*
X83920000Y-120260000D02*
X84850000Y-120260000D01*
X87080000Y-120260000D02*
X86150000Y-120260000D01*
X87080000Y-120260000D02*
X87080000Y-117100000D01*
X83920000Y-120260000D02*
X83920000Y-118800000D01*
X80070000Y-99500000D02*
X80070000Y-101500000D01*
X77930000Y-101500000D02*
X77930000Y-99500000D01*
X121930000Y-98000000D02*
X121930000Y-96000000D01*
X124070000Y-96000000D02*
X124070000Y-98000000D01*
X88930000Y-121000000D02*
X88930000Y-119000000D01*
X91070000Y-119000000D02*
X91070000Y-121000000D01*
X116550000Y-63170000D02*
X114450000Y-63170000D01*
X116550000Y-57830000D02*
X114450000Y-57830000D01*
X116550000Y-69170000D02*
X114450000Y-69170000D01*
X116550000Y-63830000D02*
X114450000Y-63830000D01*
X75050000Y-104330000D02*
X72950000Y-104330000D01*
X75050000Y-98990000D02*
X72950000Y-98990000D01*
D11*
X59000000Y-186000000D02*
X59000000Y-187000000D01*
X59000000Y-131000000D02*
X59000000Y-183000000D01*
X59000000Y-127000000D02*
X59000000Y-128000000D01*
X68000000Y-127000000D02*
X59000000Y-127000000D01*
X68000000Y-128000000D02*
X68000000Y-127000000D01*
X68000000Y-187000000D02*
X68000000Y-186000000D01*
X68000000Y-183000000D02*
X68000000Y-131000000D01*
X68000000Y-187000000D02*
X59000000Y-187000000D01*
X107000000Y-186000000D02*
X107000000Y-187000000D01*
X107000000Y-131000000D02*
X107000000Y-183000000D01*
X107000000Y-127000000D02*
X107000000Y-128000000D01*
X116000000Y-127000000D02*
X107000000Y-127000000D01*
X116000000Y-128000000D02*
X116000000Y-127000000D01*
X116000000Y-187000000D02*
X116000000Y-186000000D01*
X116000000Y-183000000D02*
X116000000Y-131000000D01*
X116000000Y-187000000D02*
X107000000Y-187000000D01*
X83375000Y-101625000D02*
X83600000Y-101625000D01*
X83375000Y-94375000D02*
X83700000Y-94375000D01*
X90625000Y-94375000D02*
X90300000Y-94375000D01*
X90625000Y-101625000D02*
X90300000Y-101625000D01*
X83375000Y-101625000D02*
X83375000Y-101300000D01*
X90625000Y-101625000D02*
X90625000Y-101300000D01*
X90625000Y-94375000D02*
X90625000Y-94700000D01*
X83375000Y-94375000D02*
X83375000Y-94700000D01*
X83600000Y-101625000D02*
X83600000Y-103050000D01*
D12*
X118900000Y-94890000D02*
X117100000Y-94890000D01*
X117100000Y-98110000D02*
X119550000Y-98110000D01*
D11*
X51125000Y-55925000D02*
X51125000Y-56175000D01*
X58875000Y-55925000D02*
X58875000Y-56260000D01*
X58875000Y-69075000D02*
X58875000Y-68740000D01*
X51125000Y-69075000D02*
X51125000Y-68740000D01*
X51125000Y-55925000D02*
X58875000Y-55925000D01*
X51125000Y-69075000D02*
X58875000Y-69075000D01*
X51125000Y-56175000D02*
X49325000Y-56175000D01*
X119925000Y-59425000D02*
X119925000Y-59450000D01*
X124075000Y-59425000D02*
X124075000Y-59530000D01*
X124075000Y-69575000D02*
X124075000Y-69470000D01*
X119925000Y-69575000D02*
X119925000Y-69470000D01*
X119925000Y-59425000D02*
X124075000Y-59425000D01*
X119925000Y-69575000D02*
X124075000Y-69575000D01*
X119925000Y-59450000D02*
X118550000Y-59450000D01*
X82500000Y-112000000D02*
X81000000Y-112000000D01*
X82500000Y-124000000D02*
X81000000Y-124000000D01*
X70500000Y-124000000D02*
X72000000Y-124000000D01*
X70500000Y-112000000D02*
X72000000Y-112000000D01*
X82500000Y-124000000D02*
X82500000Y-112000000D01*
X70500000Y-124000000D02*
X70500000Y-112000000D01*
X104500000Y-112000000D02*
X103000000Y-112000000D01*
X104500000Y-124000000D02*
X103000000Y-124000000D01*
X92500000Y-124000000D02*
X94000000Y-124000000D01*
X92500000Y-112000000D02*
X94000000Y-112000000D01*
X104500000Y-124000000D02*
X104500000Y-112000000D01*
X92500000Y-124000000D02*
X92500000Y-112000000D01*
X126500000Y-112000000D02*
X125000000Y-112000000D01*
X126500000Y-124000000D02*
X125000000Y-124000000D01*
X114500000Y-124000000D02*
X116000000Y-124000000D01*
X114500000Y-112000000D02*
X116000000Y-112000000D01*
X126500000Y-124000000D02*
X126500000Y-112000000D01*
X114500000Y-124000000D02*
X114500000Y-112000000D01*
D12*
X53000000Y-70980000D02*
X51000000Y-70980000D01*
X51000000Y-73020000D02*
X53000000Y-73020000D01*
D11*
X54904762Y-119333333D02*
X54952381Y-119190476D01*
X54952381Y-118952380D01*
X54904762Y-118857142D01*
X54857143Y-118809523D01*
X54761905Y-118761904D01*
X54666667Y-118761904D01*
X54571429Y-118809523D01*
X54523810Y-118857142D01*
X54476190Y-118952380D01*
X54428571Y-119142857D01*
X54380952Y-119238095D01*
X54333333Y-119285714D01*
X54238095Y-119333333D01*
X54142857Y-119333333D01*
X54047619Y-119285714D01*
X54000000Y-119238095D01*
X53952381Y-119142857D01*
X53952381Y-118904761D01*
X54000000Y-118761904D01*
X53952381Y-118428571D02*
X54952381Y-118190476D01*
X54238095Y-117999999D01*
X54952381Y-117809523D01*
X53952381Y-117571428D01*
X54952381Y-116666666D02*
X54952381Y-117238095D01*
X54952381Y-116952381D02*
X53952381Y-116952381D01*
X54095238Y-117047619D01*
X54190476Y-117142857D01*
X54238095Y-117238095D01*
X110333334Y-104547143D02*
X110285715Y-104594762D01*
X110142858Y-104642381D01*
X110047620Y-104642381D01*
X109904762Y-104594762D01*
X109809524Y-104499524D01*
X109761905Y-104404286D01*
X109714286Y-104213810D01*
X109714286Y-104070952D01*
X109761905Y-103880476D01*
X109809524Y-103785238D01*
X109904762Y-103690000D01*
X110047620Y-103642381D01*
X110142858Y-103642381D01*
X110285715Y-103690000D01*
X110333334Y-103737619D01*
X111285715Y-104642381D02*
X110714286Y-104642381D01*
X111000000Y-104642381D02*
X111000000Y-103642381D01*
X110904762Y-103785238D01*
X110809524Y-103880476D01*
X110714286Y-103928095D01*
X120083334Y-84397143D02*
X120035715Y-84444762D01*
X119892858Y-84492381D01*
X119797620Y-84492381D01*
X119654762Y-84444762D01*
X119559524Y-84349524D01*
X119511905Y-84254286D01*
X119464286Y-84063810D01*
X119464286Y-83920952D01*
X119511905Y-83730476D01*
X119559524Y-83635238D01*
X119654762Y-83540000D01*
X119797620Y-83492381D01*
X119892858Y-83492381D01*
X120035715Y-83540000D01*
X120083334Y-83587619D01*
X120464286Y-83587619D02*
X120511905Y-83540000D01*
X120607143Y-83492381D01*
X120845239Y-83492381D01*
X120940477Y-83540000D01*
X120988096Y-83587619D01*
X121035715Y-83682857D01*
X121035715Y-83778095D01*
X120988096Y-83920952D01*
X120416667Y-84492381D01*
X121035715Y-84492381D01*
X85333334Y-92607143D02*
X85285715Y-92654762D01*
X85142858Y-92702381D01*
X85047620Y-92702381D01*
X84904762Y-92654762D01*
X84809524Y-92559524D01*
X84761905Y-92464286D01*
X84714286Y-92273810D01*
X84714286Y-92130952D01*
X84761905Y-91940476D01*
X84809524Y-91845238D01*
X84904762Y-91750000D01*
X85047620Y-91702381D01*
X85142858Y-91702381D01*
X85285715Y-91750000D01*
X85333334Y-91797619D01*
X85666667Y-91702381D02*
X86285715Y-91702381D01*
X85952381Y-92083333D01*
X86095239Y-92083333D01*
X86190477Y-92130952D01*
X86238096Y-92178571D01*
X86285715Y-92273810D01*
X86285715Y-92511905D01*
X86238096Y-92607143D01*
X86190477Y-92654762D01*
X86095239Y-92702381D01*
X85809524Y-92702381D01*
X85714286Y-92654762D01*
X85666667Y-92607143D01*
X121833334Y-74607143D02*
X121785715Y-74654762D01*
X121642858Y-74702381D01*
X121547620Y-74702381D01*
X121404762Y-74654762D01*
X121309524Y-74559524D01*
X121261905Y-74464286D01*
X121214286Y-74273810D01*
X121214286Y-74130952D01*
X121261905Y-73940476D01*
X121309524Y-73845238D01*
X121404762Y-73750000D01*
X121547620Y-73702381D01*
X121642858Y-73702381D01*
X121785715Y-73750000D01*
X121833334Y-73797619D01*
X122690477Y-74035714D02*
X122690477Y-74702381D01*
X122452381Y-73654762D02*
X122214286Y-74369048D01*
X122833334Y-74369048D01*
X86833334Y-107607143D02*
X86785715Y-107654762D01*
X86642858Y-107702381D01*
X86547620Y-107702381D01*
X86404762Y-107654762D01*
X86309524Y-107559524D01*
X86261905Y-107464286D01*
X86214286Y-107273810D01*
X86214286Y-107130952D01*
X86261905Y-106940476D01*
X86309524Y-106845238D01*
X86404762Y-106750000D01*
X86547620Y-106702381D01*
X86642858Y-106702381D01*
X86785715Y-106750000D01*
X86833334Y-106797619D01*
X87738096Y-106702381D02*
X87261905Y-106702381D01*
X87214286Y-107178571D01*
X87261905Y-107130952D01*
X87357143Y-107083333D01*
X87595239Y-107083333D01*
X87690477Y-107130952D01*
X87738096Y-107178571D01*
X87785715Y-107273810D01*
X87785715Y-107511905D01*
X87738096Y-107607143D01*
X87690477Y-107654762D01*
X87595239Y-107702381D01*
X87357143Y-107702381D01*
X87261905Y-107654762D01*
X87214286Y-107607143D01*
X111261905Y-94452381D02*
X111261905Y-93452381D01*
X111500000Y-93452381D01*
X111642858Y-93500000D01*
X111738096Y-93595238D01*
X111785715Y-93690476D01*
X111833334Y-93880952D01*
X111833334Y-94023810D01*
X111785715Y-94214286D01*
X111738096Y-94309524D01*
X111642858Y-94404762D01*
X111500000Y-94452381D01*
X111261905Y-94452381D01*
X112214286Y-93547619D02*
X112261905Y-93500000D01*
X112357143Y-93452381D01*
X112595239Y-93452381D01*
X112690477Y-93500000D01*
X112738096Y-93547619D01*
X112785715Y-93642857D01*
X112785715Y-93738095D01*
X112738096Y-93880952D01*
X112166667Y-94452381D01*
X112785715Y-94452381D01*
X102903334Y-105072381D02*
X102427143Y-105072381D01*
X102427143Y-104072381D01*
X103760477Y-105072381D02*
X103189048Y-105072381D01*
X103474762Y-105072381D02*
X103474762Y-104072381D01*
X103379524Y-104215238D01*
X103284286Y-104310476D01*
X103189048Y-104358095D01*
X64380953Y-121912381D02*
X63904762Y-121912381D01*
X63904762Y-120912381D01*
X64714286Y-121388571D02*
X65047620Y-121388571D01*
X65190477Y-121912381D02*
X64714286Y-121912381D01*
X64714286Y-120912381D01*
X65190477Y-120912381D01*
X65619048Y-121912381D02*
X65619048Y-120912381D01*
X65857143Y-120912381D01*
X66000001Y-120960000D01*
X66095239Y-121055238D01*
X66142858Y-121150476D01*
X66190477Y-121340952D01*
X66190477Y-121483810D01*
X66142858Y-121674286D01*
X66095239Y-121769524D01*
X66000001Y-121864762D01*
X65857143Y-121912381D01*
X65619048Y-121912381D01*
X67142858Y-121912381D02*
X66571429Y-121912381D01*
X66857143Y-121912381D02*
X66857143Y-120912381D01*
X66761905Y-121055238D01*
X66666667Y-121150476D01*
X66571429Y-121198095D01*
X108420953Y-122412381D02*
X107944762Y-122412381D01*
X107944762Y-121412381D01*
X108754286Y-121888571D02*
X109087620Y-121888571D01*
X109230477Y-122412381D02*
X108754286Y-122412381D01*
X108754286Y-121412381D01*
X109230477Y-121412381D01*
X109659048Y-122412381D02*
X109659048Y-121412381D01*
X109897143Y-121412381D01*
X110040001Y-121460000D01*
X110135239Y-121555238D01*
X110182858Y-121650476D01*
X110230477Y-121840952D01*
X110230477Y-121983810D01*
X110182858Y-122174286D01*
X110135239Y-122269524D01*
X110040001Y-122364762D01*
X109897143Y-122412381D01*
X109659048Y-122412381D01*
X110611429Y-121507619D02*
X110659048Y-121460000D01*
X110754286Y-121412381D01*
X110992382Y-121412381D01*
X111087620Y-121460000D01*
X111135239Y-121507619D01*
X111182858Y-121602857D01*
X111182858Y-121698095D01*
X111135239Y-121840952D01*
X110563810Y-122412381D01*
X111182858Y-122412381D01*
X86380953Y-74452381D02*
X85904762Y-74452381D01*
X85904762Y-73452381D01*
X86714286Y-73928571D02*
X87047620Y-73928571D01*
X87190477Y-74452381D02*
X86714286Y-74452381D01*
X86714286Y-73452381D01*
X87190477Y-73452381D01*
X87619048Y-74452381D02*
X87619048Y-73452381D01*
X87857143Y-73452381D01*
X88000001Y-73500000D01*
X88095239Y-73595238D01*
X88142858Y-73690476D01*
X88190477Y-73880952D01*
X88190477Y-74023810D01*
X88142858Y-74214286D01*
X88095239Y-74309524D01*
X88000001Y-74404762D01*
X87857143Y-74452381D01*
X87619048Y-74452381D01*
X88523810Y-73452381D02*
X89142858Y-73452381D01*
X88809524Y-73833333D01*
X88952382Y-73833333D01*
X89047620Y-73880952D01*
X89095239Y-73928571D01*
X89142858Y-74023810D01*
X89142858Y-74261905D01*
X89095239Y-74357143D01*
X89047620Y-74404762D01*
X88952382Y-74452381D01*
X88666667Y-74452381D01*
X88571429Y-74404762D01*
X88523810Y-74357143D01*
X86380953Y-54952381D02*
X85904762Y-54952381D01*
X85904762Y-53952381D01*
X86714286Y-54428571D02*
X87047620Y-54428571D01*
X87190477Y-54952381D02*
X86714286Y-54952381D01*
X86714286Y-53952381D01*
X87190477Y-53952381D01*
X87619048Y-54952381D02*
X87619048Y-53952381D01*
X87857143Y-53952381D01*
X88000001Y-54000000D01*
X88095239Y-54095238D01*
X88142858Y-54190476D01*
X88190477Y-54380952D01*
X88190477Y-54523810D01*
X88142858Y-54714286D01*
X88095239Y-54809524D01*
X88000001Y-54904762D01*
X87857143Y-54952381D01*
X87619048Y-54952381D01*
X89047620Y-54285714D02*
X89047620Y-54952381D01*
X88809524Y-53904762D02*
X88571429Y-54619048D01*
X89190477Y-54619048D01*
X83622381Y-128238095D02*
X82622381Y-128238095D01*
X82622381Y-127857142D01*
X82670000Y-127761904D01*
X82717619Y-127714285D01*
X82812857Y-127666666D01*
X82955714Y-127666666D01*
X83050952Y-127714285D01*
X83098571Y-127761904D01*
X83146190Y-127857142D01*
X83146190Y-128238095D01*
X83622381Y-126714285D02*
X83622381Y-127285714D01*
X83622381Y-127000000D02*
X82622381Y-127000000D01*
X82765238Y-127095238D01*
X82860476Y-127190476D01*
X82908095Y-127285714D01*
X97531905Y-93582381D02*
X97531905Y-92582381D01*
X97912858Y-92582381D01*
X98008096Y-92630000D01*
X98055715Y-92677619D01*
X98103334Y-92772857D01*
X98103334Y-92915714D01*
X98055715Y-93010952D01*
X98008096Y-93058571D01*
X97912858Y-93106190D01*
X97531905Y-93106190D01*
X98484286Y-92677619D02*
X98531905Y-92630000D01*
X98627143Y-92582381D01*
X98865239Y-92582381D01*
X98960477Y-92630000D01*
X99008096Y-92677619D01*
X99055715Y-92772857D01*
X99055715Y-92868095D01*
X99008096Y-93010952D01*
X98436667Y-93582381D01*
X99055715Y-93582381D01*
X50682381Y-48353095D02*
X49682381Y-48353095D01*
X49682381Y-47972142D01*
X49730000Y-47876904D01*
X49777619Y-47829285D01*
X49872857Y-47781666D01*
X50015714Y-47781666D01*
X50110952Y-47829285D01*
X50158571Y-47876904D01*
X50206190Y-47972142D01*
X50206190Y-48353095D01*
X49682381Y-47448333D02*
X49682381Y-46829285D01*
X50063333Y-47162619D01*
X50063333Y-47019761D01*
X50110952Y-46924523D01*
X50158571Y-46876904D01*
X50253810Y-46829285D01*
X50491905Y-46829285D01*
X50587143Y-46876904D01*
X50634762Y-46924523D01*
X50682381Y-47019761D01*
X50682381Y-47305476D01*
X50634762Y-47400714D01*
X50587143Y-47448333D01*
X115682381Y-47853095D02*
X114682381Y-47853095D01*
X114682381Y-47472142D01*
X114730000Y-47376904D01*
X114777619Y-47329285D01*
X114872857Y-47281666D01*
X115015714Y-47281666D01*
X115110952Y-47329285D01*
X115158571Y-47376904D01*
X115206190Y-47472142D01*
X115206190Y-47853095D01*
X115015714Y-46424523D02*
X115682381Y-46424523D01*
X114634762Y-46662619D02*
X115349048Y-46900714D01*
X115349048Y-46281666D01*
X58261905Y-90582381D02*
X58261905Y-89582381D01*
X58642858Y-89582381D01*
X58738096Y-89630000D01*
X58785715Y-89677619D01*
X58833334Y-89772857D01*
X58833334Y-89915714D01*
X58785715Y-90010952D01*
X58738096Y-90058571D01*
X58642858Y-90106190D01*
X58261905Y-90106190D01*
X59738096Y-89582381D02*
X59261905Y-89582381D01*
X59214286Y-90058571D01*
X59261905Y-90010952D01*
X59357143Y-89963333D01*
X59595239Y-89963333D01*
X59690477Y-90010952D01*
X59738096Y-90058571D01*
X59785715Y-90153810D01*
X59785715Y-90391905D01*
X59738096Y-90487143D01*
X59690477Y-90534762D01*
X59595239Y-90582381D01*
X59357143Y-90582381D01*
X59261905Y-90534762D01*
X59214286Y-90487143D01*
X88547619Y-119595238D02*
X88500000Y-119690476D01*
X88404762Y-119785714D01*
X88261905Y-119928571D01*
X88214286Y-120023810D01*
X88214286Y-120119048D01*
X88452381Y-120071429D02*
X88404762Y-120166667D01*
X88309524Y-120261905D01*
X88119048Y-120309524D01*
X87785714Y-120309524D01*
X87595238Y-120261905D01*
X87500000Y-120166667D01*
X87452381Y-120071429D01*
X87452381Y-119880952D01*
X87500000Y-119785714D01*
X87595238Y-119690476D01*
X87785714Y-119642857D01*
X88119048Y-119642857D01*
X88309524Y-119690476D01*
X88404762Y-119785714D01*
X88452381Y-119880952D01*
X88452381Y-120071429D01*
X88452381Y-118690476D02*
X88452381Y-119261905D01*
X88452381Y-118976191D02*
X87452381Y-118976191D01*
X87595238Y-119071429D01*
X87690476Y-119166667D01*
X87738095Y-119261905D01*
X77602381Y-100666666D02*
X77126190Y-101000000D01*
X77602381Y-101238095D02*
X76602381Y-101238095D01*
X76602381Y-100857142D01*
X76650000Y-100761904D01*
X76697619Y-100714285D01*
X76792857Y-100666666D01*
X76935714Y-100666666D01*
X77030952Y-100714285D01*
X77078571Y-100761904D01*
X77126190Y-100857142D01*
X77126190Y-101238095D01*
X77602381Y-99714285D02*
X77602381Y-100285714D01*
X77602381Y-100000000D02*
X76602381Y-100000000D01*
X76745238Y-100095238D01*
X76840476Y-100190476D01*
X76888095Y-100285714D01*
X125302381Y-97166666D02*
X124826190Y-97500000D01*
X125302381Y-97738095D02*
X124302381Y-97738095D01*
X124302381Y-97357142D01*
X124350000Y-97261904D01*
X124397619Y-97214285D01*
X124492857Y-97166666D01*
X124635714Y-97166666D01*
X124730952Y-97214285D01*
X124778571Y-97261904D01*
X124826190Y-97357142D01*
X124826190Y-97738095D01*
X124397619Y-96785714D02*
X124350000Y-96738095D01*
X124302381Y-96642857D01*
X124302381Y-96404761D01*
X124350000Y-96309523D01*
X124397619Y-96261904D01*
X124492857Y-96214285D01*
X124588095Y-96214285D01*
X124730952Y-96261904D01*
X125302381Y-96833333D01*
X125302381Y-96214285D01*
X92302381Y-120166666D02*
X91826190Y-120500000D01*
X92302381Y-120738095D02*
X91302381Y-120738095D01*
X91302381Y-120357142D01*
X91350000Y-120261904D01*
X91397619Y-120214285D01*
X91492857Y-120166666D01*
X91635714Y-120166666D01*
X91730952Y-120214285D01*
X91778571Y-120261904D01*
X91826190Y-120357142D01*
X91826190Y-120738095D01*
X91302381Y-119833333D02*
X91302381Y-119214285D01*
X91683333Y-119547619D01*
X91683333Y-119404761D01*
X91730952Y-119309523D01*
X91778571Y-119261904D01*
X91873810Y-119214285D01*
X92111905Y-119214285D01*
X92207143Y-119261904D01*
X92254762Y-119309523D01*
X92302381Y-119404761D01*
X92302381Y-119690476D01*
X92254762Y-119785714D01*
X92207143Y-119833333D01*
X114833334Y-57452381D02*
X114500000Y-56976190D01*
X114261905Y-57452381D02*
X114261905Y-56452381D01*
X114642858Y-56452381D01*
X114738096Y-56500000D01*
X114785715Y-56547619D01*
X114833334Y-56642857D01*
X114833334Y-56785714D01*
X114785715Y-56880952D01*
X114738096Y-56928571D01*
X114642858Y-56976190D01*
X114261905Y-56976190D01*
X115261905Y-57452381D02*
X115261905Y-56452381D01*
X115642858Y-56452381D01*
X115738096Y-56500000D01*
X115785715Y-56547619D01*
X115833334Y-56642857D01*
X115833334Y-56785714D01*
X115785715Y-56880952D01*
X115738096Y-56928571D01*
X115642858Y-56976190D01*
X115261905Y-56976190D01*
X116785715Y-57452381D02*
X116214286Y-57452381D01*
X116500000Y-57452381D02*
X116500000Y-56452381D01*
X116404762Y-56595238D01*
X116309524Y-56690476D01*
X116214286Y-56738095D01*
X114833334Y-63452381D02*
X114500000Y-62976190D01*
X114261905Y-63452381D02*
X114261905Y-62452381D01*
X114642858Y-62452381D01*
X114738096Y-62500000D01*
X114785715Y-62547619D01*
X114833334Y-62642857D01*
X114833334Y-62785714D01*
X114785715Y-62880952D01*
X114738096Y-62928571D01*
X114642858Y-62976190D01*
X114261905Y-62976190D01*
X115261905Y-63452381D02*
X115261905Y-62452381D01*
X115642858Y-62452381D01*
X115738096Y-62500000D01*
X115785715Y-62547619D01*
X115833334Y-62642857D01*
X115833334Y-62785714D01*
X115785715Y-62880952D01*
X115738096Y-62928571D01*
X115642858Y-62976190D01*
X115261905Y-62976190D01*
X116214286Y-62547619D02*
X116261905Y-62500000D01*
X116357143Y-62452381D01*
X116595239Y-62452381D01*
X116690477Y-62500000D01*
X116738096Y-62547619D01*
X116785715Y-62642857D01*
X116785715Y-62738095D01*
X116738096Y-62880952D01*
X116166667Y-63452381D01*
X116785715Y-63452381D01*
X73333334Y-98612381D02*
X73000000Y-98136190D01*
X72761905Y-98612381D02*
X72761905Y-97612381D01*
X73142858Y-97612381D01*
X73238096Y-97660000D01*
X73285715Y-97707619D01*
X73333334Y-97802857D01*
X73333334Y-97945714D01*
X73285715Y-98040952D01*
X73238096Y-98088571D01*
X73142858Y-98136190D01*
X72761905Y-98136190D01*
X73761905Y-98612381D02*
X73761905Y-97612381D01*
X74142858Y-97612381D01*
X74238096Y-97660000D01*
X74285715Y-97707619D01*
X74333334Y-97802857D01*
X74333334Y-97945714D01*
X74285715Y-98040952D01*
X74238096Y-98088571D01*
X74142858Y-98136190D01*
X73761905Y-98136190D01*
X74666667Y-97612381D02*
X75285715Y-97612381D01*
X74952381Y-97993333D01*
X75095239Y-97993333D01*
X75190477Y-98040952D01*
X75238096Y-98088571D01*
X75285715Y-98183810D01*
X75285715Y-98421905D01*
X75238096Y-98517143D01*
X75190477Y-98564762D01*
X75095239Y-98612381D01*
X74809524Y-98612381D01*
X74714286Y-98564762D01*
X74666667Y-98517143D01*
X63952381Y-157595238D02*
X63476190Y-157928572D01*
X63952381Y-158166667D02*
X62952381Y-158166667D01*
X62952381Y-157785714D01*
X63000000Y-157690476D01*
X63047619Y-157642857D01*
X63142857Y-157595238D01*
X63285714Y-157595238D01*
X63380952Y-157642857D01*
X63428571Y-157690476D01*
X63476190Y-157785714D01*
X63476190Y-158166667D01*
X62952381Y-157309524D02*
X63952381Y-156976191D01*
X62952381Y-156642857D01*
X63952381Y-155785714D02*
X63952381Y-156357143D01*
X63952381Y-156071429D02*
X62952381Y-156071429D01*
X63095238Y-156166667D01*
X63190476Y-156261905D01*
X63238095Y-156357143D01*
X110904762Y-157452381D02*
X110571428Y-156976190D01*
X110333333Y-157452381D02*
X110333333Y-156452381D01*
X110714286Y-156452381D01*
X110809524Y-156500000D01*
X110857143Y-156547619D01*
X110904762Y-156642857D01*
X110904762Y-156785714D01*
X110857143Y-156880952D01*
X110809524Y-156928571D01*
X110714286Y-156976190D01*
X110333333Y-156976190D01*
X111190476Y-156452381D02*
X111523809Y-157452381D01*
X111857143Y-156452381D01*
X112142857Y-156547619D02*
X112190476Y-156500000D01*
X112285714Y-156452381D01*
X112523810Y-156452381D01*
X112619048Y-156500000D01*
X112666667Y-156547619D01*
X112714286Y-156642857D01*
X112714286Y-156738095D01*
X112666667Y-156880952D01*
X112095238Y-157452381D01*
X112714286Y-157452381D01*
X80402381Y-98761905D02*
X81211905Y-98761905D01*
X81307143Y-98714286D01*
X81354762Y-98666667D01*
X81402381Y-98571429D01*
X81402381Y-98380952D01*
X81354762Y-98285714D01*
X81307143Y-98238095D01*
X81211905Y-98190476D01*
X80402381Y-98190476D01*
X81402381Y-97190476D02*
X81402381Y-97761905D01*
X81402381Y-97476191D02*
X80402381Y-97476191D01*
X80545238Y-97571429D01*
X80640476Y-97666667D01*
X80688095Y-97761905D01*
X117238095Y-98852381D02*
X117238095Y-99661905D01*
X117285714Y-99757143D01*
X117333333Y-99804762D01*
X117428571Y-99852381D01*
X117619048Y-99852381D01*
X117714286Y-99804762D01*
X117761905Y-99757143D01*
X117809524Y-99661905D01*
X117809524Y-98852381D01*
X118238095Y-98947619D02*
X118285714Y-98900000D01*
X118380952Y-98852381D01*
X118619048Y-98852381D01*
X118714286Y-98900000D01*
X118761905Y-98947619D01*
X118809524Y-99042857D01*
X118809524Y-99138095D01*
X118761905Y-99280952D01*
X118190476Y-99852381D01*
X118809524Y-99852381D01*
X54238095Y-54452381D02*
X54238095Y-55261905D01*
X54285714Y-55357143D01*
X54333333Y-55404762D01*
X54428571Y-55452381D01*
X54619048Y-55452381D01*
X54714286Y-55404762D01*
X54761905Y-55357143D01*
X54809524Y-55261905D01*
X54809524Y-54452381D01*
X55190476Y-54452381D02*
X55809524Y-54452381D01*
X55476190Y-54833333D01*
X55619048Y-54833333D01*
X55714286Y-54880952D01*
X55761905Y-54928571D01*
X55809524Y-55023810D01*
X55809524Y-55261905D01*
X55761905Y-55357143D01*
X55714286Y-55404762D01*
X55619048Y-55452381D01*
X55333333Y-55452381D01*
X55238095Y-55404762D01*
X55190476Y-55357143D01*
X121238095Y-57952381D02*
X121238095Y-58761905D01*
X121285714Y-58857143D01*
X121333333Y-58904762D01*
X121428571Y-58952381D01*
X121619048Y-58952381D01*
X121714286Y-58904762D01*
X121761905Y-58857143D01*
X121809524Y-58761905D01*
X121809524Y-57952381D01*
X122714286Y-58285714D02*
X122714286Y-58952381D01*
X122476190Y-57904762D02*
X122238095Y-58619048D01*
X122857143Y-58619048D01*
X76904762Y-119333333D02*
X76952381Y-119190476D01*
X76952381Y-118952380D01*
X76904762Y-118857142D01*
X76857143Y-118809523D01*
X76761905Y-118761904D01*
X76666667Y-118761904D01*
X76571429Y-118809523D01*
X76523810Y-118857142D01*
X76476190Y-118952380D01*
X76428571Y-119142857D01*
X76380952Y-119238095D01*
X76333333Y-119285714D01*
X76238095Y-119333333D01*
X76142857Y-119333333D01*
X76047619Y-119285714D01*
X76000000Y-119238095D01*
X75952381Y-119142857D01*
X75952381Y-118904761D01*
X76000000Y-118761904D01*
X75952381Y-118428571D02*
X76952381Y-118190476D01*
X76238095Y-117999999D01*
X76952381Y-117809523D01*
X75952381Y-117571428D01*
X76047619Y-117238095D02*
X76000000Y-117190476D01*
X75952381Y-117095238D01*
X75952381Y-116857142D01*
X76000000Y-116761904D01*
X76047619Y-116714285D01*
X76142857Y-116666666D01*
X76238095Y-116666666D01*
X76380952Y-116714285D01*
X76952381Y-117285714D01*
X76952381Y-116666666D01*
X98904762Y-119333333D02*
X98952381Y-119190476D01*
X98952381Y-118952380D01*
X98904762Y-118857142D01*
X98857143Y-118809523D01*
X98761905Y-118761904D01*
X98666667Y-118761904D01*
X98571429Y-118809523D01*
X98523810Y-118857142D01*
X98476190Y-118952380D01*
X98428571Y-119142857D01*
X98380952Y-119238095D01*
X98333333Y-119285714D01*
X98238095Y-119333333D01*
X98142857Y-119333333D01*
X98047619Y-119285714D01*
X98000000Y-119238095D01*
X97952381Y-119142857D01*
X97952381Y-118904761D01*
X98000000Y-118761904D01*
X97952381Y-118428571D02*
X98952381Y-118190476D01*
X98238095Y-117999999D01*
X98952381Y-117809523D01*
X97952381Y-117571428D01*
X97952381Y-117285714D02*
X97952381Y-116666666D01*
X98333333Y-117000000D01*
X98333333Y-116857142D01*
X98380952Y-116761904D01*
X98428571Y-116714285D01*
X98523810Y-116666666D01*
X98761905Y-116666666D01*
X98857143Y-116714285D01*
X98904762Y-116761904D01*
X98952381Y-116857142D01*
X98952381Y-117142857D01*
X98904762Y-117238095D01*
X98857143Y-117285714D01*
X120904762Y-119333333D02*
X120952381Y-119190476D01*
X120952381Y-118952380D01*
X120904762Y-118857142D01*
X120857143Y-118809523D01*
X120761905Y-118761904D01*
X120666667Y-118761904D01*
X120571429Y-118809523D01*
X120523810Y-118857142D01*
X120476190Y-118952380D01*
X120428571Y-119142857D01*
X120380952Y-119238095D01*
X120333333Y-119285714D01*
X120238095Y-119333333D01*
X120142857Y-119333333D01*
X120047619Y-119285714D01*
X120000000Y-119238095D01*
X119952381Y-119142857D01*
X119952381Y-118904761D01*
X120000000Y-118761904D01*
X119952381Y-118428571D02*
X120952381Y-118190476D01*
X120238095Y-117999999D01*
X120952381Y-117809523D01*
X119952381Y-117571428D01*
X120285714Y-116761904D02*
X120952381Y-116761904D01*
X119904762Y-117000000D02*
X120619048Y-117238095D01*
X120619048Y-116619047D01*
X51833334Y-70607143D02*
X51785715Y-70654762D01*
X51642858Y-70702381D01*
X51547620Y-70702381D01*
X51404762Y-70654762D01*
X51309524Y-70559524D01*
X51261905Y-70464286D01*
X51214286Y-70273810D01*
X51214286Y-70130952D01*
X51261905Y-69940476D01*
X51309524Y-69845238D01*
X51404762Y-69750000D01*
X51547620Y-69702381D01*
X51642858Y-69702381D01*
X51785715Y-69750000D01*
X51833334Y-69797619D01*
X52690477Y-69702381D02*
X52500000Y-69702381D01*
X52404762Y-69750000D01*
X52357143Y-69797619D01*
X52261905Y-69940476D01*
X52214286Y-70130952D01*
X52214286Y-70511905D01*
X52261905Y-70607143D01*
X52309524Y-70654762D01*
X52404762Y-70702381D01*
X52595239Y-70702381D01*
X52690477Y-70654762D01*
X52738096Y-70607143D01*
X52785715Y-70511905D01*
X52785715Y-70273810D01*
X52738096Y-70178571D01*
X52690477Y-70130952D01*
X52595239Y-70083333D01*
X52404762Y-70083333D01*
X52309524Y-70130952D01*
X52261905Y-70178571D01*
X52214286Y-70273810D01*
M02*
